<svg width="25" height="25" viewBox="0 0 25 25" fill="none" xmlns="http://www.w3.org/2000/svg">
<path d="M12.4999 2.08331C6.77075 2.08331 2.08325 6.77081 2.08325 12.5C2.08325 14.375 2.6049 16.1458 3.43823 17.7083L2.08325 22.9166L7.49911 21.6675C9.06161 22.5008 10.7291 22.9166 12.4999 22.9166C18.2291 22.9166 22.9166 18.2291 22.9166 12.5C22.9166 9.68748 21.8745 7.08372 19.8953 5.10455C17.9162 3.12539 15.3124 2.08331 12.4999 2.08331ZM12.4999 4.16665C14.6874 4.16665 16.7699 5.00079 18.4366 6.56329C19.9991 8.22996 20.8333 10.3125 20.8333 12.5C20.8333 17.0833 17.0833 20.8333 12.4999 20.8333C11.1458 20.8333 9.68661 20.5208 8.54077 19.7916L7.81242 19.3746L7.08407 19.5841L5.00073 20.105L5.52157 18.2291L5.72909 17.395L5.31201 16.6666C4.58285 15.4166 4.16659 13.9583 4.16659 12.5C4.16659 7.91665 7.91659 4.16665 12.4999 4.16665ZM8.85409 7.70872C8.64575 7.70872 8.33407 7.7075 8.12573 8.02C7.81323 8.3325 7.18783 8.95913 7.18783 10.2091C7.18783 11.4591 8.12533 12.7087 8.22949 12.9171C8.43783 13.1254 10.1033 15.8325 12.7074 16.8742C14.8949 17.7075 15.3116 17.5008 15.8324 17.5008C16.3533 17.3966 17.3962 16.8746 17.6045 16.2496C17.8128 15.6246 17.8116 15.1033 17.9158 14.7908C17.8116 14.6867 17.7074 14.5837 17.3949 14.4796C17.1866 14.3754 15.9374 13.7496 15.6249 13.6454C15.3124 13.5412 15.2087 13.4367 15.0003 13.7492C14.792 14.0617 14.2703 14.5825 14.1662 14.7908C14.062 14.9992 13.9578 15.0008 13.6453 14.8966C13.437 14.7925 12.6037 14.5829 11.562 13.6454C10.7287 13.0204 10.2074 12.1879 10.1033 11.8754C9.89494 11.6671 10.1049 11.4587 10.2091 11.3546L10.6241 10.9375C10.7283 10.8333 10.7295 10.6246 10.8337 10.5204C10.9378 10.4162 10.9378 10.3117 10.8337 10.1033C10.7295 9.895 10.2078 8.64663 9.99951 8.12579C9.79118 7.70913 9.58325 7.70872 9.37492 7.70872H8.85409Z" fill="white"/>
</svg>
