<svg width="25" height="25" viewBox="0 0 25 25" fill="none" xmlns="http://www.w3.org/2000/svg">
<path d="M12.5024 12.2396C13.0043 12.2396 13.4332 12.0608 13.7891 11.7034C14.145 11.346 14.323 10.9163 14.323 10.4143C14.323 9.9124 14.1443 9.48349 13.7868 9.12758C13.4294 8.77168 12.9997 8.59373 12.4978 8.59373C11.9958 8.59373 11.5669 8.77245 11.211 9.1299C10.8551 9.48733 10.6772 9.91702 10.6772 10.419C10.6772 10.9209 10.8559 11.3498 11.2133 11.7057C11.5708 12.0616 12.0005 12.2396 12.5024 12.2396ZM12.5001 20.8594C14.8091 18.7587 16.5148 16.8533 17.6173 15.1432C18.7197 13.4331 19.2709 11.9271 19.2709 10.625C19.2709 8.58001 18.6173 6.90558 17.3102 5.60167C16.003 4.29777 14.3997 3.64581 12.5001 3.64581C10.6005 3.64581 8.99711 4.29777 7.68998 5.60167C6.38282 6.90558 5.72925 8.58001 5.72925 10.625C5.72925 11.9271 6.29348 13.4331 7.42196 15.1432C8.55043 16.8533 10.2431 18.7587 12.5001 20.8594ZM12.5001 22.9166C9.70494 20.5382 7.61727 18.329 6.23706 16.289C4.85685 14.2491 4.16675 12.3611 4.16675 10.625C4.16675 8.02081 5.00442 5.94616 6.67977 4.40102C8.35512 2.85588 10.2952 2.08331 12.5001 2.08331C14.7049 2.08331 16.645 2.85588 18.3204 4.40102C19.9957 5.94616 20.8334 8.02081 20.8334 10.625C20.8334 12.3611 20.1433 14.2491 18.7631 16.289C17.3829 18.329 15.2952 20.5382 12.5001 22.9166Z" fill="white"/>
</svg>
