<svg width="48" height="48" viewBox="0 0 48 48" fill="none" xmlns="http://www.w3.org/2000/svg">
<path d="M14.625 0.25C6.69875 0.25 0.25 6.69875 0.25 14.625V33.375C0.25 41.3013 6.69875 47.75 14.625 47.75H33.375C41.3013 47.75 47.75 41.3013 47.75 33.375V14.625C47.75 6.69875 41.3013 0.25 33.375 0.25H14.625ZM36.5 9C37.8812 9 39 10.1187 39 11.5C39 12.88 37.8812 14 36.5 14C35.1188 14 34 12.88 34 11.5C34 10.1187 35.1188 9 36.5 9ZM24 11.5C30.8925 11.5 36.5 17.1075 36.5 24C36.5 30.8925 30.8925 36.5 24 36.5C17.1075 36.5 11.5 30.8925 11.5 24C11.5 17.1075 17.1075 11.5 24 11.5ZM24 15.25C22.8509 15.25 21.7131 15.4763 20.6515 15.9161C19.5899 16.3558 18.6253 17.0003 17.8128 17.8128C17.0003 18.6253 16.3558 19.5899 15.9161 20.6515C15.4763 21.7131 15.25 22.8509 15.25 24C15.25 25.1491 15.4763 26.2869 15.9161 27.3485C16.3558 28.4101 17.0003 29.3747 17.8128 30.1872C18.6253 30.9997 19.5899 31.6442 20.6515 32.0839C21.7131 32.5237 22.8509 32.75 24 32.75C25.1491 32.75 26.2869 32.5237 27.3485 32.0839C28.4101 31.6442 29.3747 30.9997 30.1872 30.1872C30.9997 29.3747 31.6442 28.4101 32.0839 27.3485C32.5237 26.2869 32.75 25.1491 32.75 24C32.75 22.8509 32.5237 21.7131 32.0839 20.6515C31.6442 19.5899 30.9997 18.6253 30.1872 17.8128C29.3747 17.0003 28.4101 16.3558 27.3485 15.9161C26.2869 15.4763 25.1491 15.25 24 15.25Z" fill="#FF0000"/>
</svg>
