<svg width="56" height="41" viewBox="0 0 56 41" fill="none" xmlns="http://www.w3.org/2000/svg">
<path d="M27.8218 0.625C19.8809 0.625 12.5029 1.19078 8.29297 2.07031C8.284 2.07269 8.27505 2.07513 8.26611 2.07764C5.09435 2.78837 2.10774 5.06029 1.479 8.61816C1.47817 8.62304 1.47736 8.62793 1.47656 8.63281C0.993545 11.5003 0.5 15.2384 0.5 20.625C0.5 26.0014 0.995238 29.6404 1.60596 32.6587C2.25009 36.1116 5.16777 38.4523 8.38818 39.1724C8.40359 39.1766 8.41906 39.1807 8.43457 39.1846C12.8284 40.0504 19.9981 40.625 27.939 40.625C35.8798 40.625 43.0534 40.0504 47.4482 39.1846C47.4638 39.1807 47.4792 39.1766 47.4946 39.1724C50.6664 38.4616 53.653 36.1897 54.2817 32.6318C54.2834 32.6229 54.2851 32.6139 54.2866 32.605C54.7622 29.679 55.3785 25.9445 55.5 20.5493C55.5002 20.5355 55.5002 20.5216 55.5 20.5078C55.5 15.1096 54.8821 11.3483 54.2793 8.36914C53.6402 4.90884 50.7192 2.56185 47.4946 1.84082C47.4454 1.82987 47.3957 1.82091 47.3457 1.81396C43.058 1.21119 35.7639 0.625 27.8218 0.625ZM23.1953 11.2524C23.6583 11.2429 24.1369 11.3524 24.5869 11.6064L35.3413 17.6831C37.1551 18.7081 37.1551 21.2943 35.3413 22.3193L24.5869 28.396C22.7882 29.411 20.5464 28.1254 20.5464 26.0767V13.9233C20.5464 12.3868 21.8063 11.2812 23.1953 11.2524Z" fill="#FF0000"/>
</svg>
