<svg width="25" height="25" viewBox="0 0 25 25" fill="none" xmlns="http://www.w3.org/2000/svg">
<path d="M12.4999 22.9166C11.0416 22.9166 9.67874 22.6432 8.41138 22.0963C7.14402 21.5495 6.04159 20.8073 5.10409 19.8698C4.16659 18.9323 3.42874 17.8255 2.89054 16.5495C2.35235 15.2734 2.08325 13.9062 2.08325 12.4479C2.08325 10.9896 2.35235 9.63106 2.89054 8.37238C3.42874 7.1137 4.16659 6.0156 5.10409 5.0781C6.04159 4.1406 7.14402 3.4071 8.41138 2.87758C9.67874 2.34807 11.0416 2.08331 12.4999 2.08331C13.9583 2.08331 15.3211 2.34807 16.5885 2.87758C17.8558 3.4071 18.9583 4.1406 19.8958 5.0781C20.8333 6.0156 21.5711 7.1137 22.1093 8.37238C22.6475 9.63106 22.9166 10.9896 22.9166 12.4479C22.9166 13.9062 22.6475 15.2734 22.1093 16.5495C21.5711 17.8255 20.8333 18.9323 19.8958 19.8698C18.9583 20.8073 17.8558 21.5495 16.5885 22.0963C15.3211 22.6432 13.9583 22.9166 12.4999 22.9166ZM12.4999 21.4062C13.1076 20.7812 13.6154 20.0651 14.0234 19.2578C14.4313 18.4505 14.7655 17.4913 15.026 16.3802H9.99992C10.243 17.4219 10.5685 18.3594 10.9765 19.1927C11.3845 20.026 11.8923 20.7639 12.4999 21.4062ZM10.2864 21.0937C9.85235 20.434 9.47909 19.7222 9.16659 18.9583C8.85409 18.1944 8.59367 17.335 8.38534 16.3802H4.47909C5.13881 17.6128 5.9027 18.5807 6.77075 19.2838C7.63881 19.987 8.81068 20.5903 10.2864 21.0937ZM14.7395 21.0677C15.9895 20.6684 17.1136 20.0694 18.1119 19.2708C19.1102 18.4722 19.9131 17.5087 20.5208 16.3802H16.6405C16.4149 17.3177 16.1501 18.1684 15.8463 18.9323C15.5425 19.6962 15.1735 20.408 14.7395 21.0677ZM3.95825 14.8177H8.09888C8.04679 14.3489 8.01641 13.9279 8.00773 13.5547C7.99905 13.1814 7.99471 12.8125 7.99471 12.4479C7.99471 12.0139 8.00339 11.6276 8.02075 11.289C8.03811 10.9505 8.07284 10.5729 8.12492 10.1562H3.95825C3.83672 10.5729 3.75426 10.9462 3.71086 11.276C3.66745 11.6059 3.64575 11.9965 3.64575 12.4479C3.64575 12.8993 3.66745 13.3029 3.71086 13.6588C3.75426 14.0147 3.83672 14.401 3.95825 14.8177ZM9.71346 14.8177H15.3124C15.3819 14.2795 15.4253 13.8411 15.4426 13.5026C15.46 13.164 15.4687 12.8125 15.4687 12.4479C15.4687 12.1007 15.46 11.7665 15.4426 11.4453C15.4253 11.1241 15.3819 10.6944 15.3124 10.1562H9.71346C9.64402 10.6944 9.60061 11.1241 9.58325 11.4453C9.56589 11.7665 9.55721 12.1007 9.55721 12.4479C9.55721 12.8125 9.56589 13.164 9.58325 13.5026C9.60061 13.8411 9.64402 14.2795 9.71346 14.8177ZM16.8749 14.8177H21.0416C21.1631 14.401 21.2456 14.0147 21.289 13.6588C21.3324 13.3029 21.3541 12.8993 21.3541 12.4479C21.3541 11.9965 21.3324 11.6059 21.289 11.276C21.2456 10.9462 21.1631 10.5729 21.0416 10.1562H16.901C16.953 10.7639 16.9878 11.2283 17.0051 11.5495C17.0225 11.8706 17.0312 12.1701 17.0312 12.4479C17.0312 12.8298 17.0181 13.1901 16.9921 13.5286C16.9661 13.8672 16.927 14.2969 16.8749 14.8177ZM16.6145 8.59373H20.5208C19.9478 7.39581 19.1622 6.39755 18.164 5.59894C17.1657 4.80033 16.0155 4.23609 14.7135 3.90623C15.1475 4.54859 15.5164 5.24304 15.8202 5.98956C16.1241 6.73609 16.3888 7.60415 16.6145 8.59373ZM9.99992 8.59373H15.052C14.861 7.67359 14.5399 6.78383 14.0885 5.92446C13.6371 5.06508 13.1076 4.30554 12.4999 3.64581C11.9444 4.11456 11.4756 4.73088 11.0937 5.49477C10.7117 6.25866 10.3471 7.29165 9.99992 8.59373ZM4.47909 8.59373H8.41138C8.60235 7.65623 8.84541 6.81856 9.14054 6.08071C9.43568 5.34286 9.80895 4.62672 10.2603 3.93227C8.95825 4.26213 7.8211 4.81769 6.84888 5.59894C5.87665 6.38019 5.08672 7.37845 4.47909 8.59373Z" fill="white"/>
</svg>
