<svg width="100" height="100" viewBox="0 0 100 100" fill="none" xmlns="http://www.w3.org/2000/svg">
<path d="M37.5 87.5H33.3333C28.7292 87.5 25 83.775 25 79.1708V58.3333C25 54.1667 18.75 50 18.75 50C18.75 50 25 45.8333 25 41.6667V20.8333C25 18.6232 25.878 16.5036 27.4408 14.9408C29.0036 13.378 31.1232 12.5 33.3333 12.5H37.5M62.5 87.5H66.6667C71.2708 87.5 75 83.775 75 79.1708V58.3333C75 54.1667 81.25 50 81.25 50C81.25 50 75 45.8333 75 41.6667V20.8333C75 18.6232 74.122 16.5036 72.5592 14.9408C70.9964 13.378 68.8768 12.5 66.6667 12.5H62.5" stroke="white" stroke-width="1.97917" stroke-linecap="round" stroke-linejoin="round"/>
</svg>
