<svg width="100" height="100" viewBox="0 0 100 100" fill="none" xmlns="http://www.w3.org/2000/svg">
<path d="M13.9083 70.8333C17.5646 77.1697 22.8254 82.4312 29.1612 86.0884C35.497 89.7457 42.6844 91.6696 50 91.6666C57.3156 91.6696 64.5029 89.7457 70.8387 86.0884C77.1745 82.4312 82.4353 77.1697 86.0916 70.8333M13.9083 29.1666C17.5646 22.8303 22.8254 17.5688 29.1612 13.9115C35.497 10.2543 42.6844 8.33035 50 8.33332C57.3156 8.33035 64.5029 10.2543 70.8387 13.9115C77.1745 17.5688 82.4353 22.8303 86.0916 29.1666M54.1666 91.4583C54.1666 91.4583 60.0333 83.7375 63.7291 70.8333M54.1666 8.54165C54.1666 8.54165 60.0333 16.2583 63.7291 29.1666M45.8333 91.4583C45.8333 91.4583 39.9666 83.7416 36.2708 70.8333M45.8333 8.54165C45.8333 8.54165 39.9666 16.2583 36.2708 29.1666M37.5 41.6666L43.75 62.5L50 41.6666L56.25 62.5L62.5 41.6666M4.16663 41.6666L10.4166 62.5L16.6666 41.6666L22.9166 62.5L29.1666 41.6666M70.8333 41.6666L77.0833 62.5L83.3333 41.6666L89.5833 62.5L95.8333 41.6666" stroke="white" stroke-width="1.97917" stroke-linecap="round" stroke-linejoin="round"/>
</svg>
