<svg width="100" height="100" viewBox="0 0 100 100" fill="none" xmlns="http://www.w3.org/2000/svg">
<path d="M35.4167 89.5834L50 75L64.5834 89.5834M50 8.33337V16.6667M37.5 50V58.3334M50 41.6667V58.3334M62.5 33.3334V58.3334M91.6667 19.1667V72.5C91.6667 72.8283 91.602 73.1534 91.4764 73.4567C91.3508 73.7601 91.1666 74.0357 90.9345 74.2678C90.7023 74.5 90.4267 74.6841 90.1234 74.8097C89.8201 74.9354 89.495 75 89.1667 75H10.8334C10.1703 75 9.53445 74.7366 9.06561 74.2678C8.59677 73.799 8.33337 73.1631 8.33337 72.5V19.1667C8.33337 18.5037 8.59677 17.8678 9.06561 17.3989C9.53445 16.9301 10.1703 16.6667 10.8334 16.6667H89.1667C89.8297 16.6667 90.4656 16.9301 90.9345 17.3989C91.4033 17.8678 91.6667 18.5037 91.6667 19.1667Z" stroke="white" stroke-width="1.97917" stroke-linecap="round" stroke-linejoin="round"/>
</svg>
