<svg width="100" height="100" viewBox="0 0 100 100" fill="none" xmlns="http://www.w3.org/2000/svg">
<path d="M13.3334 59.2584V16.6667C13.3334 14.4566 14.2114 12.337 15.7742 10.7742C17.337 9.21135 19.4566 8.33337 21.6667 8.33337H78.3334C80.5435 8.33337 82.6632 9.21135 84.226 10.7742C85.7888 12.337 86.6667 14.4566 86.6667 16.6667V59.2584M13.3334 59.2584H86.6667M13.3334 59.2584L7.16673 81.0667C6.81649 82.3058 6.75816 83.6092 6.99631 84.8746C7.23446 86.1401 7.76261 87.3331 8.53932 88.3601C9.31604 89.3871 10.3202 90.2201 11.4729 90.7938C12.6257 91.3676 13.8958 91.6663 15.1834 91.6667H84.8167C86.1044 91.6663 87.3744 91.3676 88.5272 90.7938C89.6799 90.2201 90.6841 89.3871 91.4608 88.3601C92.2375 87.3331 92.7657 86.1401 93.0038 84.8746C93.242 83.6092 93.1836 82.3058 92.8334 81.0667L86.6667 59.2584" stroke="white" stroke-width="1.97917"/>
<path d="M45.8334 79.1667H54.1667M58.3334 25L66.6667 33.3333L58.3334 41.6667M41.6667 25L33.3334 33.3333L41.6667 41.6667" stroke="white" stroke-width="1.97917" stroke-linecap="round" stroke-linejoin="round"/>
</svg>
