<svg width="100" height="100" viewBox="0 0 100 100" fill="none" xmlns="http://www.w3.org/2000/svg">
<path d="M20.8333 50V75C20.8333 75 20.8333 87.5 49.9999 87.5C79.1666 87.5 79.1666 75 79.1666 75V50" stroke="white" stroke-width="1.97917"/>
<path d="M20.8333 25V50C20.8333 50 20.8333 62.5 49.9999 62.5C79.1666 62.5 79.1666 50 79.1666 50V25" stroke="white" stroke-width="1.97917"/>
<path d="M49.9999 12.5C79.1666 12.5 79.1666 25 79.1666 25C79.1666 25 79.1666 37.5 49.9999 37.5C20.8333 37.5 20.8333 25 20.8333 25C20.8333 25 20.8333 12.5 49.9999 12.5Z" stroke="white" stroke-width="1.97917"/>
</svg>
