<svg width="100" height="100" viewBox="0 0 100 100" fill="none" xmlns="http://www.w3.org/2000/svg">
<path d="M8.33337 87.5H70.8334M87.5 87.5H91.6667" stroke="white" stroke-width="1.97917" stroke-linecap="round" stroke-linejoin="round"/>
<path d="M8.33337 68.3333V15C8.33337 14.337 8.59677 13.7011 9.06561 13.2322C9.53445 12.7634 10.1703 12.5 10.8334 12.5H89.1667C89.8297 12.5 90.4656 12.7634 90.9345 13.2322C91.4033 13.7011 91.6667 14.337 91.6667 15V68.3333C91.6667 68.9964 91.4033 69.6323 90.9345 70.1011C90.4656 70.5699 89.8297 70.8333 89.1667 70.8333H10.8334C10.1703 70.8333 9.53445 70.5699 9.06561 70.1011C8.59677 69.6323 8.33337 68.9964 8.33337 68.3333Z" stroke="white" stroke-width="1.97917"/>
</svg>
