<svg width="100" height="97" viewBox="0 0 100 97" fill="none" xmlns="http://www.w3.org/2000/svg">
<path d="M50 76.8303L50.04 76.7876" stroke="white" stroke-width="1.97917" stroke-linecap="round" stroke-linejoin="round"/>
<path d="M75 72.75V86.4917C75 86.8102 74.9353 87.1255 74.8097 87.4197C74.6841 87.7139 74.4999 87.9813 74.2678 88.2064C74.0356 88.4316 73.76 88.6102 73.4567 88.7321C73.1534 88.854 72.8283 88.9167 72.5 88.9167H27.5C27.1717 88.9167 26.8466 88.854 26.5433 88.7321C26.24 88.6102 25.9644 88.4316 25.7322 88.2064C25.5001 87.9813 25.3159 87.7139 25.1903 87.4197C25.0647 87.1255 25 86.8102 25 86.4917V72.75M75 24.25V10.5084C75 9.86522 74.7366 9.24842 74.2678 8.79364C73.7989 8.33886 73.163 8.08337 72.5 8.08337H27.5C26.837 8.08337 26.2011 8.33886 25.7322 8.79364C25.2634 9.24842 25 9.86522 25 10.5084V24.25" stroke="white" stroke-width="1.97917" stroke-linecap="round"/>
<path d="M64.5833 34.3541L79.1666 48.5L64.5833 62.6458M35.4166 34.3541L20.8333 48.5L35.4166 62.6458" stroke="white" stroke-width="1.97917" stroke-linecap="round" stroke-linejoin="round"/>
</svg>
