<svg width="100" height="100" viewBox="0 0 100 100" fill="none" xmlns="http://www.w3.org/2000/svg">
<path d="M50 66.7065L50.04 66.6625" stroke="white" stroke-width="1.97917" stroke-linecap="round" stroke-linejoin="round"/>
<path d="M29.1666 80.8333V19.1667C29.1666 18.5036 29.43 17.8678 29.8989 17.3989C30.3677 16.9301 31.0036 16.6667 31.6666 16.6667H68.3333C68.6616 16.6667 68.9867 16.7314 69.29 16.857C69.5933 16.9826 69.8689 17.1668 70.1011 17.3989C70.3332 17.6311 70.5174 17.9067 70.643 18.21C70.7686 18.5133 70.8333 18.8384 70.8333 19.1667V80.8333C70.8333 81.1617 70.7686 81.4867 70.643 81.7901C70.5174 82.0934 70.3332 82.369 70.1011 82.6011C69.8689 82.8333 69.5933 83.0174 69.29 83.1431C68.9867 83.2687 68.6616 83.3334 68.3333 83.3334H31.6666C31.0036 83.3334 30.3677 83.07 29.8989 82.6011C29.43 82.1323 29.1666 81.4964 29.1666 80.8333Z" stroke="white" stroke-width="1.97917"/>
</svg>
