<svg width="100" height="100" viewBox="0 0 100 100" fill="none" xmlns="http://www.w3.org/2000/svg">
<path d="M33.3334 64.1667V35.8333C33.3334 35.1703 33.5968 34.5344 34.0656 34.0656C34.5344 33.5967 35.1703 33.3333 35.8334 33.3333H64.1667C64.8297 33.3333 65.4656 33.5967 65.9345 34.0656C66.4033 34.5344 66.6667 35.1703 66.6667 35.8333V64.1667C66.6667 64.8297 66.4033 65.4656 65.9345 65.9344C65.4656 66.4033 64.8297 66.6667 64.1667 66.6667H35.8334C35.1703 66.6667 34.5344 66.4033 34.0656 65.9344C33.5968 65.4656 33.3334 64.8297 33.3334 64.1667Z" stroke="white" stroke-width="1.97917" stroke-linecap="round" stroke-linejoin="round"/>
<path d="M70.8334 16.6667V8.33334M50 16.6667V8.33334M29.1667 16.6667V8.33334M29.1667 83.3333V91.6667M50 83.3333V91.6667M70.8334 83.3333V91.6667M83.3334 70.8333H91.6667M83.3334 50H91.6667M83.3334 29.1667H91.6667M16.6667 70.8333H8.33337M16.6667 50H8.33337M16.6667 29.1667H8.33337M83.3334 19.1667V80.8333C83.3334 81.4964 83.07 82.1323 82.6011 82.6011C82.1323 83.0699 81.4964 83.3333 80.8334 83.3333H19.1667C18.5037 83.3333 17.8678 83.0699 17.3989 82.6011C16.9301 82.1323 16.6667 81.4964 16.6667 80.8333V19.1667C16.6667 18.5036 16.9301 17.8677 17.3989 17.3989C17.8678 16.9301 18.5037 16.6667 19.1667 16.6667H80.8334C81.4964 16.6667 82.1323 16.9301 82.6011 17.3989C83.07 17.8677 83.3334 18.5036 83.3334 19.1667Z" stroke="white" stroke-width="1.97917" stroke-linecap="round" stroke-linejoin="round"/>
</svg>
