<svg width="480" height="480" viewBox="0 0 480 480" fill="none" xmlns="http://www.w3.org/2000/svg">
<path d="M219.408 166.08C190.032 176.035 182.928 126.576 129.014 131.866C84.5855 136.176 42.7679 200.765 52.3679 252.48C63.8879 314.563 116.294 355.402 152.208 355.747C192.528 356.15 215.117 334.627 252.691 321.533C296.208 306.346 363.369 315.907 399.245 284.957C433.805 255.149 438.816 179.04 419.28 137.904C399.888 97.0656 351.888 57.3888 308.371 77.3472C260.678 99.2352 262.291 151.488 219.408 166.08Z" fill="#FF0000"/>
<path opacity="0.7" d="M219.408 166.08C190.032 176.035 182.928 126.576 129.014 131.866C84.5855 136.176 42.7679 200.765 52.3679 252.48C63.8879 314.563 116.294 355.402 152.208 355.747C192.528 356.15 215.117 334.627 252.691 321.533C296.208 306.346 363.369 315.907 399.245 284.957C433.805 255.149 438.816 179.04 419.28 137.904C399.888 97.0656 351.888 57.3888 308.371 77.3472C260.678 99.2352 262.291 151.488 219.408 166.08Z" fill="white"/>
<path d="M41.4912 374.784H438.509" stroke="#263238" stroke-linecap="round" stroke-linejoin="round"/>
<path d="M243.11 407.568C318.764 407.568 380.093 403.592 380.093 398.688C380.093 393.784 318.764 389.808 243.11 389.808C167.457 389.808 106.128 393.784 106.128 398.688C106.128 403.592 167.457 407.568 243.11 407.568Z" fill="#FF0000"/>
<path d="M61.2285 212.966C61.2285 212.966 76.1949 230.496 79.9869 271.133C83.7789 311.77 88.1565 341.405 88.1565 341.405" stroke="#263238" stroke-width="2" stroke-linecap="round" stroke-linejoin="round"/>
<path d="M37.5359 180.893C36.974 180.824 36.4067 180.969 35.9475 181.3C35.4883 181.631 35.171 182.123 35.0591 182.678C32.8415 193.958 23.2511 248.198 45.7343 241.046C64.3871 235.114 63.1679 221.462 61.3151 214.867C61.2288 214.559 61.2309 214.234 61.3214 213.927C61.4119 213.621 61.5869 213.346 61.8265 213.134C62.0661 212.923 62.3605 212.783 62.6759 212.731C62.9913 212.68 63.3149 212.718 63.6095 212.842C70.8863 215.846 86.7167 220.579 88.4639 205.718C90.4799 188.602 47.5487 182.16 37.5359 180.893Z" fill="#FF0000" stroke="#263238" stroke-linecap="round" stroke-linejoin="round"/>
<path d="M45.7344 190.762C50.2223 195.874 54.1368 201.463 57.408 207.427" stroke="#263238" stroke-linecap="round" stroke-linejoin="round"/>
<path d="M38.8989 184.07C40.2842 185.191 41.6018 186.393 42.8445 187.67" stroke="#263238" stroke-linecap="round" stroke-linejoin="round"/>
<path d="M55.6797 211.2C55.6797 211.2 49.4109 204.614 34.0317 207.456" stroke="#263238" stroke-linecap="round" stroke-linejoin="round"/>
<path d="M62.5439 188.918C64.2767 194.966 64.2767 201.379 62.5439 207.427" stroke="#263238" stroke-linecap="round" stroke-linejoin="round"/>
<path d="M36.7009 224.218C35.7127 225.075 34.8239 226.041 34.0513 227.098" stroke="#263238" stroke-linecap="round" stroke-linejoin="round"/>
<path d="M57.4079 216.835C57.4079 216.835 47.0399 217.363 39.3599 222.24" stroke="#263238" stroke-linecap="round" stroke-linejoin="round"/>
<path d="M65.9614 211.2C65.9614 211.2 77.635 207.744 80.4862 198.202" stroke="#263238" stroke-linecap="round" stroke-linejoin="round"/>
<path d="M103.325 271.814C103.325 271.814 94.7711 281.837 92.6015 305.078C90.4319 328.32 87.9263 345.274 87.9263 345.274" stroke="#263238" stroke-width="2" stroke-linecap="round" stroke-linejoin="round"/>
<path d="M116.073 254.496C116.396 254.456 116.722 254.539 116.986 254.73C117.25 254.921 117.431 255.204 117.494 255.523C118.761 261.965 124.214 292.963 111.389 288.902C100.723 285.504 101.424 277.699 102.48 273.926C102.536 273.749 102.539 273.56 102.489 273.381C102.44 273.202 102.339 273.041 102.2 272.918C102.061 272.795 101.889 272.715 101.705 272.688C101.521 272.661 101.334 272.687 101.165 272.765C97.0078 274.493 87.9551 277.19 86.9567 268.694C85.8047 258.902 110.4 255.226 116.073 254.496Z" fill="#FF0000" stroke="#263238" stroke-linecap="round" stroke-linejoin="round"/>
<path d="M111.36 260.16C108.781 263.084 106.527 266.281 104.64 269.693" stroke="#263238" stroke-linecap="round" stroke-linejoin="round"/>
<path d="M115.306 256.32C114.508 256.96 113.752 257.65 113.04 258.384" stroke="#263238" stroke-linecap="round" stroke-linejoin="round"/>
<path d="M105.687 271.814C105.687 271.814 109.277 268.042 118.071 269.674" stroke="#263238" stroke-linecap="round" stroke-linejoin="round"/>
<path d="M101.76 259.085C100.773 262.536 100.773 266.194 101.76 269.645" stroke="#263238" stroke-linecap="round" stroke-linejoin="round"/>
<path d="M116.554 279.274C117.12 279.761 117.629 280.312 118.071 280.915" stroke="#263238" stroke-linecap="round" stroke-linejoin="round"/>
<path d="M104.707 275.05C104.707 275.05 110.621 275.357 115.027 278.141" stroke="#263238" stroke-linecap="round" stroke-linejoin="round"/>
<path d="M99.8401 271.814C99.8401 271.814 93.1201 269.837 91.5361 264.374" stroke="#263238" stroke-linecap="round" stroke-linejoin="round"/>
<path d="M62.9565 262.474C62.9565 262.474 76.7613 278.65 80.2365 316.157C81.3789 328.022 82.5597 338.88 83.6061 348.154" stroke="#263238" stroke-width="2" stroke-linecap="round" stroke-linejoin="round"/>
<path d="M36.7201 250.666C36.3036 250.809 35.9565 251.104 35.7482 251.492C35.54 251.88 35.4859 252.332 35.5969 252.758C37.8913 261.398 49.6993 302.458 62.9281 289.814C73.9201 279.312 68.4097 270.211 64.8481 266.246C64.6836 266.062 64.5742 265.835 64.5327 265.592C64.4912 265.348 64.5191 265.098 64.6133 264.869C64.7075 264.641 64.8641 264.443 65.0652 264.3C65.2664 264.156 65.5039 264.072 65.7505 264.058C71.8465 263.674 84.4993 261.571 80.6593 250.618C76.2529 237.994 44.1601 248.141 36.7201 250.666Z" fill="#FF0000" stroke="#263238" stroke-linecap="round" stroke-linejoin="round"/>
<path opacity="0.2" d="M36.7201 250.666C36.3036 250.809 35.9565 251.104 35.7482 251.492C35.54 251.88 35.4859 252.332 35.5969 252.758C37.8913 261.398 49.6993 302.458 62.9281 289.814C73.9201 279.312 68.4097 270.211 64.8481 266.246C64.6836 266.062 64.5742 265.835 64.5327 265.592C64.4912 265.348 64.5191 265.098 64.6133 264.869C64.7075 264.641 64.8641 264.443 65.0652 264.3C65.2664 264.156 65.5039 264.072 65.7505 264.058C71.8465 263.674 84.4993 261.571 80.6593 250.618C76.2529 237.994 44.1601 248.141 36.7201 250.666Z" fill="#263238"/>
<path d="M45.792 254.746C50.6667 256.793 55.3023 259.368 59.616 262.426" stroke="#263238" stroke-linecap="round" stroke-linejoin="round"/>
<path d="M38.7456 252.413C40.093 252.722 41.4202 253.113 42.72 253.584" stroke="#263238" stroke-linecap="round" stroke-linejoin="round"/>
<path d="M59.7023 265.584C59.7023 265.584 53.0879 263.126 43.3247 270.384" stroke="#263238" stroke-linecap="round" stroke-linejoin="round"/>
<path d="M56.8799 247.738C60.1508 251.362 62.3364 255.833 63.1871 260.64" stroke="#263238" stroke-linecap="round" stroke-linejoin="round"/>
<path d="M50.8799 281.165C50.4823 282.089 50.1893 283.055 50.0063 284.045" stroke="#263238" stroke-linecap="round" stroke-linejoin="round"/>
<path d="M62.8222 268.944C62.8222 268.944 55.795 272.842 52.0894 278.87" stroke="#263238" stroke-linecap="round" stroke-linejoin="round"/>
<path d="M66.8545 262.08C66.8545 262.08 73.8145 255.686 72.5473 248.064" stroke="#263238" stroke-linecap="round" stroke-linejoin="round"/>
<path d="M92.16 374.784H78.2592C75.6606 374.783 73.1607 373.788 71.2722 372.003C69.3836 370.218 68.2495 367.778 68.1024 365.184L66.6816 337.766H103.747L102.326 365.184C102.177 367.779 101.041 370.219 99.1507 372.004C97.2606 373.789 94.7597 374.783 92.16 374.784Z" fill="#999999" stroke="#263238" stroke-linecap="round" stroke-linejoin="round"/>
<path d="M295.382 333.322C295.651 330.72 302.947 261.322 303.226 258.691C303.472 256.661 304.443 254.788 305.96 253.416C307.476 252.044 309.437 251.265 311.482 251.222H419.654L410.237 340.8H302.064C301.112 340.819 300.166 340.633 299.293 340.252C298.419 339.872 297.638 339.308 297.004 338.597C296.369 337.887 295.895 337.047 295.616 336.137C295.336 335.226 295.256 334.266 295.382 333.322Z" fill="#FF0000"/>
<mask id="mask0_105_722" style="mask-type:luminance" maskUnits="userSpaceOnUse" x="295" y="251" width="125" height="90">
<path d="M295.382 333.322C295.651 330.72 302.947 261.322 303.226 258.691C303.472 256.661 304.443 254.788 305.96 253.416C307.476 252.044 309.437 251.265 311.482 251.222H419.654L410.237 340.8H302.064C301.112 340.819 300.166 340.633 299.293 340.252C298.419 339.872 297.638 339.308 297.004 338.597C296.369 337.887 295.895 337.047 295.616 336.137C295.336 335.226 295.256 334.266 295.382 333.322Z" fill="white"/>
</mask>
<g mask="url(#mask0_105_722)">
<path opacity="0.6" d="M295.382 333.322C295.651 330.72 302.947 261.322 303.226 258.691C303.472 256.661 304.443 254.788 305.96 253.416C307.476 252.044 309.437 251.265 311.482 251.222H419.654L410.237 340.8H302.064C301.112 340.819 300.166 340.633 299.293 340.252C298.419 339.872 297.638 339.308 297.004 338.597C296.369 337.887 295.895 337.047 295.616 336.137C295.336 335.226 295.256 334.266 295.382 333.322Z" fill="white"/>
</g>
<path d="M295.382 333.322C295.651 330.72 302.947 261.322 303.226 258.691C303.472 256.661 304.443 254.788 305.96 253.416C307.476 252.044 309.437 251.265 311.482 251.222H419.654L410.237 340.8H302.064C301.112 340.819 300.166 340.633 299.293 340.252C298.419 339.872 297.638 339.308 297.004 338.597C296.369 337.887 295.895 337.047 295.616 336.137C295.336 335.226 295.256 334.266 295.382 333.322Z" stroke="#263238" stroke-linecap="round" stroke-linejoin="round"/>
<path d="M410.227 269.76C410.88 263.558 411.331 259.296 411.398 258.682C411.645 256.651 412.616 254.778 414.132 253.407C415.649 252.035 417.61 251.256 419.654 251.213C420.609 251.188 421.558 251.37 422.435 251.748C423.312 252.125 424.098 252.688 424.736 253.398C425.375 254.108 425.852 254.948 426.135 255.86C426.418 256.772 426.499 257.735 426.374 258.682C426.038 261.898 418.867 330.096 418.531 333.312C418.284 335.343 417.314 337.217 415.798 338.591C414.281 339.964 412.32 340.745 410.275 340.79C409.32 340.814 408.371 340.63 407.494 340.252C406.616 339.874 405.831 339.31 405.193 338.599C404.554 337.888 404.077 337.048 403.794 336.135C403.512 335.222 403.43 334.259 403.555 333.312C403.747 331.517 407.27 297.984 409.536 276.461" fill="#FF0000"/>
<mask id="mask1_105_722" style="mask-type:luminance" maskUnits="userSpaceOnUse" x="403" y="251" width="24" height="90">
<path d="M410.227 269.76C410.88 263.558 411.331 259.296 411.398 258.682C411.645 256.651 412.616 254.778 414.132 253.407C415.649 252.035 417.61 251.256 419.654 251.213C420.609 251.188 421.558 251.37 422.435 251.748C423.312 252.125 424.098 252.688 424.736 253.398C425.375 254.108 425.852 254.948 426.135 255.86C426.418 256.772 426.499 257.735 426.374 258.682C426.038 261.898 418.867 330.096 418.531 333.312C418.284 335.343 417.314 337.217 415.798 338.591C414.281 339.964 412.32 340.745 410.275 340.79C409.32 340.814 408.371 340.63 407.494 340.252C406.616 339.874 405.831 339.31 405.193 338.599C404.554 337.888 404.077 337.048 403.794 336.135C403.512 335.222 403.43 334.259 403.555 333.312C403.747 331.517 407.27 297.984 409.536 276.461" fill="white"/>
</mask>
<g mask="url(#mask1_105_722)">
<path opacity="0.3" d="M411.398 258.691C411.645 256.661 412.616 254.788 414.132 253.416C415.649 252.044 417.61 251.265 419.654 251.222C420.609 251.197 421.558 251.38 422.435 251.757C423.312 252.134 424.098 252.697 424.736 253.407C425.375 254.117 425.852 254.957 426.135 255.87C426.418 256.782 426.499 257.744 426.374 258.691C426.038 261.907 418.867 330.106 418.531 333.322C418.284 335.353 417.314 337.227 415.798 338.6C414.281 339.974 412.32 340.755 410.275 340.8C409.32 340.823 408.371 340.64 407.494 340.261C406.616 339.883 405.831 339.319 405.193 338.609C404.554 337.898 404.077 337.057 403.794 336.145C403.512 335.232 403.43 334.269 403.555 333.322C403.824 330.72 411.12 261.302 411.398 258.691Z" fill="white"/>
</g>
<path d="M410.227 269.76C410.88 263.558 411.331 259.296 411.398 258.682C411.645 256.651 412.616 254.778 414.132 253.407C415.649 252.035 417.61 251.256 419.654 251.213C420.609 251.188 421.558 251.37 422.435 251.748C423.312 252.125 424.098 252.688 424.736 253.398C425.375 254.108 425.852 254.948 426.135 255.86C426.418 256.772 426.499 257.735 426.374 258.682C426.038 261.898 418.867 330.096 418.531 333.312C418.284 335.343 417.314 337.217 415.798 338.591C414.281 339.964 412.32 340.745 410.275 340.79C409.32 340.814 408.371 340.63 407.494 340.252C406.616 339.874 405.831 339.31 405.193 338.599C404.554 337.888 404.077 337.048 403.794 336.135C403.512 335.222 403.43 334.259 403.555 333.312C403.747 331.517 407.27 297.984 409.536 276.461" stroke="#263238" stroke-linecap="round" stroke-linejoin="round"/>
<path d="M380.083 285.226H429.888C433.785 285.324 437.49 286.942 440.211 289.733C442.933 292.525 444.456 296.269 444.456 300.168C444.456 304.067 442.933 307.811 440.211 310.602C437.49 313.394 433.785 315.012 429.888 315.11V370.56C429.888 371.675 429.445 372.745 428.656 373.533C427.868 374.322 426.798 374.765 425.683 374.765H369.341C368.227 374.762 367.16 374.318 366.374 373.53C365.587 372.742 365.146 371.674 365.146 370.56V300.163C365.146 296.202 366.719 292.402 369.521 289.601C372.322 286.799 376.121 285.226 380.083 285.226Z" fill="#FF0000"/>
<mask id="mask2_105_722" style="mask-type:luminance" maskUnits="userSpaceOnUse" x="365" y="285" width="80" height="90">
<path d="M380.083 285.226H429.888C433.785 285.324 437.49 286.942 440.211 289.733C442.933 292.525 444.456 296.269 444.456 300.168C444.456 304.067 442.933 307.811 440.211 310.602C437.49 313.394 433.785 315.012 429.888 315.11V370.56C429.888 371.675 429.445 372.745 428.656 373.533C427.868 374.322 426.798 374.765 425.683 374.765H369.341C368.227 374.762 367.16 374.318 366.374 373.53C365.587 372.742 365.146 371.674 365.146 370.56V300.163C365.146 296.202 366.719 292.402 369.521 289.601C372.322 286.799 376.121 285.226 380.083 285.226Z" fill="white"/>
</mask>
<g mask="url(#mask2_105_722)">
<path opacity="0.6" d="M380.083 285.226H429.888C433.785 285.324 437.49 286.942 440.211 289.733C442.933 292.525 444.456 296.269 444.456 300.168C444.456 304.067 442.933 307.811 440.211 310.602C437.49 313.394 433.785 315.012 429.888 315.11V370.56C429.888 371.675 429.445 372.745 428.656 373.533C427.868 374.322 426.798 374.765 425.683 374.765H369.341C368.227 374.762 367.16 374.318 366.374 373.53C365.587 372.742 365.146 371.674 365.146 370.56V300.163C365.146 296.202 366.719 292.402 369.521 289.601C372.322 286.799 376.121 285.226 380.083 285.226Z" fill="white"/>
</g>
<path d="M380.083 285.226H429.888C433.785 285.324 437.49 286.942 440.211 289.733C442.933 292.525 444.456 296.269 444.456 300.168C444.456 304.067 442.933 307.811 440.211 310.602C437.49 313.394 433.785 315.012 429.888 315.11V370.56C429.888 371.675 429.445 372.745 428.656 373.533C427.868 374.322 426.798 374.765 425.683 374.765H369.341C368.227 374.762 367.16 374.318 366.374 373.53C365.587 372.742 365.146 371.674 365.146 370.56V300.163C365.146 296.202 366.719 292.402 369.521 289.601C372.322 286.799 376.121 285.226 380.083 285.226Z" stroke="#263238" stroke-linecap="round" stroke-linejoin="round"/>
<path d="M284.246 285.226H234.441C230.544 285.324 226.84 286.942 224.118 289.733C221.396 292.525 219.873 296.269 219.873 300.168C219.873 304.067 221.396 307.811 224.118 310.602C226.84 313.394 230.544 315.012 234.441 315.11V370.56C234.441 371.675 234.884 372.745 235.673 373.533C236.462 374.322 237.531 374.765 238.646 374.765H294.989C296.102 374.762 297.169 374.318 297.956 373.53C298.742 372.742 299.184 371.674 299.184 370.56V300.163C299.184 296.202 297.61 292.402 294.809 289.601C292.007 286.799 288.208 285.226 284.246 285.226Z" fill="#FF0000"/>
<mask id="mask3_105_722" style="mask-type:luminance" maskUnits="userSpaceOnUse" x="219" y="285" width="81" height="90">
<path d="M284.246 285.226H234.441C230.544 285.324 226.84 286.942 224.118 289.733C221.396 292.525 219.873 296.269 219.873 300.168C219.873 304.067 221.396 307.811 224.118 310.602C226.84 313.394 230.544 315.012 234.441 315.11V370.56C234.441 371.675 234.884 372.745 235.673 373.533C236.462 374.322 237.531 374.765 238.646 374.765H294.989C296.102 374.762 297.169 374.318 297.956 373.53C298.742 372.742 299.184 371.674 299.184 370.56V300.163C299.184 296.202 297.61 292.402 294.809 289.601C292.007 286.799 288.208 285.226 284.246 285.226Z" fill="white"/>
</mask>
<g mask="url(#mask3_105_722)">
<path opacity="0.3" d="M284.246 285.226H234.441C230.544 285.324 226.84 286.942 224.118 289.733C221.396 292.525 219.873 296.269 219.873 300.168C219.873 304.067 221.396 307.811 224.118 310.602C226.84 313.394 230.544 315.012 234.441 315.11V370.56C234.441 371.675 234.884 372.745 235.673 373.533C236.462 374.322 237.531 374.765 238.646 374.765H294.989C296.102 374.762 297.169 374.318 297.956 373.53C298.742 372.742 299.184 371.674 299.184 370.56V300.163C299.184 296.202 297.61 292.402 294.809 289.601C292.007 286.799 288.208 285.226 284.246 285.226Z" fill="white"/>
</g>
<path d="M284.246 285.226H234.441C230.544 285.324 226.84 286.942 224.118 289.733C221.396 292.525 219.873 296.269 219.873 300.168C219.873 304.067 221.396 307.811 224.118 310.602C226.84 313.394 230.544 315.012 234.441 315.11V370.56C234.441 371.675 234.884 372.745 235.673 373.533C236.462 374.322 237.531 374.765 238.646 374.765H294.989C296.102 374.762 297.169 374.318 297.956 373.53C298.742 372.742 299.184 371.674 299.184 370.56V300.163C299.184 296.202 297.61 292.402 294.809 289.601C292.007 286.799 288.208 285.226 284.246 285.226Z" stroke="#263238" stroke-linecap="round" stroke-linejoin="round"/>
<path d="M234.441 285.226C230.544 285.324 226.84 286.942 224.118 289.733C221.396 292.525 219.873 296.269 219.873 300.168C219.873 304.067 221.396 307.811 224.118 310.602C226.84 313.394 230.544 315.012 234.441 315.11V370.56C234.441 371.675 234.884 372.745 235.673 373.533C236.462 374.322 237.531 374.765 238.646 374.765H245.184C246.299 374.765 247.369 374.322 248.157 373.533C248.946 372.745 249.389 371.675 249.389 370.56V300.163C249.386 296.201 247.81 292.401 245.007 289.6C242.204 286.799 238.404 285.226 234.441 285.226Z" fill="#FF0000" stroke="#263238" stroke-linecap="round" stroke-linejoin="round"/>
<path d="M234.441 285.226C230.544 285.324 226.84 286.942 224.118 289.733C221.396 292.525 219.873 296.269 219.873 300.168C219.873 304.067 221.396 307.811 224.118 310.602C226.84 313.394 230.544 315.012 234.441 315.11V370.56C234.441 371.675 234.884 372.745 235.673 373.533C236.462 374.322 237.531 374.765 238.646 374.765H245.184C246.299 374.765 247.369 374.322 248.157 373.533C248.946 372.745 249.389 371.675 249.389 370.56V300.163C249.386 296.201 247.81 292.401 245.007 289.6C242.204 286.799 238.404 285.226 234.441 285.226Z" fill="#FF0000"/>
<mask id="mask4_105_722" style="mask-type:luminance" maskUnits="userSpaceOnUse" x="219" y="285" width="31" height="90">
<path d="M234.441 285.226C230.544 285.324 226.84 286.942 224.118 289.733C221.396 292.525 219.873 296.269 219.873 300.168C219.873 304.067 221.396 307.811 224.118 310.602C226.84 313.394 230.544 315.012 234.441 315.11V370.56C234.441 371.675 234.884 372.745 235.673 373.533C236.462 374.322 237.531 374.765 238.646 374.765H245.184C246.299 374.765 247.369 374.322 248.157 373.533C248.946 372.745 249.389 371.675 249.389 370.56V300.163C249.386 296.201 247.81 292.401 245.007 289.6C242.204 286.799 238.404 285.226 234.441 285.226Z" fill="white"/>
</mask>
<g mask="url(#mask4_105_722)">
<path opacity="0.6" d="M234.441 285.226C230.544 285.324 226.84 286.942 224.118 289.733C221.396 292.525 219.873 296.269 219.873 300.168C219.873 304.067 221.396 307.811 224.118 310.602C226.84 313.394 230.544 315.012 234.441 315.11V370.56C234.441 371.675 234.884 372.745 235.673 373.533C236.462 374.322 237.531 374.765 238.646 374.765H245.184C246.299 374.765 247.369 374.322 248.157 373.533C248.946 372.745 249.389 371.675 249.389 370.56V300.163C249.386 296.201 247.81 292.401 245.007 289.6C242.204 286.799 238.404 285.226 234.441 285.226Z" fill="white"/>
</g>
<path d="M234.441 285.226C230.544 285.324 226.84 286.942 224.118 289.733C221.396 292.525 219.873 296.269 219.873 300.168C219.873 304.067 221.396 307.811 224.118 310.602C226.84 313.394 230.544 315.012 234.441 315.11V370.56C234.441 371.675 234.884 372.745 235.673 373.533C236.462 374.322 237.531 374.765 238.646 374.765H245.184C246.299 374.765 247.369 374.322 248.157 373.533C248.946 372.745 249.389 371.675 249.389 370.56V300.163C249.386 296.201 247.81 292.401 245.007 289.6C242.204 286.799 238.404 285.226 234.441 285.226Z" stroke="#263238" stroke-linecap="round" stroke-linejoin="round"/>
<path d="M258.662 351.59V368.093C258.662 369.875 259.37 371.584 260.631 372.845C261.891 374.105 263.6 374.813 265.382 374.813H358.502C360.285 374.813 361.994 374.105 363.254 372.845C364.514 371.584 365.222 369.875 365.222 368.093V339.293C365.224 338.612 365.12 337.935 364.915 337.286C365.116 336.716 365.219 336.115 365.222 335.51V329.75C365.222 329.052 365.085 328.36 364.817 327.715C364.55 327.07 364.158 326.484 363.665 325.99C363.171 325.496 362.584 325.104 361.939 324.837C361.294 324.57 360.602 324.432 359.904 324.432H254.697C253.289 324.435 251.938 324.996 250.943 325.993C249.948 326.99 249.389 328.342 249.389 329.75V335.51C249.389 336.919 249.948 338.271 250.943 339.268C251.938 340.265 253.289 340.826 254.697 340.829H258.662V346.339" fill="#FF0000"/>
<mask id="mask5_105_722" style="mask-type:luminance" maskUnits="userSpaceOnUse" x="249" y="324" width="117" height="51">
<path d="M258.662 351.59V368.093C258.662 369.875 259.37 371.584 260.631 372.845C261.891 374.105 263.6 374.813 265.382 374.813H358.502C360.285 374.813 361.994 374.105 363.254 372.845C364.514 371.584 365.222 369.875 365.222 368.093V339.293C365.224 338.612 365.12 337.935 364.915 337.286C365.116 336.716 365.219 336.115 365.222 335.51V329.75C365.222 329.052 365.085 328.36 364.817 327.715C364.55 327.07 364.158 326.484 363.665 325.99C363.171 325.496 362.584 325.104 361.939 324.837C361.294 324.57 360.602 324.432 359.904 324.432H254.697C253.289 324.435 251.938 324.996 250.943 325.993C249.948 326.99 249.389 328.342 249.389 329.75V335.51C249.389 336.919 249.948 338.271 250.943 339.268C251.938 340.265 253.289 340.826 254.697 340.829H258.662V346.339" fill="white"/>
</mask>
<g mask="url(#mask5_105_722)">
<path opacity="0.3" d="M365.145 329.674C365.145 328.263 364.585 326.91 363.588 325.913C362.59 324.916 361.238 324.355 359.827 324.355H254.697C253.289 324.358 251.938 324.919 250.943 325.916C249.948 326.913 249.389 328.265 249.389 329.674V335.434C249.389 336.842 249.948 338.194 250.943 339.191C251.938 340.188 253.289 340.749 254.697 340.752H258.662V368.045C258.662 369.827 259.37 371.536 260.631 372.797C261.891 374.057 263.6 374.765 265.382 374.765H358.502C360.285 374.765 361.994 374.057 363.254 372.797C364.514 371.536 365.222 369.827 365.222 368.045V339.245C365.224 338.564 365.12 337.887 364.915 337.238C365.116 336.668 365.219 336.067 365.222 335.462L365.145 329.674Z" fill="white"/>
</g>
<path d="M258.662 351.59V368.093C258.662 369.875 259.37 371.584 260.631 372.845C261.891 374.105 263.6 374.813 265.382 374.813H358.502C360.285 374.813 361.994 374.105 363.254 372.845C364.514 371.584 365.222 369.875 365.222 368.093V339.293C365.224 338.612 365.12 337.935 364.915 337.286C365.116 336.716 365.219 336.115 365.222 335.51V329.75C365.222 329.052 365.085 328.36 364.817 327.715C364.55 327.07 364.158 326.484 363.665 325.99C363.171 325.496 362.584 325.104 361.939 324.837C361.294 324.57 360.602 324.432 359.904 324.432H254.697C253.289 324.435 251.938 324.996 250.943 325.993C249.948 326.99 249.389 328.342 249.389 329.75V335.51C249.389 336.919 249.948 338.271 250.943 339.268C251.938 340.265 253.289 340.826 254.697 340.829H258.662V346.339" stroke="#263238" stroke-linecap="round" stroke-linejoin="round"/>
<path d="M432.134 300.163H444.825C444.825 304.126 443.252 307.926 440.451 310.729C437.65 313.532 433.85 315.108 429.888 315.11H380.083C384.047 315.11 387.849 313.536 390.652 310.732C393.455 307.929 395.03 304.127 395.03 300.163H426.374" fill="#FF0000"/>
<mask id="mask6_105_722" style="mask-type:luminance" maskUnits="userSpaceOnUse" x="380" y="300" width="65" height="16">
<path d="M432.134 300.163H444.825C444.825 304.126 443.252 307.926 440.451 310.729C437.65 313.532 433.85 315.108 429.888 315.11H380.083C384.047 315.11 387.849 313.536 390.652 310.732C393.455 307.929 395.03 304.127 395.03 300.163H426.374" fill="white"/>
</mask>
<g mask="url(#mask6_105_722)">
<g opacity="0.3">
<path d="M395.03 300.163H444.825C444.825 304.126 443.252 307.926 440.451 310.729C437.65 313.532 433.85 315.108 429.888 315.11H380.083C384.047 315.11 387.849 313.536 390.652 310.732C393.455 307.929 395.03 304.127 395.03 300.163Z" fill="white"/>
</g>
</g>
<path d="M432.134 300.163H444.825C444.825 304.126 443.252 307.926 440.451 310.729C437.65 313.532 433.85 315.108 429.888 315.11H380.083C384.047 315.11 387.849 313.536 390.652 310.732C393.455 307.929 395.03 304.127 395.03 300.163H426.374" stroke="#263238" stroke-linecap="round" stroke-linejoin="round"/>
<path d="M143.04 92.16H122.141C118.294 92.16 114.604 93.6883 111.884 96.4086C109.164 99.1289 107.635 102.818 107.635 106.666V337.814C107.635 341.662 109.164 345.351 111.884 348.071C114.604 350.792 118.294 352.32 122.141 352.32H143.04V92.16Z" fill="#999999" stroke="#263238" stroke-linecap="round" stroke-linejoin="round"/>
<path d="M111.504 131.299H108.816C107.331 131.299 106.128 132.503 106.128 133.987V151.008C106.128 152.493 107.331 153.696 108.816 153.696H111.504C112.988 153.696 114.192 152.493 114.192 151.008V133.987C114.192 132.503 112.988 131.299 111.504 131.299Z" fill="#263238" stroke="#263238" stroke-linecap="round" stroke-linejoin="round"/>
<path d="M111.504 133.987C111.504 133.274 111.221 132.591 110.717 132.087C110.213 131.582 109.529 131.299 108.816 131.299C108.103 131.299 107.419 131.582 106.915 132.087C106.411 132.591 106.128 133.274 106.128 133.987V151.008C106.128 151.721 106.411 152.405 106.915 152.909C107.419 153.413 108.103 153.696 108.816 153.696C109.529 153.696 110.213 153.413 110.717 152.909C111.221 152.405 111.504 151.721 111.504 151.008V133.987Z" fill="#FF0000" stroke="#263238" stroke-linecap="round" stroke-linejoin="round"/>
<path d="M111.504 159.072H108.816C107.331 159.072 106.128 160.275 106.128 161.76V166.493C106.128 167.977 107.331 169.181 108.816 169.181H111.504C112.988 169.181 114.192 167.977 114.192 166.493V161.76C114.192 160.275 112.988 159.072 111.504 159.072Z" fill="#263238" stroke="#263238" stroke-linecap="round" stroke-linejoin="round"/>
<path d="M111.504 161.76C111.504 161.047 111.221 160.363 110.717 159.859C110.213 159.355 109.529 159.072 108.816 159.072C108.103 159.072 107.419 159.355 106.915 159.859C106.411 160.363 106.128 161.047 106.128 161.76V166.493C106.128 167.206 106.411 167.889 106.915 168.394C107.419 168.898 108.103 169.181 108.816 169.181C109.529 169.181 110.213 168.898 110.717 168.394C111.221 167.889 111.504 167.206 111.504 166.493V161.76Z" fill="#FF0000" stroke="#263238" stroke-linecap="round" stroke-linejoin="round"/>
<path d="M228.49 92.16H131.741C123.73 92.16 117.235 98.6544 117.235 106.666V337.814C117.235 345.826 123.73 352.32 131.741 352.32H228.49C236.501 352.32 242.995 345.826 242.995 337.814V106.666C242.995 98.6544 236.501 92.16 228.49 92.16Z" fill="#FF0000"/>
<mask id="mask7_105_722" style="mask-type:luminance" maskUnits="userSpaceOnUse" x="117" y="92" width="126" height="261">
<path d="M228.49 92.16H131.741C123.73 92.16 117.235 98.6544 117.235 106.666V337.814C117.235 345.826 123.73 352.32 131.741 352.32H228.49C236.501 352.32 242.995 345.826 242.995 337.814V106.666C242.995 98.6544 236.501 92.16 228.49 92.16Z" fill="white"/>
</mask>
<g mask="url(#mask7_105_722)">
<path opacity="0.5" d="M228.49 92.16H131.741C123.73 92.16 117.235 98.6544 117.235 106.666V337.814C117.235 345.826 123.73 352.32 131.741 352.32H228.49C236.501 352.32 242.995 345.826 242.995 337.814V106.666C242.995 98.6544 236.501 92.16 228.49 92.16Z" fill="white"/>
<path opacity="0.3" d="M99.3889 338.88H48.4033L221.309 100.8H272.295L99.3889 338.88Z" fill="white"/>
<path opacity="0.3" d="M120.662 338.88H109.392L282.307 100.8H293.578L120.662 338.88Z" fill="white"/>
</g>
<path d="M228.49 92.16H131.741C123.73 92.16 117.235 98.6544 117.235 106.666V337.814C117.235 345.826 123.73 352.32 131.741 352.32H228.49C236.501 352.32 242.995 345.826 242.995 337.814V106.666C242.995 98.6544 236.501 92.16 228.49 92.16Z" stroke="#263238" stroke-linecap="round" stroke-linejoin="round"/>
<path d="M228.48 92.16H131.741C127.894 92.16 124.204 93.6883 121.484 96.4086C118.764 99.1289 117.235 102.818 117.235 106.666V109.44H242.995V106.666C242.993 102.818 241.462 99.1281 238.741 96.408C236.019 93.688 232.328 92.16 228.48 92.16Z" fill="#263238" stroke="#263238" stroke-linecap="round" stroke-linejoin="round"/>
<path d="M183.629 103.219C183.969 103.262 184.315 103.233 184.644 103.132C184.972 103.031 185.275 102.861 185.532 102.634C185.79 102.407 185.996 102.128 186.138 101.815C186.279 101.502 186.352 101.163 186.352 100.819C186.352 100.476 186.279 100.136 186.138 99.8234C185.996 99.5105 185.79 99.2312 185.532 99.0042C185.275 98.7772 184.972 98.6076 184.644 98.5067C184.315 98.4059 183.969 98.376 183.629 98.4192H168.269C167.928 98.376 167.582 98.4059 167.254 98.5067C166.926 98.6076 166.623 98.7772 166.365 99.0042C166.108 99.2312 165.901 99.5105 165.76 99.8234C165.618 100.136 165.545 100.476 165.545 100.819C165.545 101.163 165.618 101.502 165.76 101.815C165.901 102.128 166.108 102.407 166.365 102.634C166.623 102.861 166.926 103.031 167.254 103.132C167.582 103.233 167.928 103.262 168.269 103.219H183.629Z" fill="#999999" stroke="#263238" stroke-linecap="round" stroke-linejoin="round"/>
<path d="M191.923 103.219C193.259 103.219 194.342 102.136 194.342 100.8C194.342 99.4639 193.259 98.3808 191.923 98.3808C190.587 98.3808 189.504 99.4639 189.504 100.8C189.504 102.136 190.587 103.219 191.923 103.219Z" fill="#999999" stroke="#263238" stroke-linecap="round" stroke-linejoin="round"/>
<path d="M117.235 328.32V337.814C117.235 341.662 118.764 345.351 121.484 348.071C124.204 350.792 127.894 352.32 131.741 352.32H228.48C232.328 352.32 236.019 350.792 238.741 348.072C241.462 345.352 242.993 341.662 242.995 337.814V328.32H117.235Z" fill="#263238" stroke="#263238" stroke-linecap="round" stroke-linejoin="round"/>
<path d="M180.115 347.568C184.118 347.568 187.363 344.323 187.363 340.32C187.363 336.317 184.118 333.072 180.115 333.072C176.112 333.072 172.867 336.317 172.867 340.32C172.867 344.323 176.112 347.568 180.115 347.568Z" fill="#999999" stroke="#263238" stroke-linecap="round" stroke-linejoin="round"/>
<path d="M178.195 189.562C196.943 189.562 212.141 174.364 212.141 155.616C212.141 136.868 196.943 121.67 178.195 121.67C159.447 121.67 144.25 136.868 144.25 155.616C144.25 174.364 159.447 189.562 178.195 189.562Z" fill="#999999"/>
<path d="M180.115 187.642C198.863 187.642 214.061 172.444 214.061 153.696C214.061 134.948 198.863 119.75 180.115 119.75C161.367 119.75 146.169 134.948 146.169 153.696C146.169 172.444 161.367 187.642 180.115 187.642Z" fill="white"/>
<mask id="mask8_105_722" style="mask-type:luminance" maskUnits="userSpaceOnUse" x="146" y="119" width="69" height="69">
<path d="M180.115 187.642C198.863 187.642 214.061 172.444 214.061 153.696C214.061 134.948 198.863 119.75 180.115 119.75C161.367 119.75 146.169 134.948 146.169 153.696C146.169 172.444 161.367 187.642 180.115 187.642Z" fill="white"/>
</mask>
<g mask="url(#mask8_105_722)">
<path d="M158.16 192.202L157.593 187.728C156.902 182.304 169.929 175.507 169.929 175.507L182.861 177.475L189.773 172.618C203.577 175.498 201.59 178.262 201.917 182.102C202.099 184.214 202.483 186.576 202.483 186.576L158.16 192.202Z" fill="#FF0000" stroke="#263238" stroke-linecap="round" stroke-linejoin="round"/>
<path d="M173.558 157.056C173.558 157.056 176.438 163.546 171.984 174.134L182.841 177.197L187.229 172.195L184.646 160.618L173.558 157.056Z" fill="white"/>
<mask id="mask9_105_722" style="mask-type:luminance" maskUnits="userSpaceOnUse" x="171" y="157" width="17" height="21">
<path d="M173.558 157.056C173.558 157.056 176.438 163.546 171.984 174.134L182.841 177.197L187.229 172.195L184.646 160.618L173.558 157.056Z" fill="white"/>
</mask>
<g mask="url(#mask9_105_722)">
<path d="M173.098 158.112C173.098 158.112 176.314 170.054 187.498 169.632C198.682 169.21 176.717 155.712 176.717 155.712L174.01 155.52L173.098 158.112Z" fill="#263238"/>
</g>
<path d="M173.558 157.056C173.558 157.056 176.438 163.546 171.984 174.134L182.841 177.197L187.229 172.195L184.646 160.618L173.558 157.056Z" stroke="#263238" stroke-linecap="round" stroke-linejoin="round"/>
<path d="M173.558 157.056C173.558 157.056 169.017 156.595 167.318 142.512C165.936 131.088 172.867 123.398 182.006 123.533C191.798 123.686 197.856 134.813 203.693 135.494C203.693 135.494 197.933 137.952 195.705 136.502C195.705 136.502 200.275 140.342 196.157 142.262C192.038 144.182 173.558 157.056 173.558 157.056Z" fill="#263238" stroke="#263238" stroke-miterlimit="10"/>
<path d="M195.84 139.402L196.973 148.339C196.973 148.339 198.893 154.406 197.222 159.062C195.552 163.718 193.661 168.97 188.141 167.818C182.621 166.666 177.955 166.512 173.606 157.056L174.797 152.822C174.797 152.822 171.648 152.89 171.12 147.283C170.592 141.677 176.045 145.133 176.045 145.133C177.533 142.477 178.301 139.479 178.272 136.435C178.195 131.443 187.334 139.373 192.73 137.942L188.669 133.603C188.669 133.603 194.611 136.397 195.84 139.402Z" fill="white" stroke="#263238" stroke-linecap="round" stroke-linejoin="round"/>
<path d="M190.838 148.56L193.593 152.352C193.692 152.483 193.757 152.636 193.785 152.797C193.813 152.959 193.802 153.125 193.753 153.281C193.704 153.437 193.619 153.58 193.505 153.697C193.39 153.814 193.249 153.903 193.094 153.955L190.349 154.915" stroke="#263238" stroke-linecap="round" stroke-linejoin="round"/>
<path d="M183.034 157.901C183.034 157.901 185.549 160.176 190.378 158.861" stroke="#263238" stroke-linecap="round" stroke-linejoin="round"/>
<path d="M184.483 148.147C184.483 149.107 184.195 149.904 183.773 149.914C183.35 149.923 182.995 149.155 182.966 148.195C182.937 147.235 183.254 146.438 183.667 146.419C184.08 146.4 184.454 147.178 184.483 148.147Z" fill="#263238"/>
<path d="M193.747 147.84C193.747 148.8 193.459 149.597 193.037 149.606C192.614 149.616 192.259 148.848 192.23 147.888C192.202 146.928 192.509 146.131 192.931 146.122C193.354 146.112 193.718 146.88 193.747 147.84Z" fill="#263238"/>
<path d="M181.296 145.92C181.296 145.92 183.12 142.771 187.161 144.298" stroke="#263238" stroke-linecap="round" stroke-linejoin="round"/>
<path d="M192 144.144C192 144.144 194.083 142.301 195.926 145.171" stroke="#263238" stroke-linecap="round" stroke-linejoin="round"/>
<path d="M193.238 132.317C193.889 132.857 194.597 133.324 195.35 133.709" stroke="#7F7F7F" stroke-linecap="round" stroke-linejoin="round"/>
<path d="M172.492 140.89C172.492 140.89 171.456 130.704 178.31 127.344C183.379 124.858 188.784 128.899 192.345 131.635" stroke="#7F7F7F" stroke-linecap="round" stroke-linejoin="round"/>
<path d="M180.893 131.107C182.563 131.107 184.857 132.163 187.91 135.763" stroke="#7F7F7F" stroke-linecap="round" stroke-linejoin="round"/>
<path d="M177.321 133.67C177.625 133.001 178.078 132.409 178.646 131.942" stroke="#7F7F7F" stroke-linecap="round" stroke-linejoin="round"/>
<path d="M167.885 176.227L171.197 173.117L182.458 176.323L187.642 171.034L191.261 172.33L187.814 179.818L182.861 178.032L179.28 182.006L167.885 176.227Z" fill="#FF0000"/>
<mask id="mask10_105_722" style="mask-type:luminance" maskUnits="userSpaceOnUse" x="167" y="171" width="25" height="12">
<path d="M167.885 176.227L171.197 173.117L182.458 176.323L187.642 171.034L191.261 172.33L187.814 179.818L182.861 178.032L179.28 182.006L167.885 176.227Z" fill="white"/>
</mask>
<g mask="url(#mask10_105_722)">
<path opacity="0.5" d="M167.885 176.227L171.197 173.117L182.458 176.323L187.642 171.034L191.261 172.33L187.814 179.818L182.861 178.032L179.28 182.006L167.885 176.227Z" fill="white"/>
</g>
<path d="M167.885 176.227L171.197 173.117L182.458 176.323L187.642 171.034L191.261 172.33L187.814 179.818L182.861 178.032L179.28 182.006L167.885 176.227Z" stroke="#263238" stroke-linecap="round" stroke-linejoin="round"/>
</g>
<path d="M180.115 187.642C198.863 187.642 214.061 172.444 214.061 153.696C214.061 134.948 198.863 119.75 180.115 119.75C161.367 119.75 146.169 134.948 146.169 153.696C146.169 172.444 161.367 187.642 180.115 187.642Z" stroke="#263238" stroke-linecap="round" stroke-linejoin="round"/>
<path d="M204.442 169.181H193.517C190.558 169.181 188.16 171.579 188.16 174.538V185.462C188.16 188.421 190.558 190.819 193.517 190.819H204.442C207.4 190.819 209.799 188.421 209.799 185.462V174.538C209.799 171.579 207.4 169.181 204.442 169.181Z" fill="#FF0000" stroke="#263238" stroke-linecap="round" stroke-linejoin="round"/>
<path d="M201.878 175.421C201.726 175.13 201.497 174.886 201.216 174.717C200.935 174.548 200.613 174.459 200.285 174.461H197.683C197.355 174.459 197.032 174.548 196.751 174.717C196.47 174.886 196.241 175.13 196.089 175.421" stroke="#263238" stroke-linecap="round" stroke-linejoin="round"/>
<path d="M194.371 175.958C193.9 175.958 193.448 176.146 193.115 176.479C192.782 176.812 192.595 177.263 192.595 177.734V183.792C192.595 184.263 192.782 184.715 193.115 185.048C193.448 185.381 193.9 185.568 194.371 185.568H203.587C203.821 185.569 204.053 185.524 204.27 185.436C204.486 185.347 204.683 185.216 204.849 185.051C205.015 184.886 205.147 184.69 205.237 184.474C205.327 184.258 205.373 184.026 205.373 183.792V177.734C205.373 177.5 205.327 177.269 205.237 177.053C205.147 176.836 205.015 176.64 204.849 176.475C204.683 176.31 204.486 176.18 204.27 176.091C204.053 176.002 203.821 175.957 203.587 175.958" stroke="#263238" stroke-linecap="round" stroke-linejoin="round"/>
<path d="M198.979 178.262C198.483 178.262 197.998 178.41 197.586 178.685C197.174 178.961 196.853 179.353 196.663 179.811C196.474 180.27 196.425 180.774 196.522 181.26C196.62 181.747 196.86 182.193 197.211 182.543C197.562 182.893 198.01 183.131 198.496 183.227C198.983 183.322 199.487 183.271 199.945 183.08C200.402 182.889 200.793 182.566 201.067 182.153C201.341 181.74 201.487 181.254 201.485 180.758C201.486 180.429 201.422 180.104 201.297 179.799C201.171 179.495 200.986 179.219 200.753 178.987C200.52 178.755 200.243 178.571 199.939 178.447C199.634 178.323 199.308 178.26 198.979 178.262Z" stroke="#263238" stroke-linecap="round" stroke-linejoin="round"/>
<path d="M222.23 299.098H136.08C131.372 299.098 127.555 302.914 127.555 307.622V315.533C127.555 320.241 131.372 324.058 136.08 324.058H222.23C226.938 324.058 230.755 320.241 230.755 315.533V307.622C230.755 302.914 226.938 299.098 222.23 299.098Z" fill="#999999"/>
<path d="M223.19 296.218H137.04C132.332 296.218 128.515 300.034 128.515 304.742V312.653C128.515 317.361 132.332 321.178 137.04 321.178H223.19C227.898 321.178 231.715 317.361 231.715 312.653V304.742C231.715 300.034 227.898 296.218 223.19 296.218Z" fill="#FF0000" stroke="#263238" stroke-linecap="round" stroke-linejoin="round"/>
<path d="M139.325 305.846C139.323 305.323 139.476 304.812 139.765 304.376C140.055 303.941 140.467 303.601 140.95 303.4C141.433 303.199 141.964 303.146 142.477 303.247C142.99 303.349 143.462 303.6 143.831 303.97C144.201 304.34 144.453 304.811 144.554 305.324C144.656 305.837 144.603 306.369 144.402 306.852C144.201 307.334 143.861 307.747 143.425 308.036C142.99 308.325 142.478 308.479 141.955 308.477M141.955 299.952C140.392 299.952 138.892 300.573 137.787 301.678C136.682 302.784 136.061 304.283 136.061 305.846C136.061 308.141 138.941 312.816 140.707 315.389C140.844 315.595 141.029 315.764 141.247 315.881C141.465 315.997 141.708 316.059 141.955 316.059C142.202 316.059 142.445 315.997 142.663 315.881C142.881 315.764 143.066 315.595 143.203 315.389C144.96 312.816 147.84 308.16 147.84 305.846C147.84 304.285 147.22 302.787 146.117 301.682C145.013 300.577 143.517 299.955 141.955 299.952Z" stroke="#263238" stroke-linecap="round" stroke-linejoin="round"/>
<path d="M211.689 301.709H163.027C162.675 301.709 162.327 301.778 162.002 301.913C161.677 302.047 161.382 302.245 161.133 302.493C160.884 302.742 160.687 303.037 160.553 303.362C160.418 303.687 160.349 304.035 160.349 304.387C160.349 304.739 160.418 305.087 160.553 305.412C160.687 305.737 160.884 306.032 161.133 306.281C161.382 306.53 161.677 306.727 162.002 306.862C162.327 306.996 162.675 307.066 163.027 307.066H211.689C212.4 307.066 213.081 306.783 213.583 306.281C214.086 305.779 214.368 305.098 214.368 304.387C214.368 303.677 214.086 302.996 213.583 302.493C213.081 301.991 212.4 301.709 211.689 301.709Z" fill="#858585" stroke="#263238" stroke-linecap="round" stroke-linejoin="round"/>
<path d="M197.52 310.32H163.027C162.317 310.32 161.635 310.602 161.133 311.104C160.631 311.607 160.349 312.288 160.349 312.998C160.349 313.709 160.631 314.39 161.133 314.892C161.635 315.395 162.317 315.677 163.027 315.677H197.52C198.23 315.677 198.911 315.395 199.414 314.892C199.916 314.39 200.198 313.709 200.198 312.998C200.198 312.288 199.916 311.607 199.414 311.104C198.911 310.602 198.23 310.32 197.52 310.32Z" fill="#999999" stroke="#263238" stroke-linecap="round" stroke-linejoin="round"/>
<path d="M214.733 310.32H204.874C204.163 310.32 203.482 310.602 202.98 311.104C202.478 311.607 202.195 312.288 202.195 312.998C202.195 313.709 202.478 314.39 202.98 314.892C203.482 315.395 204.163 315.677 204.874 315.677H214.733C215.443 315.677 216.125 315.395 216.627 314.892C217.129 314.39 217.411 313.709 217.411 312.998C217.411 312.288 217.129 311.607 216.627 311.104C216.125 310.602 215.443 310.32 214.733 310.32Z" fill="#999999" stroke="#263238" stroke-linecap="round" stroke-linejoin="round"/>
<path d="M235.67 267.898H149.52C144.812 267.898 140.995 271.714 140.995 276.422V284.333C140.995 289.041 144.812 292.858 149.52 292.858H235.67C240.378 292.858 244.195 289.041 244.195 284.333V276.422C244.195 271.714 240.378 267.898 235.67 267.898Z" fill="#999999"/>
<path d="M236.63 265.018H150.48C145.772 265.018 141.955 268.834 141.955 273.542V281.453C141.955 286.161 145.772 289.978 150.48 289.978H236.63C241.338 289.978 245.155 286.161 245.155 281.453V273.542C245.155 268.834 241.338 265.018 236.63 265.018Z" fill="#FF0000" stroke="#263238" stroke-linecap="round" stroke-linejoin="round"/>
<path d="M150.278 280.186V281.424C150.279 281.519 150.305 281.611 150.354 281.693C150.403 281.774 150.473 281.84 150.557 281.885L155.146 284.371C155.222 284.414 155.308 284.437 155.395 284.437C155.483 284.437 155.569 284.414 155.645 284.371L160.243 281.885C160.327 281.84 160.396 281.774 160.445 281.693C160.494 281.611 160.521 281.519 160.522 281.424V280.186" stroke="#263238" stroke-linecap="round" stroke-linejoin="round"/>
<path d="M162.806 282.24V276.826L164.121 276.115C164.213 276.073 164.291 276.005 164.346 275.92C164.4 275.835 164.429 275.736 164.429 275.635C164.429 275.534 164.4 275.435 164.346 275.35C164.291 275.265 164.213 275.197 164.121 275.155L155.645 270.566C155.568 270.524 155.482 270.501 155.395 270.501C155.308 270.501 155.222 270.524 155.145 270.566L146.678 275.155C146.586 275.197 146.508 275.265 146.454 275.35C146.399 275.435 146.37 275.534 146.37 275.635C146.37 275.736 146.399 275.835 146.454 275.92C146.508 276.005 146.586 276.073 146.678 276.115L155.145 280.694C155.222 280.737 155.308 280.76 155.395 280.76C155.482 280.76 155.568 280.737 155.645 280.694L160.521 278.064" stroke="#263238" stroke-linecap="round" stroke-linejoin="round"/>
<path d="M225.129 270.509H176.467C175.757 270.509 175.075 270.791 174.573 271.293C174.071 271.796 173.789 272.477 173.789 273.187C173.789 273.898 174.071 274.579 174.573 275.081C175.075 275.583 175.757 275.866 176.467 275.866H225.129C225.84 275.866 226.521 275.583 227.023 275.081C227.526 274.579 227.808 273.898 227.808 273.187C227.808 272.477 227.526 271.796 227.023 271.293C226.521 270.791 225.84 270.509 225.129 270.509Z" fill="#858585" stroke="#263238" stroke-linecap="round" stroke-linejoin="round"/>
<path d="M202.32 279.12H176.467C175.757 279.12 175.075 279.402 174.573 279.904C174.071 280.407 173.789 281.088 173.789 281.798C173.789 282.509 174.071 283.19 174.573 283.692C175.075 284.195 175.757 284.477 176.467 284.477H202.32C203.03 284.477 203.711 284.195 204.214 283.692C204.716 283.19 204.998 282.509 204.998 281.798C204.998 281.088 204.716 280.407 204.214 279.904C203.711 279.402 203.03 279.12 202.32 279.12Z" fill="#999999" stroke="#263238" stroke-linecap="round" stroke-linejoin="round"/>
<path d="M219.753 279.12H209.894C209.184 279.12 208.503 279.402 208 279.904C207.498 280.407 207.216 281.088 207.216 281.798C207.216 282.509 207.498 283.19 208 283.692C208.503 284.195 209.184 284.477 209.894 284.477H219.753C220.464 284.477 221.145 284.195 221.647 283.692C222.15 283.19 222.432 282.509 222.432 281.798C222.432 281.088 222.15 280.407 221.647 279.904C221.145 279.402 220.464 279.12 219.753 279.12Z" fill="#999999" stroke="#263238" stroke-linecap="round" stroke-linejoin="round"/>
<path d="M209.75 236.698H123.6C118.892 236.698 115.075 240.514 115.075 245.222V253.133C115.075 257.841 118.892 261.658 123.6 261.658H209.75C214.459 261.658 218.275 257.841 218.275 253.133V245.222C218.275 240.514 214.459 236.698 209.75 236.698Z" fill="#999999"/>
<path d="M210.71 233.818H124.56C119.852 233.818 116.035 237.634 116.035 242.342V250.253C116.035 254.961 119.852 258.778 124.56 258.778H210.71C215.418 258.778 219.235 254.961 219.235 250.253V242.342C219.235 237.634 215.418 233.818 210.71 233.818Z" fill="#FF0000" stroke="#263238" stroke-linecap="round" stroke-linejoin="round"/>
<path d="M129.878 247.344H129.072C128.542 247.344 128.112 247.774 128.112 248.304V250.368C128.112 250.898 128.542 251.328 129.072 251.328H129.878C130.408 251.328 130.838 250.898 130.838 250.368V248.304C130.838 247.774 130.408 247.344 129.878 247.344Z" stroke="#263238" stroke-linecap="round" stroke-linejoin="round"/>
<path d="M122.938 250.128C122.938 250.92 123.252 251.679 123.812 252.239C124.372 252.799 125.131 253.114 125.923 253.114H133.037C133.829 253.114 134.588 252.799 135.148 252.239C135.708 251.679 136.022 250.92 136.022 250.128" stroke="#263238" stroke-linecap="round" stroke-linejoin="round"/>
<path d="M124.742 241.277H123.782C123.371 241.279 122.976 241.444 122.685 241.735C122.394 242.026 122.23 242.42 122.227 242.832V245.933C122.226 246.333 122.304 246.73 122.456 247.1C122.608 247.471 122.832 247.807 123.115 248.091C123.398 248.374 123.734 248.599 124.103 248.753C124.473 248.907 124.87 248.986 125.27 248.986H126.23M132.768 248.986H133.68C134.49 248.986 135.266 248.664 135.839 248.091C136.411 247.519 136.733 246.742 136.733 245.933V242.88C136.73 242.468 136.565 242.074 136.274 241.783C135.983 241.492 135.589 241.327 135.177 241.325H134.217M126.96 241.325V240.96C126.962 240.572 127.118 240.201 127.393 239.928C127.669 239.654 128.041 239.501 128.429 239.501H130.56C130.943 239.508 131.308 239.665 131.577 239.938C131.846 240.21 131.997 240.577 132 240.96V241.306" stroke="#263238" stroke-linecap="round" stroke-linejoin="round"/>
<path d="M199.209 239.309H150.547C149.837 239.309 149.155 239.591 148.653 240.093C148.151 240.596 147.869 241.277 147.869 241.987C147.869 242.698 148.151 243.379 148.653 243.881C149.155 244.383 149.837 244.666 150.547 244.666H199.209C199.92 244.666 200.601 244.383 201.103 243.881C201.606 243.379 201.888 242.698 201.888 241.987C201.888 241.277 201.606 240.596 201.103 240.093C200.601 239.591 199.92 239.309 199.209 239.309Z" fill="#858585" stroke="#263238" stroke-linecap="round" stroke-linejoin="round"/>
<path d="M190.8 247.92H150.547C149.837 247.92 149.155 248.202 148.653 248.704C148.151 249.207 147.869 249.888 147.869 250.598C147.869 251.309 148.151 251.99 148.653 252.492C149.155 252.995 149.837 253.277 150.547 253.277H190.8C191.51 253.277 192.191 252.995 192.694 252.492C193.196 251.99 193.478 251.309 193.478 250.598C193.478 249.888 193.196 249.207 192.694 248.704C192.191 248.202 191.51 247.92 190.8 247.92Z" fill="#999999" stroke="#263238" stroke-linecap="round" stroke-linejoin="round"/>
<path d="M306.384 376.819L306.077 384.749C306.077 384.749 297.111 390.73 293.194 392.026C291.274 392.659 286.061 393.331 286.061 395.702C286.061 398.074 292.781 398.419 296.419 398.419C298.339 398.419 303.216 398.237 309.264 398.17C314.717 398.112 319.546 397.363 319.546 394.752C319.443 391.219 318.453 387.769 316.666 384.72L317.808 376.819H306.384Z" fill="white" stroke="#263238" stroke-linecap="round" stroke-linejoin="round"/>
<path d="M307.459 239.501C307.459 239.501 306.067 261.197 306.355 276.595C306.576 288.922 304.138 324.922 304.138 324.922L305.098 379.306L318.47 380.266C318.47 380.266 325.622 351.197 324.048 325.546C324.048 325.546 329.366 289.699 330.96 278.179C330.96 278.179 341.731 264.086 341.299 239.261L307.459 239.501Z" fill="#263238"/>
<path d="M313.594 259.2C315.505 263.325 318.412 266.911 322.051 269.635" stroke="#7F7F7F" stroke-linecap="round" stroke-linejoin="round"/>
<path d="M286.08 395.693C286.08 398.064 292.8 398.419 296.438 398.419C298.358 398.419 303.235 398.237 309.283 398.17C314.736 398.112 319.565 397.363 319.565 394.752C319.463 391.219 318.472 387.769 316.685 384.72C314.112 385.68 313.142 389.184 313.142 389.184C313.142 389.184 306.307 390.259 308.102 387.85C309.898 385.44 306.058 384.749 306.058 384.749C306.058 384.749 297.091 390.73 293.174 392.026C291.293 392.64 286.08 393.331 286.08 395.693Z" fill="#FF0000" stroke="#263238" stroke-linecap="round" stroke-linejoin="round"/>
<path d="M304.138 376.042L304.406 380.602L319.104 381.859L320.362 377.27L304.138 376.042Z" fill="#999999" stroke="#263238" stroke-linecap="round" stroke-linejoin="round"/>
<path d="M313.862 322.272C315.798 323.772 318.004 324.883 320.361 325.546C327.187 327.466 313.805 327.946 313.296 330.586" stroke="#7F7F7F" stroke-linecap="round" stroke-linejoin="round"/>
<path d="M310.541 318.826C310.996 319.491 311.514 320.111 312.087 320.678" stroke="#7F7F7F" stroke-linecap="round" stroke-linejoin="round"/>
<path d="M281.482 217.632L273.696 222.989C272.457 222.018 270.931 221.485 269.357 221.472C267.024 221.587 264.749 222.816 263.184 222.989C261.389 223.171 256.042 222.173 256.042 223.834C256.042 226.272 265.181 225.37 265.469 226.512C265.757 227.654 259.402 229.267 259.402 229.267L258.624 230.774L271.277 231.974C271.277 231.974 276.864 232.57 279.504 228.787L289.584 223.027L283.517 215.933L281.482 217.632Z" fill="white" stroke="#263238" stroke-linecap="round" stroke-linejoin="round"/>
<path d="M307.335 166.08C304.311 174.922 301.162 201.821 301.162 201.821L279.36 217.546L286.08 225.946C286.08 225.946 307.757 215.098 311.213 212.429C314.669 209.76 318.759 181.258 320.9 175.565C323.04 169.872 321.764 163.824 316.282 161.568C310.8 159.312 308.16 163.718 307.335 166.08Z" fill="#FF0000" stroke="#263238" stroke-linecap="round" stroke-linejoin="round"/>
<path d="M277.315 216.595L281.789 212.803L290.794 225.091L285.831 228.096L277.315 216.595Z" fill="#FF0000"/>
<mask id="mask11_105_722" style="mask-type:luminance" maskUnits="userSpaceOnUse" x="277" y="212" width="14" height="17">
<path d="M277.315 216.595L281.789 212.803L290.794 225.091L285.831 228.096L277.315 216.595Z" fill="white"/>
</mask>
<g mask="url(#mask11_105_722)">
<path opacity="0.5" d="M277.315 216.595L281.789 212.803L290.794 225.091L285.831 228.096L277.315 216.595Z" fill="white"/>
</g>
<path d="M277.315 216.595L281.789 212.803L290.794 225.091L285.831 228.096L277.315 216.595Z" stroke="#263238" stroke-linecap="round" stroke-linejoin="round"/>
<path d="M321.84 152.198L340.378 149.683L325.383 159.302L322.647 159.744L321.84 152.198Z" fill="#FF0000" stroke="#263238" stroke-linecap="round" stroke-linejoin="round"/>
<path d="M322.176 148.675C322.176 148.675 315.735 151.066 314.304 146.582C313.434 143.857 312.95 141.023 312.864 138.163L310.493 136.838C310.351 136.761 310.227 136.654 310.129 136.526C310.03 136.397 309.96 136.25 309.922 136.092C309.884 135.935 309.879 135.772 309.908 135.612C309.937 135.453 309.999 135.302 310.09 135.168L313.824 129.648C313.824 129.648 312.739 125.654 313.344 123.562C313.949 121.469 316.839 114.979 316.839 114.979C316.839 114.979 330.951 104.064 338.17 115.699C345.389 127.334 335.866 142.829 335.866 142.829L338.17 154.224L324.538 160.944L322.176 148.675Z" fill="white"/>
<mask id="mask12_105_722" style="mask-type:luminance" maskUnits="userSpaceOnUse" x="309" y="110" width="32" height="51">
<path d="M322.176 148.675C322.176 148.675 315.735 151.066 314.304 146.582C313.434 143.857 312.95 141.023 312.864 138.163L310.493 136.838C310.351 136.761 310.227 136.654 310.129 136.526C310.03 136.397 309.96 136.25 309.922 136.092C309.884 135.935 309.879 135.772 309.908 135.612C309.937 135.453 309.999 135.302 310.09 135.168L313.824 129.648C313.824 129.648 312.739 125.654 313.344 123.562C313.949 121.469 316.839 114.979 316.839 114.979C316.839 114.979 330.951 104.064 338.17 115.699C345.389 127.334 335.866 142.829 335.866 142.829L338.17 154.224L324.538 160.944L322.176 148.675Z" fill="white"/>
</mask>
<g mask="url(#mask12_105_722)">
<path d="M322.176 148.675C324.401 147.724 326.461 146.428 328.282 144.835C328.355 144.769 328.449 144.729 328.547 144.723C328.645 144.716 328.743 144.742 328.825 144.797C328.907 144.852 328.968 144.933 328.998 145.027C329.028 145.121 329.026 145.223 328.992 145.315C327.661 148.954 325.291 152.121 322.176 154.426C316.1 158.899 322.176 148.675 322.176 148.675Z" fill="#999999"/>
</g>
<path d="M322.176 148.675C322.176 148.675 315.735 151.066 314.304 146.582C313.434 143.857 312.95 141.023 312.864 138.163L310.493 136.838C310.351 136.761 310.227 136.654 310.129 136.526C310.03 136.397 309.96 136.25 309.922 136.092C309.884 135.935 309.879 135.772 309.908 135.612C309.937 135.453 309.999 135.302 310.09 135.168L313.824 129.648C313.824 129.648 312.739 125.654 313.344 123.562C313.949 121.469 316.839 114.979 316.839 114.979C316.839 114.979 330.951 104.064 338.17 115.699C345.389 127.334 335.866 142.829 335.866 142.829L338.17 154.224L324.538 160.944L322.176 148.675Z" stroke="#263238" stroke-linecap="round" stroke-linejoin="round"/>
<path d="M314.486 124.205C314.486 124.205 316.79 122.179 319.286 125.539" stroke="#263238" stroke-linecap="round" stroke-linejoin="round"/>
<path d="M316.8 139.776C316.8 139.776 318.49 140.995 321.111 138.912" stroke="#263238" stroke-linecap="round" stroke-linejoin="round"/>
<path d="M317.386 128.438C317.386 129.11 317.059 129.648 316.666 129.648C316.272 129.648 315.936 129.11 315.936 128.438C315.936 127.766 316.262 127.229 316.666 127.229C317.069 127.229 317.386 127.776 317.386 128.438Z" fill="#263238"/>
<path d="M328.752 129.648C328.752 129.648 330.922 125.539 333.696 128.438C337.997 132.941 331.623 136.224 331.623 136.224C332.29 138.825 333.778 141.141 335.866 142.829C335.866 142.829 337.623 140.909 339.581 138.499C341.539 136.09 346.867 127.334 343.066 117.494C343.066 117.494 343.459 108.403 329.626 106.589C315.792 104.774 314.323 111.677 309.859 110.986C309.859 110.986 313.258 114.019 316.627 111.83C316.32 112.632 315.79 113.329 315.099 113.84C314.409 114.35 313.586 114.652 312.73 114.71C312.73 114.71 316.906 118.282 321.111 117.35C325.315 116.419 323.52 123.082 328.752 129.648Z" fill="#263238" stroke="#263238" stroke-miterlimit="10"/>
<path d="M339.581 115.642C340.006 116.446 340.328 117.301 340.541 118.186" stroke="#7F7F7F" stroke-linecap="round" stroke-linejoin="round"/>
<path d="M319.997 109.373C319.997 109.373 332.477 107.453 338.131 113.616" stroke="#7F7F7F" stroke-linecap="round" stroke-linejoin="round"/>
<path d="M320.64 113.942C319.872 114.048 319.075 114.202 318.24 114.384" stroke="#7F7F7F" stroke-linecap="round" stroke-linejoin="round"/>
<path d="M338.17 120C338.17 120 334.762 113.136 323.674 113.626" stroke="#7F7F7F" stroke-linecap="round" stroke-linejoin="round"/>
<path d="M337.833 137.674C337.488 138.278 337.113 138.893 336.701 139.517" stroke="#7F7F7F" stroke-linecap="round" stroke-linejoin="round"/>
<path d="M340.925 123.101C341.58 127.369 340.875 131.736 338.909 135.581" stroke="#7F7F7F" stroke-linecap="round" stroke-linejoin="round"/>
<path d="M344.842 378.739L345.504 384.749C345.504 384.749 336.538 390.73 332.621 392.026C330.701 392.659 325.479 393.331 325.479 395.702C325.479 398.074 332.199 398.419 335.847 398.419C337.767 398.419 342.634 398.237 348.682 398.17C354.144 398.112 358.963 397.363 358.963 394.752C358.861 391.219 357.871 387.769 356.083 384.72L355.728 377.27L344.842 378.739Z" fill="white" stroke="#263238" stroke-linecap="round" stroke-linejoin="round"/>
<path d="M351.36 389.424C348.48 389.424 347.405 388.579 347.405 388.579C349.805 386.544 345.543 384.739 345.543 384.739C345.543 384.739 336.576 390.72 332.659 392.016C330.739 392.65 325.517 393.322 325.517 395.683C325.517 398.045 332.237 398.41 335.885 398.41C337.805 398.41 342.672 398.227 348.72 398.16C354.183 398.102 359.002 397.354 359.002 394.742C358.9 391.21 357.909 387.759 356.122 384.71C352.887 386.026 354.24 389.424 351.36 389.424Z" fill="#FF0000" stroke="#263238" stroke-linecap="round" stroke-linejoin="round"/>
<path d="M322.186 239.626H351.946C351.946 239.626 355.517 257.434 354.461 275.146C353.405 292.858 354.912 323.462 354.912 323.462C354.912 323.462 358.579 339.062 356.602 380.246L344.352 381.206C344.352 381.206 335.626 340.522 333.878 324.566C332.842 315.043 330.413 290.006 327.984 280.714C325.44 271.152 323.05 267.533 322.186 239.626Z" fill="#263238"/>
<path d="M352.608 373.536C352.608 374.746 352.685 375.994 352.723 377.27" stroke="#7F7F7F" stroke-linecap="round" stroke-linejoin="round"/>
<path d="M346.637 291.782C347.098 302.688 347.376 316.483 348.24 324.259C349.594 336.384 351.427 342.24 352.464 369.379" stroke="#7F7F7F" stroke-linecap="round" stroke-linejoin="round"/>
<path d="M336.403 252.48C337.801 256.233 340.536 259.337 344.083 261.197C344.083 261.197 345.043 270.797 346.003 281.03C346.157 282.634 346.282 284.515 346.397 286.608" stroke="#7F7F7F" stroke-linecap="round" stroke-linejoin="round"/>
<path d="M334.599 245.366C334.754 246.905 335.052 248.425 335.491 249.907" stroke="#7F7F7F" stroke-linecap="round" stroke-linejoin="round"/>
<path d="M322.474 248.89C322.429 247.904 322.381 246.867 322.33 245.779" stroke="#7F7F7F" stroke-linecap="round" stroke-linejoin="round"/>
<path d="M324.778 269.578C323.613 263.945 322.91 258.227 322.675 252.48" stroke="#7F7F7F" stroke-linecap="round" stroke-linejoin="round"/>
<path d="M329.174 286.637C328.762 284.323 328.358 282.298 327.946 280.733C327.379 278.592 326.822 275.885 326.294 274.157" stroke="#7F7F7F" stroke-linecap="round" stroke-linejoin="round"/>
<path d="M342.259 378.134L343.258 382.598L357.965 381.456L358.445 376.982L342.259 378.134Z" fill="#999999" stroke="#263238" stroke-linecap="round" stroke-linejoin="round"/>
<path d="M353.28 200.448C353.587 180.979 360.317 159.686 360.317 159.686C360.317 159.686 353.923 152.554 340.598 151.267L325.747 160.157L322.627 159.744L321.379 153.744C312.864 157.056 307.325 162.95 306.624 168.931C305.568 177.85 308.227 204.72 307.267 222.038C306.691 232.358 306 243.158 306 243.158L317.962 245.75L320.112 242.813L323.683 245.75L354.96 242.573C354.96 242.573 352.992 219.917 353.28 200.448Z" fill="#FF0000" stroke="#263238" stroke-linecap="round" stroke-linejoin="round"/>
<path d="M322.186 151.699L323.99 158.726L340.406 149.194L344.4 151.277L331.575 163.747L323.799 160.003L318.288 162.95L318.883 153.792L322.186 151.699Z" fill="#FF0000"/>
<mask id="mask13_105_722" style="mask-type:luminance" maskUnits="userSpaceOnUse" x="318" y="149" width="27" height="15">
<path d="M322.186 151.699L323.99 158.726L340.406 149.194L344.4 151.277L331.575 163.747L323.799 160.003L318.288 162.95L318.883 153.792L322.186 151.699Z" fill="white"/>
</mask>
<g mask="url(#mask13_105_722)">
<path opacity="0.5" d="M322.186 151.699L323.99 158.726L340.406 149.194L344.4 151.277L331.575 163.747L323.799 160.003L318.288 162.95L318.883 153.792L322.186 151.699Z" fill="white"/>
</g>
<path d="M322.186 151.699L323.99 158.726L340.406 149.194L344.4 151.277L331.575 163.747L323.799 160.003L318.288 162.95L318.883 153.792L322.186 151.699Z" stroke="#263238" stroke-linecap="round" stroke-linejoin="round"/>
<path d="M320.199 235.939C320.199 238.138 320.199 239.261 320.199 239.261" stroke="#263238" stroke-linecap="round" stroke-linejoin="round"/>
<path d="M322.33 169.853C320.946 180.147 320.25 190.522 320.246 200.909C320.093 216.173 320.131 227.213 320.179 233.424" stroke="#263238" stroke-linecap="round" stroke-linejoin="round"/>
<path d="M323.299 164.371C323.299 164.371 323.069 165.331 322.723 167.357" stroke="#263238" stroke-linecap="round" stroke-linejoin="round"/>
<path d="M303.946 196.214H217.795C213.087 196.214 209.271 200.031 209.271 204.739V222.25C209.271 226.958 213.087 230.774 217.795 230.774H303.946C308.654 230.774 312.47 226.958 312.47 222.25V204.739C312.47 200.031 308.654 196.214 303.946 196.214Z" fill="#FF0000" stroke="#263238" stroke-linecap="round" stroke-linejoin="round"/>
<path d="M222.163 213.763L218.458 210.355L224.486 203.741C224.805 203.423 225.236 203.245 225.686 203.245C226.136 203.245 226.568 203.423 226.886 203.741L227.981 204.758C228.326 205.049 228.542 205.465 228.581 205.915C228.621 206.365 228.481 206.812 228.192 207.158L222.163 213.763Z" stroke="#263238" stroke-linecap="round" stroke-linejoin="round"/>
<path d="M219.696 215.328L216.758 215.952L217.114 212.947" stroke="#263238" stroke-linecap="round" stroke-linejoin="round"/>
<path d="M290.391 202.608H241.728C241.018 202.608 240.337 202.89 239.834 203.392C239.332 203.895 239.05 204.576 239.05 205.286C239.05 205.997 239.332 206.678 239.834 207.18C240.337 207.683 241.018 207.965 241.728 207.965H290.391C291.101 207.965 291.782 207.683 292.285 207.18C292.787 206.678 293.069 205.997 293.069 205.286C293.069 204.576 292.787 203.895 292.285 203.392C291.782 202.89 291.101 202.608 290.391 202.608Z" fill="#858585" stroke="#263238" stroke-linecap="round" stroke-linejoin="round"/>
<path d="M281.981 211.2H241.728C241.018 211.2 240.337 211.482 239.834 211.984C239.332 212.487 239.05 213.168 239.05 213.878C239.05 214.589 239.332 215.27 239.834 215.772C240.337 216.275 241.018 216.557 241.728 216.557H281.981C282.691 216.557 283.373 216.275 283.875 215.772C284.377 215.27 284.659 214.589 284.659 213.878C284.659 213.168 284.377 212.487 283.875 211.984C283.373 211.482 282.691 211.2 281.981 211.2Z" fill="#999999" stroke="#263238" stroke-linecap="round" stroke-linejoin="round"/>
<path d="M330.567 218.362C330.567 218.362 318.365 221.597 316.896 222.048C315.427 222.499 313.766 224.986 311.866 227.309C310.409 229.238 308.4 230.677 306.106 231.437C304.541 231.802 300.106 233.357 300.048 232.042C299.99 230.726 304.522 230.304 304.522 230.304L308.275 228.442C306.355 229.651 299.578 230.688 299.578 230.688C298.581 230.835 297.564 230.635 296.698 230.122C295.373 229.277 296.17 228.278 296.17 228.278C295.68 227.242 297.898 226.637 297.898 226.637L301.978 223.92C301.978 223.92 305.213 219.197 304.618 218.362C304.023 217.526 297.984 220.349 297.245 218.957C296.506 217.565 301.978 215.597 305.098 214.858C308.218 214.118 313.248 214.858 313.248 214.858L327.36 209.597L330.567 218.362Z" fill="white" stroke="#263238" stroke-linecap="round" stroke-linejoin="round"/>
<path d="M297.648 228.48C298.23 228.483 298.812 228.435 299.386 228.336C300.942 227.724 302.389 226.861 303.667 225.782C304.627 224.909 305.587 223.219 306.307 223.094" stroke="#263238" stroke-linecap="round" stroke-linejoin="round"/>
<path d="M298.301 229.642C298.911 229.612 299.513 229.489 300.086 229.277C301.798 228.787 303.462 228.144 305.059 227.357C306.019 226.742 307.267 225.437 307.939 225.562" stroke="#263238" stroke-linecap="round" stroke-linejoin="round"/>
<path d="M345.6 169.133C345.542 165.754 345.677 156.653 354.787 157.315C363.898 157.978 362.947 167.491 362.63 174.115C362.314 180.739 365.146 208.483 359.002 210.47L326.237 221.03L322.157 209.29L346.79 198.979C346.79 198.979 345.744 176.64 345.6 169.133Z" fill="#FF0000"/>
<path d="M356.035 204.72C356.479 205.315 356.853 205.959 357.149 206.64" stroke="#263238" stroke-linecap="round" stroke-linejoin="round"/>
<path d="M357.12 198.288C357.12 198.288 350.515 196.272 349.526 198.826C348.778 200.746 352.042 200.957 354.758 203.366" stroke="#263238" stroke-linecap="round" stroke-linejoin="round"/>
<path d="M345.687 171.782C345.687 170.774 345.687 169.862 345.629 169.133" stroke="#263238" stroke-linecap="round" stroke-linejoin="round"/>
<path d="M354.816 157.315C363.926 157.939 362.976 167.491 362.659 174.115C362.342 180.739 365.174 208.483 359.03 210.47L326.266 221.03L322.186 209.29L346.819 198.979C346.819 198.979 346.109 184.147 345.782 174.586" stroke="#263238" stroke-linecap="round" stroke-linejoin="round"/>
<path d="M320.247 208.944L325.642 206.659L330.567 221.078L324.922 222.47L320.247 208.944Z" fill="#FF0000"/>
<mask id="mask14_105_722" style="mask-type:luminance" maskUnits="userSpaceOnUse" x="320" y="206" width="11" height="17">
<path d="M320.247 208.944L325.642 206.659L330.567 221.078L324.922 222.47L320.247 208.944Z" fill="white"/>
</mask>
<g mask="url(#mask14_105_722)">
<path opacity="0.5" d="M320.247 208.944L325.642 206.659L330.567 221.078L324.922 222.47L320.247 208.944Z" fill="white"/>
</g>
<path d="M320.247 208.944L325.642 206.659L330.567 221.078L324.922 222.47L320.247 208.944Z" stroke="#263238" stroke-linecap="round" stroke-linejoin="round"/>
<path d="M258.394 230.15C258.134 229.133 257.597 226.224 259.162 226.224C260.726 226.224 261.014 227.952 261.014 227.952C261.014 227.952 260.746 225.926 262.282 226.224C263.818 226.522 264.058 228.797 264.058 228.797C264.058 228.797 263.798 226.954 265.469 227.146C267.139 227.338 266.141 231.533 268.138 231.514C268.982 231.514 268.003 228.518 269.635 228.528C271.267 228.538 270.595 231.754 273.658 231.754C274.618 231.754 270.893 233.04 268.416 232.512C268.416 232.512 267.264 233.558 264.298 231.917C263.767 232.166 263.174 232.254 262.593 232.169C262.013 232.083 261.47 231.829 261.034 231.437C260.784 231.591 260.5 231.679 260.207 231.694C259.915 231.708 259.623 231.649 259.359 231.52C259.096 231.392 258.869 231.199 258.7 230.96C258.532 230.72 258.426 230.442 258.394 230.15Z" fill="white" stroke="#263238" stroke-linecap="round" stroke-linejoin="round"/>
<path d="M260.986 229.162C260.949 229.507 260.982 229.856 261.082 230.189" stroke="#263238" stroke-linecap="round" stroke-linejoin="round"/>
<path d="M264.144 229.949C264.144 229.949 264.086 229.891 264.259 230.688" stroke="#263238" stroke-linecap="round" stroke-linejoin="round"/>
</svg>
