<svg width="151" height="50" viewBox="0 0 151 50" fill="none" xmlns="http://www.w3.org/2000/svg">
<mask id="mask0_21_7" style="mask-type:luminance" maskUnits="userSpaceOnUse" x="9" y="8" width="133" height="34">
<path d="M141.1 8.19995H9.1001V41.9H141.1V8.19995Z" fill="white"/>
</mask>
<g mask="url(#mask0_21_7)">
<path d="M141.1 8.19995H9.1001V41.9H141.1V8.19995Z" fill="#FF0000"/>
</g>
<mask id="mask1_21_7" style="mask-type:luminance" maskUnits="userSpaceOnUse" x="9" y="8" width="133" height="34">
<path d="M141.1 8.19995H9.1001V41.9H141.1V8.19995Z" fill="white"/>
</mask>
<g mask="url(#mask1_21_7)">
<path d="M9.1001 37H16.2001V36.1H9.1001V37ZM9.1001 31.3H16.2001V30.4H9.1001V31.3ZM9.1001 25.4H16.2001V24.5H9.1001V25.4ZM9.1001 19.6H16.2001V18.7H9.1001V19.6ZM9.1001 13.9H16.2001V13H9.1001V13.9Z" fill="white"/>
</g>
<mask id="mask2_21_7" style="mask-type:luminance" maskUnits="userSpaceOnUse" x="9" y="8" width="133" height="34">
<path d="M141.1 8.19995H9.1001V41.9H141.1V8.19995Z" fill="white"/>
</mask>
<g mask="url(#mask2_21_7)">
<path d="M134.1 37H141.1V36.1H134.1V37ZM134.1 31.3H141.1V30.4H134.1V31.3ZM134.1 25.4H141.1V24.5H134.1V25.4ZM134.1 19.6H141.1V18.7H134.1V19.6ZM134.1 13.9H141.1V13H134.1V13.9Z" fill="white"/>
</g>
<mask id="mask3_21_7" style="mask-type:luminance" maskUnits="userSpaceOnUse" x="9" y="8" width="133" height="34">
<path d="M141.1 8.19995H9.1001V41.9H141.1V8.19995Z" fill="white"/>
</mask>
<g mask="url(#mask3_21_7)">
<mask id="mask4_21_7" style="mask-type:luminance" maskUnits="userSpaceOnUse" x="9" y="8" width="133" height="34">
<path d="M141.1 8.19995H9.1001V41.9H141.1V8.19995Z" fill="white"/>
</mask>
<g mask="url(#mask4_21_7)">
<path fill-rule="evenodd" clip-rule="evenodd" d="M126.5 36.9999L131.6 12.9999H124.9L119.8 36.9999H126.5ZM102.1 27.5999L107.5 17.5999H107.6L108.5 27.5999H102.1ZM96.9002 36.9999L99.5002 32.2999H109.3L109.9 36.9999H117.4L113 12.9999H104.9L90.2002 36.9999H96.9002ZM64.3002 36.9999H70.3002L74.2002 18.5999H74.3002L78.5002 36.9999H87.7002L92.8002 12.9999H86.8002L83.0002 30.7999V30.8999L78.7002 12.9999H69.4002L64.3002 36.9999ZM60.6002 36.9999L61.6002 32.2999H49.9002L51.0002 27.1999H61.7002L62.7002 22.4999H52.0002L53.1002 17.4999H64.7002L65.7002 12.7999H47.4002L42.3002 36.7999H60.6002V36.9999ZM41.3002 19.9999C42.9002 14.1999 38.2002 12.3999 33.3002 12.3999C28.3002 12.3999 22.9002 13.9999 21.5002 19.6999C21.0002 22.2999 21.7002 24.4999 23.9002 25.5999C28.6002 27.8999 33.7002 27.1999 33.0002 30.4999C32.7002 32.0999 30.5002 32.8999 29.0002 32.8999C26.6002 32.8999 25.2002 31.6999 25.7002 29.3999H19.0002C17.7002 35.8999 22.3002 37.5999 27.9002 37.5999C33.5002 37.5999 39.0002 35.1999 40.0002 30.0999C41.4002 23.5999 35.6002 23.1999 31.8002 22.1999C30.1002 21.6999 28.1002 21.1999 28.5002 19.3999C28.8002 18.1999 30.3002 17.1999 31.8002 17.1999C32.9002 17.1999 33.7002 17.4999 34.2002 17.9999C34.7002 18.4999 34.8002 19.1999 34.6002 20.0999H41.3002V19.9999Z" fill="white"/>
</g>
</g>
</svg>
