<svg width="480" height="480" viewBox="0 0 480 480" fill="none" xmlns="http://www.w3.org/2000/svg">
<path d="M438.288 200.746C391.498 120.605 264.576 149.146 238.656 110.17C225.379 90.24 210.528 67.0752 188.986 55.0464C168.451 43.5264 144.643 39.4848 123.888 41.0016C49.7664 46.4256 18.3456 112.742 32.5824 185.568C51.5904 282.71 137.702 381.946 240 382.637C293.51 383.04 344.64 363.84 384.672 336.835L385.565 336.23C425.597 308.976 474.019 261.926 438.288 200.746Z" fill="#FF0000"/>
<path opacity="0.7" d="M438.288 200.746C391.498 120.605 264.576 149.146 238.656 110.17C225.379 90.24 210.528 67.0752 188.986 55.0464C168.451 43.5264 144.643 39.4848 123.888 41.0016C49.7664 46.4256 18.3456 112.742 32.5824 185.568C51.5904 282.71 137.702 381.946 240 382.637C293.51 383.04 344.64 363.84 384.672 336.835L385.565 336.23C425.597 308.976 474.019 261.926 438.288 200.746Z" fill="white"/>
<path d="M75.0626 206.573H69.8594C64.2759 206.573 58.921 208.791 54.9729 212.739C51.0247 216.687 48.8066 222.042 48.8066 227.626V343.152C48.8066 348.736 51.0247 354.09 54.9729 358.039C58.921 361.987 64.2759 364.205 69.8594 364.205H141.245C146.829 364.205 152.183 361.987 156.132 358.039C160.08 354.09 162.298 348.736 162.298 343.152" stroke="#263238" stroke-width="1.10311" stroke-linecap="round" stroke-linejoin="round" stroke-dasharray="4.41 4.41"/>
<path d="M156.48 97.5648V74.7456C156.48 71.3312 157.835 68.0562 160.246 65.6392C162.658 63.2221 165.93 61.8604 169.344 61.8528H262.176C265.596 61.8528 268.875 63.2111 271.293 65.629C273.711 68.0469 275.069 71.3262 275.069 74.7456" stroke="#263238" stroke-width="1.10311" stroke-linecap="round" stroke-linejoin="round" stroke-dasharray="4.41 4.41"/>
<path d="M240 453.274C341.542 453.274 423.859 441.772 423.859 427.584C423.859 413.396 341.542 401.894 240 401.894C138.457 401.894 56.1406 413.396 56.1406 427.584C56.1406 441.772 138.457 453.274 240 453.274Z" fill="#FF0000"/>
<path opacity="0.5" d="M240 453.274C341.542 453.274 423.859 441.772 423.859 427.584C423.859 413.396 341.542 401.894 240 401.894C138.457 401.894 56.1406 413.396 56.1406 427.584C56.1406 441.772 138.457 453.274 240 453.274Z" fill="white"/>
<path d="M413.318 128.179V301.037C413.318 306.687 411.074 312.107 407.08 316.103C403.085 320.1 397.667 322.346 392.016 322.349H87.984C82.3334 322.346 76.9151 320.1 72.9204 316.103C68.9257 312.107 66.6816 306.687 66.6816 301.037V128.179C66.6816 127.67 66.6816 127.219 66.7488 126.682C67.1231 121.304 69.5228 116.269 73.4638 112.592C77.4048 108.915 82.5938 106.869 87.984 106.867H392.016C397.412 106.869 402.607 108.921 406.549 112.606C410.491 116.291 412.886 121.336 413.251 126.72C413.299 127.181 413.318 127.68 413.318 128.179Z" fill="white" stroke="#263238" stroke-width="1.10311" stroke-linecap="round" stroke-linejoin="round"/>
<path d="M77.0498 134.669H404.035V294.346C404.035 299.641 401.932 304.72 398.187 308.465C394.442 312.21 389.363 314.314 384.067 314.314H97.0274C91.7316 314.314 86.6526 312.21 82.9079 308.465C79.1632 304.72 77.0594 299.641 77.0594 294.346V134.669H77.0498Z" fill="#263238"/>
<path opacity="0.2" d="M404.045 134.669V294.346C404.073 299.612 402.008 304.674 398.305 308.418C394.602 312.163 389.564 314.283 384.298 314.314H96.7968C91.5306 314.283 86.4921 312.163 82.789 308.418C79.0859 304.674 77.0215 299.612 77.0496 294.346V134.669H404.045Z" fill="white"/>
<path d="M413.251 126.72H66.749C67.1233 121.343 69.523 116.308 73.464 112.63C77.405 108.953 82.594 106.907 87.9842 106.906H392.016C397.406 106.907 402.595 108.953 406.536 112.63C410.477 116.308 412.877 121.343 413.251 126.72Z" fill="#FF0000" stroke="#263238" stroke-width="1.10311" stroke-miterlimit="10"/>
<path d="M109.325 116.774C109.325 117.521 109.104 118.25 108.689 118.87C108.275 119.491 107.685 119.974 106.996 120.26C106.307 120.546 105.548 120.62 104.816 120.475C104.084 120.329 103.412 119.97 102.884 119.442C102.357 118.915 101.997 118.242 101.852 117.51C101.706 116.779 101.781 116.02 102.066 115.331C102.352 114.641 102.836 114.052 103.456 113.637C104.076 113.223 104.806 113.002 105.552 113.002C106.553 113.002 107.512 113.399 108.22 114.107C108.927 114.814 109.325 115.774 109.325 116.774Z" fill="#263238"/>
<path d="M125.28 116.774C125.28 117.521 125.059 118.25 124.644 118.87C124.23 119.491 123.64 119.974 122.951 120.26C122.262 120.546 121.503 120.62 120.771 120.475C120.039 120.329 119.367 119.97 118.839 119.442C118.312 118.915 117.952 118.242 117.807 117.51C117.661 116.779 117.736 116.02 118.022 115.331C118.307 114.641 118.791 114.052 119.411 113.637C120.032 113.223 120.761 113.002 121.507 113.002C122.508 113.002 123.467 113.399 124.175 114.107C124.882 114.814 125.28 115.774 125.28 116.774Z" fill="#263238"/>
<path d="M137.462 120.547C139.546 120.547 141.235 118.858 141.235 116.774C141.235 114.691 139.546 113.002 137.462 113.002C135.379 113.002 133.689 114.691 133.689 116.774C133.689 118.858 135.379 120.547 137.462 120.547Z" fill="#263238"/>
<path d="M404.035 134.669V294.346C404.035 299.641 401.932 304.72 398.187 308.465C394.442 312.21 389.363 314.314 384.067 314.314H97.0274C92.4054 314.313 87.9267 312.708 84.3554 309.774C80.784 306.84 78.3412 302.758 77.4434 298.224V298.166C77.1994 296.901 77.0772 295.615 77.0786 294.326V134.669H404.035Z" stroke="#263238" stroke-width="1.10311" stroke-miterlimit="10"/>
<path d="M403.728 159.36C402.328 158.574 400.839 157.958 399.293 157.526L397.498 149.51H389.875L388.099 157.526C386.544 157.951 385.048 158.566 383.645 159.36L376.762 154.954L371.376 160.32L375.706 167.203C374.913 168.607 374.297 170.103 373.872 171.658L365.856 173.434V181.056L373.872 182.851C374.292 184.414 374.908 185.917 375.706 187.325L371.299 194.256L376.694 199.642L383.616 195.235C385.016 196.03 386.509 196.649 388.061 197.078L389.846 205.085H397.44L399.226 197.078C400.773 196.645 402.262 196.026 403.661 195.235L404.016 195.466V159.168L403.728 159.36ZM393.706 187.2C391.757 187.2 389.852 186.622 388.232 185.539C386.612 184.457 385.35 182.918 384.605 181.117C383.86 179.317 383.665 177.336 384.046 175.425C384.427 173.514 385.366 171.759 386.744 170.382C388.123 169.005 389.879 168.068 391.79 167.689C393.701 167.31 395.682 167.506 397.481 168.253C399.281 169 400.819 170.264 401.9 171.885C402.981 173.506 403.557 175.411 403.555 177.36C403.555 178.653 403.3 179.933 402.805 181.128C402.31 182.322 401.584 183.407 400.67 184.321C399.755 185.235 398.669 185.96 397.474 186.454C396.279 186.948 394.999 187.201 393.706 187.2Z" fill="#263238"/>
<path d="M266.352 167.088V151.018L249.456 147.264C248.544 143.999 247.256 140.852 245.616 137.885L247.661 134.669H167.885L169.853 137.798C168.193 140.752 166.904 143.899 166.013 147.168L149.107 150.931V167.04L166.013 170.813C166.904 174.106 168.193 177.278 169.853 180.259L160.57 194.861L171.946 206.227L186.538 196.934C189.498 198.6 192.647 199.905 195.917 200.822L199.68 217.67H215.712L219.495 200.784C222.754 199.862 225.893 198.557 228.845 196.896L243.447 206.189L254.813 194.822L245.587 180.221C247.223 177.259 248.511 174.118 249.427 170.861L266.352 167.088ZM207.792 179.818C203.685 179.818 199.671 178.6 196.256 176.318C192.841 174.036 190.18 170.793 188.608 166.999C187.036 163.205 186.625 159.03 187.426 155.002C188.228 150.974 190.205 147.274 193.109 144.37C196.013 141.466 199.713 139.488 203.741 138.687C207.769 137.886 211.944 138.297 215.739 139.869C219.533 141.44 222.776 144.102 225.058 147.517C227.339 150.931 228.557 154.946 228.557 159.053C228.558 161.78 228.022 164.481 226.979 167.001C225.936 169.521 224.406 171.81 222.478 173.739C220.55 175.667 218.26 177.196 215.74 178.24C213.22 179.283 210.519 179.819 207.792 179.818Z" fill="#263238"/>
<path d="M159.725 277.44L160.407 264.682L147.187 260.957C146.574 258.335 145.666 255.791 144.48 253.373L152.467 242.16L143.904 232.666L131.943 239.386C129.656 237.947 127.211 236.778 124.656 235.901L122.371 222.346L109.623 221.76L105.936 235.018C103.31 235.607 100.763 236.509 98.3522 237.706L87.149 229.728L77.6354 238.282L84.413 250.253C82.96 252.529 81.7867 254.972 80.9186 257.53L77.0786 258.163V275.443L79.8818 276.23C80.4634 278.861 81.3628 281.411 82.5602 283.824L77.0498 291.552L77.4146 298.166V298.224L83.1074 304.531L95.0882 297.763C97.3706 299.231 99.824 300.414 102.394 301.286L104.64 314.304L104.746 314.851L117.495 315.523L117.831 314.304L121.181 302.275C123.819 301.684 126.378 300.782 128.803 299.587L139.987 307.555L149.491 299.011L142.771 287.03C144.211 284.757 145.368 282.317 146.218 279.763L159.725 277.44ZM125.866 257.52C123.682 255.091 120.827 253.364 117.661 252.558C114.496 251.752 111.163 251.903 108.083 252.992C105.004 254.08 102.316 256.058 100.361 258.674C98.4051 261.291 97.2696 264.428 97.0976 267.69C96.9256 270.952 97.725 274.192 99.3945 276.999C101.064 279.807 103.529 282.056 106.477 283.462C109.425 284.869 112.724 285.369 115.956 284.901C119.189 284.432 122.21 283.015 124.637 280.829C127.878 277.901 129.826 273.809 130.057 269.447C130.287 265.086 128.78 260.811 125.866 257.558V257.52Z" fill="#263238"/>
<path d="M261.696 258.422C262.189 256.447 262.45 254.42 262.474 252.384L271.642 247.584L269.107 238.282L258.758 238.762C257.71 237.023 256.464 235.412 255.043 233.962L258.106 224.064L249.754 219.264L242.765 226.886C240.793 226.41 238.774 226.153 236.746 226.118L231.946 216.95L222.653 219.475L223.142 229.834C221.404 230.882 219.793 232.128 218.342 233.549L208.435 230.486L203.635 238.829L211.315 245.808C210.819 247.776 210.564 249.797 210.557 251.827L201.37 256.627L203.904 265.92L214.272 265.43C215.3 267.178 216.541 268.79 217.968 270.23L214.886 280.08L223.248 284.88L230.198 277.315C232.173 277.812 234.201 278.067 236.237 278.074L241.037 287.251L250.33 284.726L249.917 275.875L249.85 274.358C251.613 273.321 253.244 272.073 254.707 270.643L264.605 273.715L268.694 266.573L269.386 265.363L261.696 258.422ZM239.741 264.067C237.358 264.724 234.833 264.659 232.487 263.88C230.141 263.1 228.08 261.641 226.564 259.688C225.048 257.736 224.147 255.377 223.974 252.911C223.8 250.445 224.363 247.983 225.591 245.837C226.819 243.692 228.657 241.959 230.871 240.859C233.085 239.76 235.575 239.342 238.027 239.66C240.478 239.978 242.78 241.016 244.641 242.644C246.501 244.272 247.836 246.416 248.477 248.803C249.33 251.985 248.891 255.376 247.254 258.236C245.618 261.095 242.917 263.191 239.741 264.067Z" fill="#263238"/>
<path d="M367.987 274.781L370.099 262.013L357.178 256.819C356.884 254.098 356.262 251.423 355.325 248.851L364.627 238.493L357.101 227.933L344.275 233.376C342.146 231.669 339.819 230.225 337.344 229.075L336.595 215.165L323.827 213.053L318.595 225.917C315.886 226.235 313.222 226.863 310.656 227.789L300.269 218.486L289.757 226.013L295.21 238.829C293.709 240.702 292.406 242.726 291.322 244.867C291.178 245.165 291.024 245.462 290.89 245.76L276.989 246.528L274.867 259.277L276.96 260.122L287.789 264.49C288.084 267.198 288.706 269.86 289.642 272.419L280.32 282.845L287.856 293.405L300.672 287.933C302.794 289.655 305.119 291.112 307.594 292.272L308.314 306.115L321.072 308.227L326.294 295.459C329.01 295.163 331.679 294.537 334.243 293.597L344.611 302.899L355.171 295.363L349.718 282.538C351.455 280.406 352.923 278.069 354.086 275.578L367.987 274.781ZM332.179 274.205C329.493 276.132 326.296 277.219 322.992 277.329C319.688 277.439 316.425 276.567 313.617 274.823C310.809 273.078 308.581 270.54 307.215 267.53C305.85 264.519 305.407 261.171 305.944 257.909C306.482 254.647 307.974 251.618 310.233 249.204C312.492 246.79 315.416 245.101 318.635 244.349C321.855 243.597 325.225 243.817 328.319 244.981C331.413 246.144 334.093 248.2 336.019 250.886C338.599 254.49 339.642 258.972 338.919 263.345C338.195 267.718 335.764 271.624 332.16 274.205H332.179Z" fill="#263238"/>
<path d="M194.957 180.259H94.5602C87.6094 180.259 81.9746 185.894 81.9746 192.845V331.843C81.9746 338.794 87.6094 344.429 94.5602 344.429H194.957C201.908 344.429 207.543 338.794 207.543 331.843V192.845C207.543 185.894 201.908 180.259 194.957 180.259Z" fill="#FF0000" stroke="#263238" stroke-width="1.10311" stroke-miterlimit="10"/>
<path opacity="0.2" d="M194.957 180.259H94.5602C87.6094 180.259 81.9746 185.894 81.9746 192.845V331.843C81.9746 338.794 87.6094 344.429 94.5602 344.429H194.957C201.908 344.429 207.543 338.794 207.543 331.843V192.845C207.543 185.894 201.908 180.259 194.957 180.259Z" fill="black"/>
<path d="M219.226 205.248V344.246C219.227 345.9 218.903 347.538 218.271 349.066C217.639 350.594 216.712 351.982 215.543 353.152C214.374 354.322 212.986 355.25 211.459 355.883C209.931 356.516 208.294 356.842 206.64 356.842H106.243C104.591 356.84 102.954 356.514 101.428 355.88C99.9014 355.246 98.5147 354.318 97.3469 353.149C96.1791 351.979 95.2532 350.591 94.6218 349.063C93.9905 347.536 93.6662 345.899 93.6675 344.246V205.248C93.6675 201.912 94.9921 198.712 97.3503 196.352C99.7085 193.992 102.907 192.665 106.243 192.662H206.64C209.978 192.662 213.179 193.988 215.54 196.349C217.9 198.709 219.226 201.91 219.226 205.248Z" fill="white" stroke="#263238" stroke-width="1.10311" stroke-linecap="round" stroke-linejoin="round"/>
<path d="M219.226 205.248V212.688H93.6675V205.248C93.6675 201.912 94.9921 198.712 97.3503 196.352C99.7085 193.992 102.907 192.665 106.243 192.662H206.64C209.978 192.662 213.179 193.988 215.54 196.349C217.9 198.709 219.226 201.91 219.226 205.248Z" fill="#FF0000" stroke="#263238" stroke-width="1.10311" stroke-miterlimit="10"/>
<path d="M136.368 221.309H105.476V226.493H136.368V221.309Z" fill="#FF0000"/>
<path d="M136.368 267.763H105.476V272.947H136.368V267.763Z" fill="#FF0000"/>
<path d="M136.368 309.888H105.476V315.072H136.368V309.888Z" fill="#FF0000"/>
<path d="M193.21 234.144H105.476V237.946H193.21V234.144Z" fill="#263238"/>
<path d="M177.389 241.411H105.476V245.117H177.389V241.411Z" fill="#263238"/>
<path d="M186.807 248.563H105.476V252.269H186.807V248.563Z" fill="#263238"/>
<path d="M186.807 255.706H105.476V259.411H186.807V255.706Z" fill="#263238"/>
<path d="M193.21 276.269H105.476V280.07H193.21V276.269Z" fill="#263238"/>
<path d="M177.389 283.536H105.476V287.242H177.389V283.536Z" fill="#263238"/>
<path d="M186.807 290.688H105.476V294.394H186.807V290.688Z" fill="#263238"/>
<path d="M193.21 322.522H105.476V326.323H193.21V322.522Z" fill="#263238"/>
<path d="M177.389 329.798H105.476V333.504H177.389V329.798Z" fill="#263238"/>
<path d="M186.807 336.95H105.476V340.656H186.807V336.95Z" fill="#263238"/>
<path d="M360.739 96.2784V152.458C360.739 154.429 360.351 156.381 359.596 158.202C358.842 160.023 357.736 161.678 356.341 163.071C354.947 164.464 353.292 165.57 351.47 166.323C349.648 167.077 347.696 167.464 345.725 167.462H216.336C214.365 167.464 212.413 167.077 210.591 166.323C208.77 165.57 207.114 164.464 205.72 163.071C204.326 161.678 203.22 160.023 202.465 158.202C201.71 156.381 201.322 154.429 201.322 152.458V96.2784C201.324 92.2972 202.907 88.4797 205.722 85.6645C208.537 82.8493 212.355 81.2666 216.336 81.264H345.725C349.707 81.264 353.526 82.8459 356.342 85.6617C359.158 88.4774 360.739 92.2964 360.739 96.2784Z" fill="white" stroke="#222221" stroke-width="1.10311" stroke-miterlimit="10"/>
<path d="M360.739 96.2784V97.5648H201.322V96.2784C201.324 92.2972 202.907 88.4797 205.722 85.6645C208.537 82.8493 212.355 81.2666 216.336 81.264H345.725C349.707 81.264 353.526 82.8459 356.342 85.6617C359.158 88.4774 360.739 92.2964 360.739 96.2784Z" fill="#FF0000" stroke="#263238" stroke-width="1.10311" stroke-miterlimit="10"/>
<path d="M224.746 92.1025C224.424 92.4252 224.013 92.6452 223.566 92.7346C223.119 92.8239 222.655 92.7786 222.234 92.6044C221.813 92.4302 221.453 92.1349 221.199 91.7559C220.946 91.3769 220.811 90.9312 220.811 90.4753C220.811 90.0193 220.946 89.5737 221.199 89.1947C221.453 88.8156 221.813 88.5203 222.234 88.3461C222.655 88.1719 223.119 88.1266 223.566 88.2159C224.013 88.3053 224.424 88.5253 224.746 88.8481C225.174 89.2812 225.415 89.8659 225.415 90.4753C225.415 91.0846 225.174 91.6693 224.746 92.1025Z" fill="#263238"/>
<path d="M235.421 92.1025C235.099 92.4252 234.688 92.6452 234.241 92.7346C233.794 92.8239 233.331 92.7786 232.909 92.6044C232.488 92.4302 232.128 92.1349 231.875 91.7559C231.621 91.3769 231.486 90.9312 231.486 90.4753C231.486 90.0193 231.621 89.5737 231.875 89.1947C232.128 88.8156 232.488 88.5203 232.909 88.3461C233.331 88.1719 233.794 88.1266 234.241 88.2159C234.688 88.3053 235.099 88.5253 235.421 88.8481C235.85 89.2812 236.09 89.8659 236.09 90.4753C236.09 91.0846 235.85 91.6693 235.421 92.1025Z" fill="#263238"/>
<path d="M246.096 92.1025C245.774 92.4252 245.364 92.6452 244.917 92.7346C244.47 92.8239 244.006 92.7786 243.585 92.6044C243.163 92.4302 242.803 92.1349 242.55 91.7559C242.296 91.3769 242.161 90.9312 242.161 90.4753C242.161 90.0193 242.296 89.5737 242.55 89.1947C242.803 88.8156 243.163 88.5203 243.585 88.3461C244.006 88.1719 244.47 88.1266 244.917 88.2159C245.364 88.3053 245.774 88.5253 246.096 88.8481C246.525 89.2812 246.765 89.8659 246.765 90.4753C246.765 91.0846 246.525 91.6693 246.096 92.1025Z" fill="#263238"/>
<path d="M263.597 107.894H211.488V152.938H263.597V107.894Z" stroke="#263238" stroke-width="1.10311" stroke-linecap="round" stroke-linejoin="round" stroke-dasharray="4.41 4.41"/>
<path d="M331.613 107.894H271.642V111.062H331.613V107.894Z" fill="#263238"/>
<path d="M317.645 114.451H271.642V117.61H317.645V114.451Z" fill="#263238"/>
<path d="M340.138 120.979H271.642V124.176H340.138V120.979Z" fill="#263238"/>
<path d="M329.971 127.344H271.642V130.541H329.971V127.344Z" fill="#263238"/>
<path d="M365.098 235.709H335.77C332.308 235.709 329.501 238.515 329.501 241.978V259.19C329.501 262.653 332.308 265.459 335.77 265.459H365.098C368.56 265.459 371.367 262.653 371.367 259.19V241.978C371.367 238.515 368.56 235.709 365.098 235.709Z" fill="white" stroke="#263238" stroke-width="1.10311" stroke-linecap="round" stroke-linejoin="round"/>
<path d="M343.008 244.656L334.954 249.706L342.432 256.33" stroke="#263238" stroke-width="1.10311" stroke-linecap="round" stroke-linejoin="round"/>
<path d="M357.677 256.81L364.915 250.646L356.563 245.174" stroke="#263238" stroke-width="1.10311" stroke-linecap="round" stroke-linejoin="round"/>
<path d="M346.925 260.611L352.867 241.968" stroke="#263238" stroke-width="1.10311" stroke-linecap="round" stroke-linejoin="round"/>
<path d="M284.986 422.851C284.986 422.851 257.146 430.829 253.258 432.211C249.725 433.459 240.144 436.819 232.954 435.773C232.259 435.673 231.573 435.525 230.899 435.331C223.613 433.162 220.339 431.136 219.379 426.557C218.419 421.978 222.048 418.598 225.542 416.438C229.037 414.278 247.987 412.022 247.987 412.022L252.566 413.366L284.986 422.851Z" fill="#FF0000"/>
<path d="M232.954 435.773C232.259 435.673 231.573 435.525 230.899 435.331C223.613 433.162 220.339 431.136 219.379 426.557C218.419 421.978 222.048 418.598 225.542 416.438C229.037 414.278 247.987 412.022 247.987 412.022L252.566 413.366C248.419 415.286 232.982 416.333 229.613 418.272C226.243 420.211 224.621 423.859 226.608 428.832C227.674 431.424 230.515 433.968 232.954 435.773Z" fill="white"/>
<path d="M280.8 423.984C280.8 423.984 259.891 429.398 251.597 432.864C243.302 436.33 227.491 437.846 221.837 430.704C216.182 423.562 221.184 417.398 226.819 416.025C232.454 414.653 243.849 412.493 250.07 413.366" stroke="#263238" stroke-width="1.10311" stroke-linecap="round" stroke-linejoin="round"/>
<path d="M233.366 435.398C233.366 435.398 222.73 429.562 226.262 421.382C228.874 415.354 243.062 416.659 250.09 413.366" stroke="#263238" stroke-width="1.10311" stroke-linecap="round" stroke-linejoin="round"/>
<path d="M369.782 437.069C369.494 439.949 368.486 442.646 365.606 444.346C363.686 445.478 360.96 446.15 357.053 446.112C347.29 445.987 328.935 439.008 328.935 439.008L311.75 429.504L320.688 415.363L323.136 411.523L329.453 412.944C329.453 412.944 334.685 415.91 339.946 418.272C345.206 420.634 357.984 421.152 362.486 424.771C366.989 428.39 370.272 432.326 369.782 437.069Z" fill="#FF0000"/>
<path d="M369.782 437.069C369.494 439.949 368.486 442.646 365.606 444.346C366.436 441.514 366.267 438.484 365.126 435.763C363.206 431.453 356.957 427.651 348.739 427.018C340.522 426.384 334.234 422.544 330.941 420.826C328.368 419.491 322.944 416.573 320.688 415.363L323.136 411.523L329.453 412.944C329.453 412.944 334.685 415.91 339.946 418.272C345.206 420.634 357.984 421.152 362.486 424.771C366.989 428.39 370.272 432.326 369.782 437.069Z" fill="white"/>
<path d="M315.561 432.173C327.931 439.363 341.602 444.032 355.785 445.91C358.915 446.285 362.553 446.342 364.646 443.99C365.203 443.311 365.618 442.527 365.865 441.684C366.112 440.841 366.188 439.957 366.086 439.085C365.712 434.669 361.997 431.174 357.926 429.418C353.856 427.661 349.373 427.258 345.043 426.288C340.737 425.317 336.575 423.794 332.659 421.757C329.549 420.134 326.544 418.166 323.117 417.437C319.689 416.707 315.609 417.59 313.776 420.586" stroke="#263238" stroke-width="1.10311" stroke-linecap="round" stroke-linejoin="round"/>
<path d="M363.494 445.19C365.103 444.42 366.509 443.285 367.601 441.875C368.693 440.465 369.44 438.819 369.782 437.069C370.406 432.912 368.035 428.726 364.704 426.173C361.373 423.619 357.197 422.41 353.078 421.555C348.96 420.701 344.746 420.125 340.8 418.56C334.781 416.198 328.838 411.552 322.56 413.213" stroke="#263238" stroke-width="1.10311" stroke-linecap="round" stroke-linejoin="round"/>
<path d="M334.954 283.45L305.875 272.39L305.511 272.246C305.511 272.246 305.616 271.478 305.703 270.326C305.885 268.003 305.981 264.221 304.887 262.944C303.264 261.024 298.675 262.637 294.192 260.582C289.709 258.528 281.424 262.205 281.424 262.205C281.424 262.205 275.434 261.101 272.784 265.421C271.44 268.906 271.901 274.061 271.901 274.061L271.354 274.253C267.888 275.549 249.034 282.643 245.05 285.494C240.643 288.614 235.767 320.65 234.202 330.058C232.637 339.466 229.853 347.942 231.264 351.178C232.675 354.413 252.931 370.013 264.586 374.035C276.24 378.058 317.568 376.915 317.568 376.915C317.568 376.915 318.24 376.733 319.44 376.349C326.429 374.102 351.226 364.829 364.387 343.056C364.407 343.094 351.658 301.306 334.954 283.45ZM256.387 337.334C254.247 338.851 255.427 344.726 255.427 344.726L251.789 341.52L260.928 319.046L264.826 336.326C264.826 336.326 258.528 335.827 256.387 337.334ZM329.501 351.61C328.493 352.128 332.381 341.328 330.538 338.88C328.695 336.432 323.136 336.662 323.136 336.662L323.607 333.715L326.899 316.819L327.994 315.523C327.994 315.523 339.303 334.906 341.328 341.741C341.328 341.76 329.002 351.61 329.501 351.61Z" fill="#FF0000"/>
<path d="M280.051 213.36L265.037 229.296C265.037 229.296 262.973 231.13 263.789 235.747C264.605 240.365 266.525 244.387 267.974 244.656C269.122 244.857 270.284 244.96 271.449 244.963C271.449 244.963 274.665 251.933 276.95 254.669C276.95 254.669 277.737 265.43 277.315 268.416C277.315 268.416 282.71 273.13 287.789 273.725C292.867 274.32 300.71 266.544 300.71 266.544L302.63 257.021C302.63 257.021 307.238 250.032 307.545 248.17C307.853 246.307 309.965 246.787 311.001 245.866C312.038 244.944 314.429 240.845 314.841 236.966C315.254 233.088 315.264 228.634 310.761 229.939C306.854 228.893 309.302 220.637 309.302 220.637L302.438 214.589L280.051 213.36Z" fill="white"/>
<path opacity="0.5" d="M305.875 272.39C305.648 272.984 305.389 273.564 305.097 274.128C302.621 278.794 291.83 287.693 291.83 287.693L288.566 277.661L286.781 287.693C283.181 286.118 272.198 276.605 272.198 276.605C272.198 276.605 271.824 275.712 271.373 274.32L271.92 274.128C271.92 274.128 271.459 268.934 272.803 265.488C275.433 261.168 281.443 262.272 281.443 262.272C281.443 262.272 289.728 258.595 294.211 260.65C298.694 262.704 303.283 261.11 304.905 263.011C306.528 264.912 305.529 272.285 305.529 272.285L305.875 272.39Z" fill="white"/>
<path opacity="0.2" d="M334.954 283.45L305.875 272.39L305.51 272.246C305.51 272.246 305.616 271.478 305.702 270.326L305.098 274.099L300.797 279.936C305.394 281.629 309.883 283.604 314.237 285.85C316.321 286.966 318.022 288.684 319.118 290.779C320.213 292.875 320.653 295.251 320.381 297.6L315.024 343.44L312.826 369.466L319.459 376.349C326.448 374.102 351.245 364.829 364.406 343.056C364.406 343.094 351.658 301.306 334.954 283.45ZM329.501 351.61C328.493 352.128 332.381 341.328 330.538 338.88C328.694 336.432 323.136 336.662 323.136 336.662L323.606 333.715L326.899 316.819L327.994 315.523C327.994 315.523 339.302 334.906 341.328 341.741C341.328 341.76 329.002 351.61 329.501 351.61Z" fill="black"/>
<path opacity="0.2" d="M266.755 338.88L262.234 323.77C262.234 323.77 254.122 296.112 248.563 289.296L250.022 308.746C250.022 308.746 245.222 331.978 240.835 338.88C236.448 345.782 235.469 347.52 240.835 347.52C246.202 347.52 259.267 357.926 259.267 357.926L258.259 349.286L266.755 338.88ZM255.36 344.726L251.722 341.52L260.861 319.046L264.758 336.326C264.758 336.326 258.499 335.856 256.358 337.363C254.218 338.87 255.36 344.726 255.36 344.726Z" fill="black"/>
<path d="M276.95 254.669C276.95 254.669 277.776 262.819 276.95 266.544" stroke="#263238" stroke-width="1.10311" stroke-linecap="round" stroke-linejoin="round"/>
<path d="M301.545 265.45C301.554 262.829 301.857 260.217 302.448 257.664" stroke="#263238" stroke-width="1.10311" stroke-linecap="round" stroke-linejoin="round"/>
<path d="M303.725 219.437C303.725 219.437 308.659 225.629 308.4 230.314C308.141 234.998 307.776 240.547 307.901 245.981C308.026 251.414 299.174 262.8 294.624 263.808C290.074 264.816 286.157 265.075 283.248 262.166C280.339 259.258 277.43 255.216 273.648 250.032C269.866 244.848 270.768 233.472 270.768 233.472" stroke="#263238" stroke-width="1.10311" stroke-linecap="round" stroke-linejoin="round"/>
<path d="M291.84 237.802C291.539 239.503 291.411 241.23 291.456 242.957C291.357 244.412 291.809 245.852 292.723 246.989C293.27 247.546 294.058 247.997 294.163 248.765C294.161 249.11 294.065 249.449 293.885 249.745C293.706 250.04 293.451 250.282 293.146 250.445C292.53 250.755 291.937 251.108 291.37 251.501" stroke="#263238" stroke-width="1.10311" stroke-linecap="round" stroke-linejoin="round"/>
<path d="M284.035 252.096C284.035 252.096 284.602 255.773 289.526 256.541" stroke="#263238" stroke-width="1.10311" stroke-linecap="round" stroke-linejoin="round"/>
<path d="M284.544 240.605C284.544 241.67 284.083 242.525 283.517 242.525C282.951 242.525 282.49 241.67 282.49 240.605C282.49 239.539 282.951 238.685 283.517 238.685C284.083 238.685 284.544 239.549 284.544 240.605Z" fill="#263238"/>
<path d="M299.241 241.066C299.241 242.131 298.781 242.986 298.214 242.986C297.648 242.986 297.187 242.122 297.187 241.066C297.187 240.01 297.648 239.146 298.214 239.146C298.781 239.146 299.241 240 299.241 241.066Z" fill="#263238"/>
<path d="M296.275 236.41C296.275 236.41 301.075 231.61 305.098 236.966" stroke="#263238" stroke-width="2.20621" stroke-linecap="round" stroke-linejoin="round"/>
<path d="M286.166 236.506C286.166 236.506 283.133 233.107 278.352 236.506" stroke="#263238" stroke-width="2.20621" stroke-linecap="round" stroke-linejoin="round"/>
<path d="M277.315 259.2C277.315 259.2 280.243 267.264 286.781 269.558C293.318 271.853 301.997 259.958 301.997 259.958L301.545 258.413C301.545 258.413 295.853 265.805 289.526 264.547C283.2 263.29 276.95 254.707 276.95 254.707L277.315 259.2Z" fill="#263238"/>
<path d="M271.449 244.656C271.449 244.656 267.552 246.029 266.515 242.995C265.478 239.962 261.926 231.965 265.037 229.296C268.147 226.627 270.643 232.819 270.643 232.819" stroke="#263238" stroke-width="1.10311" stroke-linecap="round" stroke-linejoin="round"/>
<path d="M307.891 246.307C307.891 246.307 311.51 247.037 312.547 244.003C313.584 240.97 317.136 232.973 314.025 230.304C310.915 227.635 308.419 233.827 308.419 233.827" stroke="#263238" stroke-width="1.10311" stroke-linecap="round" stroke-linejoin="round"/>
<path d="M270.643 240.605C271.997 240.391 273.219 239.671 274.061 238.589C274.575 237.639 274.901 236.599 275.021 235.526C275.377 233.485 275.557 231.416 275.558 229.344C275.516 228.534 275.59 227.723 275.779 226.934C276.067 226.141 276.511 225.413 277.085 224.794C278.438 223.2 280.08 221.856 281.376 220.205C282.071 219.426 282.599 218.513 282.929 217.523C283.259 216.532 283.384 215.485 283.296 214.445C286.266 216.894 289.736 218.662 293.463 219.626C297.19 220.589 301.082 220.725 304.867 220.022C311.731 218.678 318.307 212.659 317.51 205.094C317.36 203.826 316.816 202.637 315.955 201.693C315.094 200.75 313.96 200.099 312.71 199.834C309.322 198.989 306.278 200.794 303.206 201.955C297.61 204.067 292.128 200.438 286.474 199.834C281.674 199.306 275.693 199.91 273.178 204.72C273.178 204.72 264.538 205.738 260.698 212.88C256.858 220.022 264.125 229.901 264.125 229.901C264.125 229.901 267.005 226.368 270.778 233.51L270.643 240.605Z" fill="#263238"/>
<path d="M304.32 217.613C304.32 217.613 302.074 229.325 307.939 234.998C307.939 234.998 309.226 231.475 310.522 230.611C311.456 228.533 311.852 226.252 311.672 223.981C311.493 221.709 310.744 219.519 309.494 217.613C305.155 210.797 304.32 217.613 304.32 217.613Z" fill="#263238"/>
<path opacity="0.2" d="M315.014 204.288C314.499 205.886 313.626 207.345 312.462 208.555C311.297 209.764 309.872 210.692 308.294 211.267C300.154 214.589 292.253 210.912 284.093 210.192C277.44 209.597 270.096 215.606 269.625 222.442" stroke="white" stroke-width="1.10311" stroke-linecap="round" stroke-linejoin="round"/>
<path opacity="0.2" d="M264.605 220.637C264.705 217.939 265.57 215.326 267.1 213.103C268.63 210.879 270.761 209.137 273.245 208.08" stroke="white" stroke-width="1.10311" stroke-linecap="round" stroke-linejoin="round"/>
<path d="M275.069 265.45C278.649 269.181 282.968 272.123 287.75 274.09C287.75 274.09 297.494 271.258 302.448 264.49" stroke="#263238" stroke-width="1.10311" stroke-linecap="round" stroke-linejoin="round"/>
<path d="M285.027 248.422C289.354 246.437 291.253 241.319 289.268 236.992C287.283 232.664 282.166 230.765 277.838 232.75C273.511 234.735 271.612 239.852 273.597 244.18C275.582 248.507 280.699 250.407 285.027 248.422Z" stroke="#263238" stroke-width="1.10311" stroke-linecap="round" stroke-linejoin="round"/>
<path d="M301.732 249.18C306.457 248.6 309.818 244.299 309.237 239.573C308.657 234.848 304.356 231.487 299.63 232.067C294.905 232.648 291.544 236.949 292.124 241.674C292.705 246.4 297.006 249.761 301.732 249.18Z" stroke="#263238" stroke-width="1.10311" stroke-linecap="round" stroke-linejoin="round"/>
<path d="M276.95 262.234C276.077 262.463 275.259 262.866 274.545 263.418C273.83 263.971 273.235 264.662 272.794 265.45C271.267 268.138 272.189 276.595 272.189 276.595C272.189 276.595 280.07 284.39 286.781 287.683L288.758 276.557L291.83 287.683C291.83 287.683 302.218 280.339 305.098 274.128C305.098 274.128 306.058 266.88 305.098 264.528C304.879 263.875 304.464 263.305 303.909 262.898C303.353 262.49 302.685 262.265 301.997 262.253" stroke="#263238" stroke-width="1.10311" stroke-linecap="round" stroke-linejoin="round"/>
<path d="M264.605 336.672C264.605 336.672 261.523 316.032 257.424 307.613" stroke="#263238" stroke-width="1.10311" stroke-linecap="round" stroke-linejoin="round"/>
<path d="M248.563 289.296C250.95 292.688 253.08 296.253 254.937 299.962" stroke="#263238" stroke-width="1.10311" stroke-linecap="round" stroke-linejoin="round"/>
<path d="M329.501 304.704C330.329 301.253 331.463 297.883 332.89 294.634" stroke="#263238" stroke-width="1.10311" stroke-linecap="round" stroke-linejoin="round"/>
<path d="M323.136 336.672C323.136 336.672 325.353 322.522 328.003 310.867" stroke="#263238" stroke-width="1.10311" stroke-linecap="round" stroke-linejoin="round"/>
<path d="M326.899 316.8C329.042 313.958 332.056 311.895 335.481 310.925" stroke="#263238" stroke-width="1.10311" stroke-linecap="round" stroke-linejoin="round"/>
<path d="M305.52 272.246C305.52 272.246 323.405 279.398 334.954 283.459C334.954 283.459 349.162 296.813 364.397 343.094C364.397 343.094 350.438 366.576 323.885 374.102" stroke="#263238" stroke-width="1.10311" stroke-linecap="round" stroke-linejoin="round"/>
<path d="M328.493 352.445L341.328 341.76C341.328 341.76 348.115 336.605 355.171 340.128" stroke="#263238" stroke-width="1.10311" stroke-linecap="round" stroke-linejoin="round"/>
<path d="M328.003 315.523C328.003 315.523 338.611 331.2 341.328 341.76" stroke="#263238" stroke-width="1.10311" stroke-linecap="round" stroke-linejoin="round"/>
<path d="M255.504 345.322L251.751 341.76C251.751 341.76 246.183 340.8 239.866 345.014" stroke="#263238" stroke-width="1.10311" stroke-linecap="round" stroke-linejoin="round"/>
<path d="M251.75 341.76C251.75 341.76 256.416 326.4 261.015 318.538" stroke="#263238" stroke-width="1.10311" stroke-linecap="round" stroke-linejoin="round"/>
<path d="M271.92 274.128C271.92 274.128 246.182 283.786 243.657 286.608C241.133 289.43 231.542 343.43 231.283 349.613C231.062 355.142 251.107 367.555 261.043 372.787" stroke="#263238" stroke-width="1.10311" stroke-linecap="round" stroke-linejoin="round"/>
<path d="M291.168 292.378C291.168 292.714 291.068 293.042 290.882 293.322C290.695 293.601 290.429 293.819 290.119 293.947C289.808 294.076 289.467 294.11 289.137 294.044C288.808 293.979 288.505 293.817 288.267 293.579C288.03 293.341 287.868 293.039 287.802 292.709C287.737 292.379 287.77 292.038 287.899 291.727C288.027 291.417 288.245 291.151 288.525 290.965C288.804 290.778 289.133 290.678 289.469 290.678C289.692 290.677 289.914 290.72 290.12 290.805C290.327 290.89 290.515 291.015 290.673 291.173C290.831 291.331 290.956 291.519 291.041 291.726C291.126 291.933 291.169 292.154 291.168 292.378Z" fill="#263238"/>
<path d="M320.947 382.829H262.387C262.023 382.829 261.674 382.684 261.416 382.427C261.159 382.169 261.014 381.82 261.014 381.456C261.014 381.092 261.159 380.743 261.416 380.485C261.674 380.228 262.023 380.083 262.387 380.083H320.947C321.311 380.083 321.66 380.228 321.918 380.485C322.175 380.743 322.32 381.092 322.32 381.456C322.32 381.82 322.175 382.169 321.918 382.427C321.66 382.684 321.311 382.829 320.947 382.829Z" fill="#263238"/>
<path d="M323.001 378.24L330.845 341.376C330.966 340.804 330.959 340.213 330.822 339.645C330.686 339.076 330.424 338.546 330.055 338.092C329.687 337.638 329.222 337.273 328.694 337.022C328.166 336.771 327.589 336.642 327.005 336.643H258.557C257.977 336.643 257.405 336.772 256.881 337.02C256.358 337.268 255.896 337.629 255.528 338.077C255.161 338.525 254.898 339.049 254.757 339.611C254.617 340.174 254.603 340.76 254.717 341.328L261.753 376.963C261.926 377.838 262.392 378.628 263.075 379.203C263.757 379.777 264.615 380.101 265.507 380.122L319.065 381.35C319.981 381.371 320.875 381.071 321.593 380.503C322.312 379.936 322.81 379.135 323.001 378.24Z" fill="white" stroke="#263238" stroke-width="1.10311" stroke-linecap="round" stroke-linejoin="round"/>
<path d="M298.022 357.917C298.021 358.997 297.699 360.052 297.097 360.949C296.496 361.846 295.642 362.545 294.644 362.957C293.646 363.369 292.547 363.475 291.489 363.263C290.43 363.052 289.457 362.531 288.694 361.766C287.931 361.002 287.412 360.029 287.202 358.969C286.992 357.91 287.101 356.812 287.514 355.815C287.928 354.817 288.628 353.965 289.526 353.365C290.424 352.765 291.48 352.445 292.56 352.445C293.278 352.445 293.989 352.586 294.653 352.862C295.316 353.137 295.919 353.54 296.426 354.048C296.933 354.556 297.335 355.16 297.609 355.824C297.883 356.487 298.024 357.199 298.022 357.917Z" fill="#263238"/>
<path d="M308.765 340.166H316.896" stroke="#263238" stroke-width="1.10311" stroke-linecap="round" stroke-linejoin="round"/>
<path d="M269.933 340.166H300.797" stroke="#263238" stroke-width="1.10311" stroke-linecap="round" stroke-linejoin="round"/>
<path d="M323.136 417.379L316.896 433.757C316.896 433.757 300.979 429.744 280.598 425.568C259.277 421.2 237.014 415.546 225.465 395.28C224.064 392.813 223.123 389.894 223.785 387.13C225.446 380.131 234.557 378.23 240.557 377.53C244.329 377.122 248.119 376.91 251.913 376.896C253.833 376.896 260.218 375.85 261.763 376.992C264.085 378.686 266.564 380.155 269.165 381.379C272.573 382.829 322.32 380.083 322.32 380.083C323.185 378.196 323.715 376.172 323.885 374.102C331.709 370.128 349.805 366.768 357.485 368.256C369.514 370.589 376.531 377.606 375.197 384.96C373.862 392.314 347.29 412.032 323.136 417.379Z" fill="#263238"/>
<path d="M323.136 417.379C323.136 417.379 307.997 413.366 295.632 405.014C283.267 396.662 273.609 386.966 256.377 388.973" stroke="white" stroke-width="1.10311" stroke-linecap="round" stroke-linejoin="round"/>
<path d="M292.8 403.046C300.614 400.8 306.345 395.741 312.614 390.893C319.226 385.586 326.327 380.919 333.821 376.954" stroke="white" stroke-width="1.10311" stroke-linecap="round" stroke-linejoin="round"/>
<path d="M290.045 241.968H292.339" stroke="#263238" stroke-width="1.10311" stroke-linecap="round" stroke-linejoin="round"/>
</svg>
