<svg width="301" height="336" viewBox="0 0 301 336" fill="none" xmlns="http://www.w3.org/2000/svg">
<g clip-path="url(#clip0_86_179)">
<path d="M291.271 123.841H9.47075C6.95984 123.838 4.5526 122.882 2.77711 121.183C1.00163 119.484 0.00289929 117.18 0 114.777V9.06392C0.00289929 6.66087 1.00163 4.35704 2.77711 2.65782C4.5526 0.958608 6.95984 0.00277475 9.47075 0H291.271C293.782 0.00277475 296.19 0.958608 297.965 2.65782C299.741 4.35704 300.739 6.66087 300.742 9.06392V114.777C300.739 117.18 299.741 119.484 297.965 121.183C296.19 122.882 293.782 123.838 291.271 123.841Z" fill="#F2F2F2"/>
<path d="M225.549 118.06H54.2022C41.4337 118.046 29.1923 113.186 20.1635 104.545C11.1348 95.9038 6.05615 84.1882 6.04175 71.9682V51.8776C6.05614 39.6575 11.1348 27.9418 20.1635 19.3009C29.1922 10.66 41.4337 5.79938 54.2022 5.78552H246.541C259.31 5.79938 271.551 10.66 280.58 19.3009C289.609 27.9418 294.688 39.6575 294.702 51.8776C294.681 69.4241 287.389 86.2463 274.425 98.6536C261.46 111.061 243.883 118.04 225.549 118.06Z" fill="white"/>
<path d="M181.349 36.0476H68.0862C67.4384 36.0476 66.8171 35.8013 66.3591 35.3629C65.901 34.9246 65.6437 34.33 65.6437 33.71C65.6437 33.0901 65.901 32.4955 66.3591 32.0571C66.8171 31.6187 67.4384 31.3724 68.0862 31.3724H181.349C181.996 31.3724 182.618 31.6187 183.076 32.0571C183.534 32.4955 183.791 33.0901 183.791 33.71C183.791 34.33 183.534 34.9246 183.076 35.3629C182.618 35.8013 181.996 36.0476 181.349 36.0476Z" fill="#E6E6E6"/>
<path d="M238.684 60.9881H68.0862C67.4384 60.9881 66.8171 60.7418 66.3591 60.3034C65.901 59.8651 65.6437 59.2705 65.6437 58.6505C65.6437 58.0305 65.901 57.436 66.3591 56.9976C66.8171 56.5592 67.4384 56.3129 68.0862 56.3129H238.684C239.332 56.3129 239.953 56.5592 240.411 56.9976C240.869 57.436 241.126 58.0305 241.126 58.6505C241.126 59.2705 240.869 59.8651 240.411 60.3034C239.953 60.7418 239.332 60.9881 238.684 60.9881Z" fill="#E6E6E6"/>
<path d="M238.684 85.9287H68.0862C67.4384 85.9287 66.8171 85.6824 66.3591 85.244C65.901 84.8056 65.6437 84.211 65.6437 83.5911C65.6437 82.9711 65.901 82.3765 66.3591 81.9381C66.8171 81.4998 67.4384 81.2535 68.0862 81.2535H238.684C239.332 81.2535 239.953 81.4998 240.411 81.9381C240.869 82.3765 241.126 82.9711 241.126 83.5911C241.126 84.211 240.869 84.8056 240.411 85.244C239.953 85.6824 239.332 85.9287 238.684 85.9287Z" fill="#E6E6E6"/>
<path d="M238.684 85.9287H68.0862C67.4384 85.9287 66.8171 85.6824 66.3591 85.244C65.901 84.8056 65.6437 84.211 65.6437 83.5911C65.6437 82.9711 65.901 82.3765 66.3591 81.9381C66.8171 81.4998 67.4384 81.2535 68.0862 81.2535H238.684C239.332 81.2535 239.953 81.4998 240.411 81.9381C240.869 82.3765 241.126 82.9711 241.126 83.5911C241.126 84.211 240.869 84.8056 240.411 85.244C239.953 85.6824 239.332 85.9287 238.684 85.9287Z" fill="#E6E6E6"/>
<path d="M169.397 63.8507C169.424 64.5548 169.612 65.2447 169.948 65.8717C170.284 66.4987 170.759 67.0476 171.341 67.4797C171.922 67.9119 172.595 68.2167 173.313 68.3728C174.031 68.5289 174.776 68.5325 175.496 68.3832L184.811 83.0078L188.775 74.9566L179.322 62.3032C178.98 61.163 178.212 60.1825 177.165 59.5476C176.118 58.9126 174.864 58.6672 173.641 58.8579C172.418 59.0487 171.31 59.6623 170.528 60.5825C169.745 61.5026 169.343 62.6655 169.397 63.8507Z" fill="#FFB6B6"/>
<path d="M239.298 105.764L207.197 89.0997L197.072 80.0082C197.072 80.0082 192.67 78.8804 194.291 77.5106C195.911 76.1409 191.294 74.8199 191.294 74.8199L185.858 69.9393L178.135 75.1696L180.37 78.4857C180.37 78.4857 180.216 83.9755 183.359 82.9194C186.501 81.8632 185.716 86.4163 185.716 86.4163L204.472 114.242L239.298 105.764Z" fill="#3F3D56"/>
<path d="M144.541 90.0637C161.857 90.0637 175.895 76.6288 175.895 60.056C175.895 43.4832 161.857 30.0483 144.541 30.0483C127.224 30.0483 113.186 43.4832 113.186 60.056C113.186 76.6288 127.224 90.0637 144.541 90.0637Z" fill="#F50057"/>
<path d="M239.397 324.333H232.878L229.775 300.267H239.397V324.333Z" fill="#FFB6B6"/>
<path d="M242.838 335.144H238.163L237.328 330.919L235.191 335.144H222.791C222.197 335.144 221.618 334.962 221.139 334.625C220.66 334.288 220.307 333.813 220.13 333.27C219.953 332.727 219.962 332.144 220.156 331.606C220.35 331.068 220.718 330.604 221.207 330.281L231.109 323.736V319.465L241.525 320.06L242.838 335.144Z" fill="#2F2E41"/>
<path d="M187.255 324.333H180.735L177.633 300.267H187.255V324.333Z" fill="#FFB6B6"/>
<path d="M190.696 335.144H186.021L185.186 330.919L183.049 335.144H170.649C170.054 335.144 169.475 334.962 168.997 334.625C168.518 334.288 168.164 333.813 167.987 333.27C167.81 332.727 167.82 332.144 168.013 331.606C168.207 331.068 168.576 330.604 169.065 330.281L178.967 323.736V319.465L189.383 320.06L190.696 335.144Z" fill="#2F2E41"/>
<path d="M232.48 142.323H199.574V178.175H232.48V142.323Z" fill="#FFB6B6"/>
<path d="M200.334 160.007L194.765 166.305L185.147 185.685L160.911 240.873L155.785 252.545L159.924 273.177C159.924 273.177 160.594 287.713 160.594 290.093C160.594 294.938 164.828 297.622 164.828 297.622L167.935 313.106L198.056 311.895C198.056 311.895 197.005 294.827 190.696 290.522C184.387 286.217 181.487 263.78 181.487 263.78L178.059 253.825L211.471 215.92L211.687 229.17L211.791 235.583C211.791 235.583 206.898 277.294 212.602 285.389C218.305 293.484 212.718 292.532 212.718 292.532L212.99 309.23L248.679 309.472L240.806 261.397C240.806 261.397 236.808 258.376 238.947 255.339C241.086 252.302 236.873 248.583 236.873 248.583L238.763 211.052C238.763 211.052 236.671 204.57 239.131 203.727C241.592 202.884 239.454 197.31 239.454 197.31L239.82 190.045L232.48 167.517L200.334 160.007Z" fill="#2F2E41"/>
<path d="M232.986 142.323L236.53 132.149L239.061 128.757L240.073 119.067C240.073 92.905 233.976 97.2616 233.976 97.2616L230.455 88.06L214.255 87.5756L203.877 97.0231L195.271 99.9301L191.901 116.689L198.056 134.571L199.574 144.261C196.677 149.38 196.922 146.958 199.321 150.802L227.924 158.311C238.048 161.703 238.048 152.982 236.018 150.802C233.988 148.621 232.986 142.323 232.986 142.323Z" fill="#3F3D56"/>
<path d="M220.262 84.3233C228.556 84.3233 235.28 77.8885 235.28 69.9508C235.28 62.0131 228.556 55.5783 220.262 55.5783C211.968 55.5783 205.245 62.0131 205.245 69.9508C205.245 77.8885 211.968 84.3233 220.262 84.3233Z" fill="#FFB6B6"/>
<path d="M240.311 89.1356C240.453 89.3641 240.538 89.6202 240.562 89.8848C240.586 90.1495 240.547 90.4158 240.448 90.664C240.349 90.9122 240.193 91.1359 239.992 91.3184C239.79 91.5008 239.548 91.6374 239.283 91.718C237.269 92.3575 236.028 94.2228 234.581 95.715C233.138 97.2024 230.814 98.4379 228.971 97.4252C227.134 96.4175 227.007 93.8449 225.468 92.4496C223.97 91.093 221.479 91.2577 219.717 92.2897L219.665 92.3207C219.361 92.5104 219.005 92.6107 218.642 92.6091C218.279 92.6075 217.925 92.5042 217.622 92.3118C217.32 92.1194 217.083 91.8464 216.941 91.5267C216.799 91.2069 216.759 90.8543 216.824 90.5126C217.441 87.3708 218.058 84.2293 218.675 81.0882C217.054 84.8238 214.702 88.2281 211.744 91.1172C210.93 92.017 209.897 92.7123 208.737 93.1424C207.684 93.4621 206.662 92.4205 205.639 92.6094C208.18 90.4825 216.726 76.8489 215.197 67.7356C213.4 67.9294 211.602 68.1233 209.805 68.317C209.611 67.5031 209.195 66.7527 208.601 66.1417C208.673 66.9339 208.568 67.7317 208.292 68.4818C207.542 68.5641 206.788 68.6417 206.039 68.724C204.996 68.8355 203.862 68.9323 202.966 68.4091C201.473 67.537 201.427 65.4731 201.852 63.8452C203.098 59.1117 206.874 55.1534 211.496 53.0798C216.118 51.011 217.485 55.6185 222.355 54.1457C231.973 51.2388 239.344 56.2097 241.941 65.4343C244.123 73.1717 242.539 81.3838 240.311 89.1356Z" fill="#2F2E41"/>
<path d="M281.887 335.456H263.498L263.419 335.319C263.184 334.911 262.957 334.479 262.745 334.034C260.851 330.153 260.05 325.715 259.344 321.799L258.812 318.847C258.747 318.489 258.796 318.121 258.951 317.79C259.106 317.46 259.361 317.18 259.683 316.989C260.005 316.797 260.379 316.702 260.758 316.716C261.137 316.729 261.503 316.85 261.809 317.064C264.604 319.01 267.4 320.954 270.196 322.896C271.255 323.634 272.465 324.487 273.623 325.41C273.735 324.89 273.852 324.369 273.969 323.856C274.049 323.501 274.239 323.177 274.512 322.926C274.786 322.675 275.132 322.508 275.506 322.446C275.88 322.384 276.264 322.43 276.61 322.579C276.957 322.727 277.248 322.971 277.449 323.28L279.6 326.588C281.17 329.004 282.555 331.384 282.272 333.952C282.274 333.983 282.271 334.015 282.265 334.045C282.209 334.467 282.104 334.881 281.953 335.281L281.887 335.456Z" fill="#F0F0F0"/>
<path d="M300.344 335.837L125.603 336C125.428 335.999 125.261 335.932 125.138 335.814C125.015 335.696 124.946 335.536 124.946 335.369C124.946 335.202 125.015 335.042 125.138 334.923C125.261 334.805 125.428 334.738 125.603 334.737L300.344 334.574C300.518 334.575 300.685 334.642 300.808 334.76C300.931 334.879 301 335.039 301 335.206C301 335.373 300.931 335.533 300.808 335.651C300.685 335.769 300.518 335.836 300.344 335.837Z" fill="#CACACA"/>
<path d="M141.691 100.444L122.47 84.9096C121.813 84.3774 121.403 83.6175 121.331 82.7967C121.259 81.9758 121.529 81.1611 122.084 80.5311L125.622 76.522C126.178 75.8932 126.972 75.5012 127.83 75.432C128.687 75.3628 129.539 75.6221 130.197 76.1529L149.418 91.6874C150.075 92.2196 150.484 92.9795 150.556 93.8003C150.629 94.6212 150.358 95.4359 149.803 96.0659L146.266 100.075C145.71 100.704 144.916 101.096 144.058 101.165C143.2 101.234 142.349 100.975 141.691 100.444Z" fill="#3F3D56"/>
<path d="M123.478 80.8543C123.179 81.1938 123.034 81.6329 123.072 82.0752C123.111 82.5176 123.332 82.927 123.686 83.2138L142.907 98.7484C143.262 99.0344 143.72 99.1741 144.183 99.1368C144.645 99.0995 145.073 98.8883 145.372 98.5495L148.91 94.5404C149.209 94.2009 149.355 93.7618 149.316 93.3195C149.277 92.8772 149.056 92.4677 148.702 92.1809L129.481 76.6463C129.127 76.3603 128.668 76.2207 128.206 76.2579C127.743 76.2952 127.316 76.5064 127.016 76.8453L123.478 80.8543Z" fill="white"/>
<path d="M134.762 86.8933C134.695 86.9826 134.608 87.0558 134.507 87.1072C134.405 87.1585 134.293 87.1865 134.178 87.189L131.158 87.2554C131.061 87.2575 130.964 87.2414 130.874 87.2078C130.783 87.1742 130.701 87.1239 130.631 87.0598C130.56 86.9956 130.504 86.9189 130.465 86.8339C130.426 86.7489 130.404 86.6574 130.402 86.5646C130.4 86.4717 130.417 86.3794 130.452 86.2928C130.487 86.2062 130.54 86.127 130.607 86.0599C130.674 85.9927 130.754 85.9388 130.843 85.9013C130.931 85.8638 131.027 85.8434 131.124 85.8413L133.1 85.7978L131.154 80.8843C131.085 80.7091 131.092 80.5148 131.172 80.3441C131.253 80.1734 131.401 80.0403 131.584 79.9739C131.767 79.9076 131.97 79.9134 132.148 79.9901C132.327 80.0668 132.466 80.2081 132.536 80.383L134.852 86.2313C134.894 86.3371 134.909 86.451 134.895 86.5633C134.882 86.6757 134.84 86.7833 134.774 86.8772L134.762 86.8933Z" fill="#F50057"/>
<path d="M135.15 88.128C135.878 88.2304 136.574 88.4844 137.189 88.8721C137.804 89.2598 138.322 89.7718 138.708 90.3721C139.093 90.9723 139.337 91.6461 139.421 92.3461C139.505 93.0461 139.428 93.7552 139.194 94.4235L153.372 104.875L144.578 107.772L132.463 97.4023C131.316 96.9528 130.381 96.1163 129.835 95.0512C129.29 93.9861 129.171 92.7664 129.502 91.6232C129.833 90.48 130.591 89.4928 131.632 88.8487C132.673 88.2045 133.924 87.9481 135.15 88.128Z" fill="#FFB6B6"/>
<path d="M208.961 93.296L172.662 114.655C172.662 114.655 158.027 109.473 160.887 107.074C163.747 104.675 154.642 103.053 154.642 103.053L144.583 96.5761L138.746 103.068C138.746 103.068 139.809 113.613 141.619 111.787C143.429 109.962 146.133 114.949 146.133 114.949C146.133 114.949 146.933 120.519 152.084 119.117C157.235 117.716 171.058 132.407 171.058 132.407L215.731 116.461L208.961 93.296Z" fill="#3F3D56"/>
<path d="M143.438 72.0933C143.017 72.0933 142.602 71.9995 142.226 71.8194C141.85 71.6392 141.522 71.3776 141.27 71.0554L134.622 62.5719C134.408 62.2994 134.253 61.9892 134.164 61.6592C134.076 61.3292 134.056 60.9858 134.107 60.6485C134.157 60.3113 134.276 59.9868 134.458 59.6937C134.639 59.4006 134.879 59.1445 135.164 58.9401C135.739 58.5273 136.462 58.3501 137.174 58.4474C137.526 58.4956 137.865 58.6097 138.171 58.7833C138.478 58.9569 138.745 59.1865 138.959 59.459L143.308 65.0087L154.479 48.9724C154.878 48.3999 155.498 48.0025 156.203 47.8675C156.908 47.7326 157.64 47.8712 158.238 48.2529C158.836 48.6345 159.252 49.228 159.393 49.9026C159.534 50.5773 159.389 51.278 158.99 51.8505L145.694 70.938C145.453 71.2832 145.13 71.5682 144.75 71.7691C144.371 71.97 143.947 72.0809 143.513 72.0925C143.488 72.0929 143.463 72.0933 143.438 72.0933Z" fill="white"/>
</g>
<defs>
<clipPath id="clip0_86_179">
<rect width="301" height="336" fill="white"/>
</clipPath>
</defs>
</svg>
