<svg width="577" height="380" viewBox="0 0 577 380" fill="none" xmlns="http://www.w3.org/2000/svg">
<g clip-path="url(#clip0_86_29)">
<path d="M336.101 66.9896C346.916 66.9896 355.682 59.0515 355.682 49.2593C355.682 39.4672 346.916 31.5291 336.101 31.5291C325.287 31.5291 316.521 39.4672 316.521 49.2593C316.521 59.0515 325.287 66.9896 336.101 66.9896Z" fill="#F2F2F2"/>
<path d="M487.994 330.127C517.098 310.054 530.999 276.323 522.296 244.146C522.08 243.346 521.852 242.549 521.612 241.753C515.842 222.653 501.568 204.5 480.765 198.397C463.297 193.273 444.231 197.213 426.008 195.176C390.235 191.175 362.501 164.966 342.986 137.524C323.472 110.083 308.474 79.3659 282.544 56.6951C239.802 19.3262 170.079 11.2807 117.085 35.605C64.0908 59.9295 30.3342 113.895 31.7738 167.679C33.2135 221.462 68.4743 272.883 119.682 300.165C138.493 310.188 160.251 317.288 181.904 314.803C200.692 312.647 217.763 303.506 236.463 300.792C265.863 296.525 295.076 308.562 320.504 322.588C345.933 336.615 370.496 353.24 399.392 359.743C427.451 366.057 462.212 347.909 487.994 330.127Z" fill="#F2F2F2"/>
<path d="M446.178 36.7345C445.54 36.3494 444.895 35.9841 444.257 35.6123C425.814 24.9318 406.047 16.255 385.363 9.76133L380.567 69.6707H350.163V1.01597C348.249 0.657395 346.32 0.318737 344.392 0V69.6707H308.26C288.37 69.6707 269.294 62.5158 255.229 49.7801C241.164 37.0443 233.262 19.7709 233.262 1.75977C231.326 2.13827 229.405 2.54328 227.484 2.9749V69.6707H198.055L193.486 12.5437C172.231 19.9253 152.051 29.6325 133.397 41.4492C133.075 41.6484 132.752 41.8542 132.437 42.0534C130.816 43.0827 129.217 44.1319 127.626 45.1943V273.749H214.357L212.824 254.525L204.391 148.977H374.223L365.79 254.525L364.257 273.749H450.028V39.0454C448.752 38.2618 447.469 37.4915 446.178 36.7345ZM227.484 131.546H202.998L198.473 74.9033H227.484V131.546ZM344.392 131.546H303.266V130.423C303.266 129.884 303.149 129.35 302.921 128.851C302.692 128.353 302.358 127.9 301.936 127.519C301.515 127.138 301.014 126.836 300.464 126.63C299.913 126.424 299.323 126.319 298.727 126.32H280.848C280.253 126.319 279.664 126.425 279.114 126.632C278.564 126.838 278.064 127.14 277.643 127.521C277.222 127.902 276.889 128.355 276.661 128.853C276.433 129.351 276.316 129.884 276.316 130.423V131.546H233.262V74.9033H344.392V131.546ZM350.163 131.546V74.9033H380.149L375.624 131.546H350.163Z" fill="#3F3D56"/>
<path d="M0 288.385C6.37064 295.22 13.2612 301.644 20.6213 307.609L556.379 308.273C563.739 302.308 570.629 295.884 577 289.049L0 288.385Z" fill="#3F3D56"/>
<path d="M363.314 226.829V283.74C363.315 284.465 363.634 285.16 364.2 285.673C364.766 286.186 365.534 286.474 366.335 286.475H459.471C460.272 286.474 461.04 286.186 461.607 285.673C462.173 285.16 462.492 284.465 462.492 283.74V226.829C462.49 226.105 462.171 225.41 461.605 224.898C461.039 224.386 460.272 224.098 459.471 224.097H366.335C365.535 224.098 364.768 224.386 364.201 224.898C363.635 225.41 363.316 226.105 363.314 226.829Z" fill="#3F3D56"/>
<path d="M365.499 227.537V283.038C365.5 283.425 365.67 283.796 365.973 284.07C366.276 284.344 366.686 284.499 367.114 284.499H458.696C459.124 284.499 459.534 284.344 459.837 284.07C460.14 283.796 460.31 283.425 460.311 283.038V227.537C460.311 227.149 460.141 226.777 459.838 226.502C459.535 226.228 459.125 226.073 458.696 226.072H367.114C366.685 226.073 366.275 226.228 365.972 226.502C365.669 226.777 365.499 227.149 365.499 227.537Z" fill="#FF6363"/>
<path d="M361.367 294.839C361.537 295.032 361.754 295.189 362.001 295.295C362.248 295.402 362.518 295.457 362.792 295.456H462.519C462.792 295.456 463.061 295.4 463.307 295.294C463.553 295.188 463.77 295.033 463.942 294.841C464.114 294.649 464.236 294.425 464.3 294.185C464.364 293.945 464.369 293.695 464.313 293.454L462.765 286.795C462.701 286.524 462.562 286.271 462.363 286.06C462.163 285.849 461.909 285.687 461.622 285.588C461.415 285.514 461.194 285.477 460.971 285.477H364.334C364.111 285.477 363.89 285.514 363.683 285.588C363.396 285.687 363.141 285.849 362.942 286.06C362.742 286.271 362.604 286.524 362.54 286.795L360.992 293.454C360.937 293.695 360.942 293.945 361.007 294.184C361.071 294.424 361.194 294.647 361.367 294.839Z" fill="#2F2E41"/>
<path d="M457.549 288.345H459.905C460.102 288.345 460.263 288.2 460.263 288.021V287C460.263 286.821 460.102 286.676 459.905 286.676H457.549C457.351 286.676 457.191 286.821 457.191 287V288.021C457.191 288.2 457.351 288.345 457.549 288.345Z" fill="#3F3D56"/>
<path d="M451.406 288.345H453.761C453.959 288.345 454.12 288.2 454.12 288.021V287C454.12 286.821 453.959 286.676 453.761 286.676H451.406C451.208 286.676 451.048 286.821 451.048 287V288.021C451.048 288.2 451.208 288.345 451.406 288.345Z" fill="#3F3D56"/>
<path d="M445.263 288.345H447.618C447.816 288.345 447.976 288.2 447.976 288.021V287C447.976 286.821 447.816 286.676 447.618 286.676H445.263C445.065 286.676 444.905 286.821 444.905 287V288.021C444.905 288.2 445.065 288.345 445.263 288.345Z" fill="#3F3D56"/>
<path d="M439.12 288.345H441.475C441.673 288.345 441.833 288.2 441.833 288.021V287C441.833 286.821 441.673 286.676 441.475 286.676H439.12C438.922 286.676 438.762 286.821 438.762 287V288.021C438.762 288.2 438.922 288.345 439.12 288.345Z" fill="#3F3D56"/>
<path d="M432.977 288.345H435.332C435.53 288.345 435.69 288.2 435.69 288.021V287C435.69 286.821 435.53 286.676 435.332 286.676H432.977C432.779 286.676 432.619 286.821 432.619 287V288.021C432.619 288.2 432.779 288.345 432.977 288.345Z" fill="#3F3D56"/>
<path d="M426.834 288.345H429.189C429.387 288.345 429.547 288.2 429.547 288.021V287C429.547 286.821 429.387 286.676 429.189 286.676H426.834C426.636 286.676 426.476 286.821 426.476 287V288.021C426.476 288.2 426.636 288.345 426.834 288.345Z" fill="#3F3D56"/>
<path d="M420.69 288.345H423.046C423.244 288.345 423.404 288.2 423.404 288.021V287C423.404 286.821 423.244 286.676 423.046 286.676H420.69C420.493 286.676 420.333 286.821 420.333 287V288.021C420.333 288.2 420.493 288.345 420.69 288.345Z" fill="#3F3D56"/>
<path d="M414.547 288.345H416.903C417.101 288.345 417.261 288.2 417.261 288.021V287C417.261 286.821 417.101 286.676 416.903 286.676H414.547C414.35 286.676 414.189 286.821 414.189 287V288.021C414.189 288.2 414.35 288.345 414.547 288.345Z" fill="#3F3D56"/>
<path d="M408.404 288.345H410.76C410.958 288.345 411.118 288.2 411.118 288.021V287C411.118 286.821 410.958 286.676 410.76 286.676H408.404C408.207 286.676 408.046 286.821 408.046 287V288.021C408.046 288.2 408.207 288.345 408.404 288.345Z" fill="#3F3D56"/>
<path d="M402.261 288.345H404.617C404.814 288.345 404.975 288.2 404.975 288.021V287C404.975 286.821 404.814 286.676 404.617 286.676H402.261C402.063 286.676 401.903 286.821 401.903 287V288.021C401.903 288.2 402.063 288.345 402.261 288.345Z" fill="#3F3D56"/>
<path d="M396.118 288.345H398.474C398.671 288.345 398.832 288.2 398.832 288.021V287C398.832 286.821 398.671 286.676 398.474 286.676H396.118C395.92 286.676 395.76 286.821 395.76 287V288.021C395.76 288.2 395.92 288.345 396.118 288.345Z" fill="#3F3D56"/>
<path d="M389.975 288.345H392.33C392.528 288.345 392.688 288.2 392.688 288.021V287C392.688 286.821 392.528 286.676 392.33 286.676H389.975C389.777 286.676 389.617 286.821 389.617 287V288.021C389.617 288.2 389.777 288.345 389.975 288.345Z" fill="#3F3D56"/>
<path d="M383.832 288.345H386.187C386.385 288.345 386.545 288.2 386.545 288.021V287C386.545 286.821 386.385 286.676 386.187 286.676H383.832C383.634 286.676 383.474 286.821 383.474 287V288.021C383.474 288.2 383.634 288.345 383.832 288.345Z" fill="#3F3D56"/>
<path d="M377.689 288.345H380.044C380.242 288.345 380.402 288.2 380.402 288.021V287C380.402 286.821 380.242 286.676 380.044 286.676H377.689C377.491 286.676 377.331 286.821 377.331 287V288.021C377.331 288.2 377.491 288.345 377.689 288.345Z" fill="#3F3D56"/>
<path d="M371.546 288.345H373.901C374.099 288.345 374.259 288.2 374.259 288.021V287C374.259 286.821 374.099 286.676 373.901 286.676H371.546C371.348 286.676 371.188 286.821 371.188 287V288.021C371.188 288.2 371.348 288.345 371.546 288.345Z" fill="#3F3D56"/>
<path d="M365.402 288.345H367.758C367.956 288.345 368.116 288.2 368.116 288.021V287C368.116 286.821 367.956 286.676 367.758 286.676H365.402C365.205 286.676 365.044 286.821 365.044 287V288.021C365.044 288.2 365.205 288.345 365.402 288.345Z" fill="#3F3D56"/>
<path d="M457.622 291.126H459.977C460.175 291.126 460.335 290.981 460.335 290.802V289.781C460.335 289.602 460.175 289.457 459.977 289.457H457.622C457.424 289.457 457.264 289.602 457.264 289.781V290.802C457.264 290.981 457.424 291.126 457.622 291.126Z" fill="#3F3D56"/>
<path d="M451.479 291.126H453.834C454.032 291.126 454.192 290.981 454.192 290.802V289.781C454.192 289.602 454.032 289.457 453.834 289.457H451.479C451.281 289.457 451.121 289.602 451.121 289.781V290.802C451.121 290.981 451.281 291.126 451.479 291.126Z" fill="#3F3D56"/>
<path d="M445.336 291.126H447.691C447.889 291.126 448.049 290.981 448.049 290.802V289.781C448.049 289.602 447.889 289.457 447.691 289.457H445.336C445.138 289.457 444.977 289.602 444.977 289.781V290.802C444.977 290.981 445.138 291.126 445.336 291.126Z" fill="#3F3D56"/>
<path d="M439.192 291.126H441.548C441.746 291.126 441.906 290.981 441.906 290.802V289.781C441.906 289.602 441.746 289.457 441.548 289.457H439.192C438.995 289.457 438.834 289.602 438.834 289.781V290.802C438.834 290.981 438.995 291.126 439.192 291.126Z" fill="#3F3D56"/>
<path d="M433.049 291.126H435.405C435.602 291.126 435.763 290.981 435.763 290.802V289.781C435.763 289.602 435.602 289.457 435.405 289.457H433.049C432.851 289.457 432.691 289.602 432.691 289.781V290.802C432.691 290.981 432.851 291.126 433.049 291.126Z" fill="#3F3D56"/>
<path d="M426.906 291.126H429.262C429.459 291.126 429.62 290.981 429.62 290.802V289.781C429.62 289.602 429.459 289.457 429.262 289.457H426.906C426.708 289.457 426.548 289.602 426.548 289.781V290.802C426.548 290.981 426.708 291.126 426.906 291.126Z" fill="#3F3D56"/>
<path d="M420.763 291.126H423.119C423.316 291.126 423.477 290.981 423.477 290.802V289.781C423.477 289.602 423.316 289.457 423.119 289.457H420.763C420.565 289.457 420.405 289.602 420.405 289.781V290.802C420.405 290.981 420.565 291.126 420.763 291.126Z" fill="#3F3D56"/>
<path d="M414.62 291.126H416.975C417.173 291.126 417.333 290.981 417.333 290.802V289.781C417.333 289.602 417.173 289.457 416.975 289.457H414.62C414.422 289.457 414.262 289.602 414.262 289.781V290.802C414.262 290.981 414.422 291.126 414.62 291.126Z" fill="#3F3D56"/>
<path d="M408.477 291.126H410.832C411.03 291.126 411.19 290.981 411.19 290.802V289.781C411.19 289.602 411.03 289.457 410.832 289.457H408.477C408.279 289.457 408.119 289.602 408.119 289.781V290.802C408.119 290.981 408.279 291.126 408.477 291.126Z" fill="#3F3D56"/>
<path d="M402.334 291.126H404.689C404.887 291.126 405.047 290.981 405.047 290.802V289.781C405.047 289.602 404.887 289.457 404.689 289.457H402.334C402.136 289.457 401.976 289.602 401.976 289.781V290.802C401.976 290.981 402.136 291.126 402.334 291.126Z" fill="#3F3D56"/>
<path d="M396.191 291.126H398.546C398.744 291.126 398.904 290.981 398.904 290.802V289.781C398.904 289.602 398.744 289.457 398.546 289.457H396.191C395.993 289.457 395.833 289.602 395.833 289.781V290.802C395.833 290.981 395.993 291.126 396.191 291.126Z" fill="#3F3D56"/>
<path d="M390.048 291.126H392.403C392.601 291.126 392.761 290.981 392.761 290.802V289.781C392.761 289.602 392.601 289.457 392.403 289.457H390.048C389.85 289.457 389.69 289.602 389.69 289.781V290.802C389.69 290.981 389.85 291.126 390.048 291.126Z" fill="#3F3D56"/>
<path d="M383.904 291.126H386.26C386.458 291.126 386.618 290.981 386.618 290.802V289.781C386.618 289.602 386.458 289.457 386.26 289.457H383.904C383.707 289.457 383.546 289.602 383.546 289.781V290.802C383.546 290.981 383.707 291.126 383.904 291.126Z" fill="#3F3D56"/>
<path d="M377.761 291.126H380.117C380.315 291.126 380.475 290.981 380.475 290.802V289.781C380.475 289.602 380.315 289.457 380.117 289.457H377.761C377.564 289.457 377.403 289.602 377.403 289.781V290.802C377.403 290.981 377.564 291.126 377.761 291.126Z" fill="#3F3D56"/>
<path d="M371.618 291.126H373.974C374.172 291.126 374.332 290.981 374.332 290.802V289.781C374.332 289.602 374.172 289.457 373.974 289.457H371.618C371.421 289.457 371.26 289.602 371.26 289.781V290.802C371.26 290.981 371.421 291.126 371.618 291.126Z" fill="#3F3D56"/>
<path d="M365.475 291.126H367.831C368.028 291.126 368.189 290.981 368.189 290.802V289.781C368.189 289.602 368.028 289.457 367.831 289.457H365.475C365.277 289.457 365.117 289.602 365.117 289.781V290.802C365.117 290.981 365.277 291.126 365.475 291.126Z" fill="#3F3D56"/>
<path d="M406.634 294.464H430.49C430.688 294.464 430.848 294.318 430.848 294.139V293.119C430.848 292.94 430.688 292.795 430.49 292.795H406.634C406.436 292.795 406.276 292.94 406.276 293.119V294.139C406.276 294.318 406.436 294.464 406.634 294.464Z" fill="#3F3D56"/>
<path d="M381.359 238.214H379.273C378.641 238.214 378.129 238.679 378.129 239.251C378.129 239.824 378.641 240.288 379.273 240.288H381.359C381.991 240.288 382.504 239.824 382.504 239.251C382.504 238.679 381.991 238.214 381.359 238.214Z" fill="white"/>
<path d="M405.209 238.214H403.124C402.491 238.214 401.979 238.679 401.979 239.251C401.979 239.824 402.491 240.288 403.124 240.288H405.209C405.841 240.288 406.354 239.824 406.354 239.251C406.354 238.679 405.841 238.214 405.209 238.214Z" fill="white"/>
<path d="M411.966 238.214H409.881C409.249 238.214 408.736 238.679 408.736 239.251C408.736 239.824 409.249 240.288 409.881 240.288H411.966C412.599 240.288 413.111 239.824 413.111 239.251C413.111 238.679 412.599 238.214 411.966 238.214Z" fill="white"/>
<path d="M398.722 238.042H385.761C385.129 238.042 384.616 238.506 384.616 239.078C384.616 239.651 385.129 240.115 385.761 240.115H398.722C399.354 240.115 399.866 239.651 399.866 239.078C399.866 238.506 399.354 238.042 398.722 238.042Z" fill="white"/>
<path d="M430.522 238.042H417.561C416.929 238.042 416.416 238.506 416.416 239.078C416.416 239.651 416.929 240.115 417.561 240.115H430.522C431.154 240.115 431.667 239.651 431.667 239.078C431.667 238.506 431.154 238.042 430.522 238.042Z" fill="white"/>
<path d="M387.719 242.894H385.633C385.001 242.894 384.489 243.358 384.489 243.93C384.489 244.503 385.001 244.967 385.633 244.967H387.719C388.351 244.967 388.864 244.503 388.864 243.93C388.864 243.358 388.351 242.894 387.719 242.894Z" fill="white"/>
<path d="M411.569 242.894H409.484C408.851 242.894 408.339 243.358 408.339 243.93C408.339 244.503 408.851 244.967 409.484 244.967H411.569C412.201 244.967 412.714 244.503 412.714 243.93C412.714 243.358 412.201 242.894 411.569 242.894Z" fill="white"/>
<path d="M418.326 242.894H416.241C415.609 242.894 415.096 243.358 415.096 243.93C415.096 244.503 415.609 244.967 416.241 244.967H418.326C418.959 244.967 419.471 244.503 419.471 243.93C419.471 243.358 418.959 242.894 418.326 242.894Z" fill="white"/>
<path d="M405.082 242.721H392.121C391.489 242.721 390.976 243.185 390.976 243.758C390.976 244.33 391.489 244.794 392.121 244.794H405.082C405.714 244.794 406.226 244.33 406.226 243.758C406.226 243.185 405.714 242.721 405.082 242.721Z" fill="white"/>
<path d="M436.882 242.721H423.921C423.289 242.721 422.776 243.185 422.776 243.758C422.776 244.33 423.289 244.794 423.921 244.794H436.882C437.514 244.794 438.027 244.33 438.027 243.758C438.027 243.185 437.514 242.721 436.882 242.721Z" fill="white"/>
<path d="M394.079 247.573H391.993C391.361 247.573 390.849 248.037 390.849 248.61C390.849 249.182 391.361 249.646 391.993 249.646H394.079C394.711 249.646 395.224 249.182 395.224 248.61C395.224 248.037 394.711 247.573 394.079 247.573Z" fill="white"/>
<path d="M417.929 247.573H415.844C415.211 247.573 414.699 248.037 414.699 248.61C414.699 249.182 415.211 249.646 415.844 249.646H417.929C418.561 249.646 419.074 249.182 419.074 248.61C419.074 248.037 418.561 247.573 417.929 247.573Z" fill="white"/>
<path d="M424.687 247.573H422.601C421.969 247.573 421.456 248.037 421.456 248.61C421.456 249.182 421.969 249.646 422.601 249.646H424.687C425.319 249.646 425.831 249.182 425.831 248.61C425.831 248.037 425.319 247.573 424.687 247.573Z" fill="white"/>
<path d="M411.442 247.4H398.481C397.849 247.4 397.336 247.864 397.336 248.437C397.336 249.009 397.849 249.473 398.481 249.473H411.442C412.074 249.473 412.586 249.009 412.586 248.437C412.586 247.864 412.074 247.4 411.442 247.4Z" fill="white"/>
<path d="M443.242 247.4H430.281C429.649 247.4 429.136 247.864 429.136 248.437C429.136 249.009 429.649 249.473 430.281 249.473H443.242C443.874 249.473 444.387 249.009 444.387 248.437C444.387 247.864 443.874 247.4 443.242 247.4Z" fill="white"/>
<path d="M400.439 252.252H398.354C397.721 252.252 397.209 252.716 397.209 253.289C397.209 253.861 397.721 254.325 398.354 254.325H400.439C401.071 254.325 401.584 253.861 401.584 253.289C401.584 252.716 401.071 252.252 400.439 252.252Z" fill="white"/>
<path d="M424.289 252.252H422.204C421.571 252.252 421.059 252.716 421.059 253.289C421.059 253.861 421.571 254.325 422.204 254.325H424.289C424.921 254.325 425.434 253.861 425.434 253.289C425.434 252.716 424.921 252.252 424.289 252.252Z" fill="white"/>
<path d="M431.047 252.252H428.961C428.329 252.252 427.816 252.716 427.816 253.289C427.816 253.861 428.329 254.325 428.961 254.325H431.047C431.679 254.325 432.191 253.861 432.191 253.289C432.191 252.716 431.679 252.252 431.047 252.252Z" fill="white"/>
<path d="M417.802 252.079H404.841C404.209 252.079 403.696 252.543 403.696 253.116C403.696 253.688 404.209 254.153 404.841 254.153H417.802C418.434 254.153 418.946 253.688 418.946 253.116C418.946 252.543 418.434 252.079 417.802 252.079Z" fill="white"/>
<path d="M405.209 270.859H403.124C402.491 270.859 401.979 271.323 401.979 271.895C401.979 272.468 402.491 272.932 403.124 272.932H405.209C405.841 272.932 406.354 272.468 406.354 271.895C406.354 271.323 405.841 270.859 405.209 270.859Z" fill="white"/>
<path d="M411.966 270.859H409.881C409.249 270.859 408.736 271.323 408.736 271.895C408.736 272.468 409.249 272.932 409.881 272.932H411.966C412.599 272.932 413.111 272.468 413.111 271.895C413.111 271.323 412.599 270.859 411.966 270.859Z" fill="white"/>
<path d="M430.522 271.032H417.561C416.929 271.032 416.416 271.496 416.416 272.068C416.416 272.641 416.929 273.105 417.561 273.105H430.522C431.154 273.105 431.667 272.641 431.667 272.068C431.667 271.496 431.154 271.032 430.522 271.032Z" fill="white"/>
<path d="M381.359 270.859H379.273C378.641 270.859 378.129 271.323 378.129 271.895C378.129 272.468 378.641 272.932 379.273 272.932H381.359C381.991 272.932 382.504 272.468 382.504 271.895C382.504 271.323 381.991 270.859 381.359 270.859Z" fill="white"/>
<path d="M398.722 271.032H385.761C385.129 271.032 384.616 271.496 384.616 272.068C384.616 272.641 385.129 273.105 385.761 273.105H398.722C399.354 273.105 399.866 272.641 399.866 272.068C399.866 271.496 399.354 271.032 398.722 271.032Z" fill="white"/>
<path d="M387.719 266.18H385.633C385.001 266.18 384.489 266.644 384.489 267.216C384.489 267.789 385.001 268.253 385.633 268.253H387.719C388.351 268.253 388.864 267.789 388.864 267.216C388.864 266.644 388.351 266.18 387.719 266.18Z" fill="white"/>
<path d="M411.569 266.18H409.484C408.851 266.18 408.339 266.644 408.339 267.216C408.339 267.789 408.851 268.253 409.484 268.253H411.569C412.201 268.253 412.714 267.789 412.714 267.216C412.714 266.644 412.201 266.18 411.569 266.18Z" fill="white"/>
<path d="M418.326 266.18H416.241C415.609 266.18 415.096 266.644 415.096 267.216C415.096 267.789 415.609 268.253 416.241 268.253H418.326C418.959 268.253 419.471 267.789 419.471 267.216C419.471 266.644 418.959 266.18 418.326 266.18Z" fill="white"/>
<path d="M405.082 266.352H392.121C391.489 266.352 390.976 266.817 390.976 267.389C390.976 267.962 391.489 268.426 392.121 268.426H405.082C405.714 268.426 406.226 267.962 406.226 267.389C406.226 266.817 405.714 266.352 405.082 266.352Z" fill="white"/>
<path d="M394.079 261.5H391.993C391.361 261.5 390.849 261.964 390.849 262.537C390.849 263.109 391.361 263.574 391.993 263.574H394.079C394.711 263.574 395.224 263.109 395.224 262.537C395.224 261.964 394.711 261.5 394.079 261.5Z" fill="white"/>
<path d="M417.929 261.5H415.844C415.211 261.5 414.699 261.964 414.699 262.537C414.699 263.109 415.211 263.574 415.844 263.574H417.929C418.561 263.574 419.074 263.109 419.074 262.537C419.074 261.964 418.561 261.5 417.929 261.5Z" fill="white"/>
<path d="M424.687 261.5H422.601C421.969 261.5 421.456 261.964 421.456 262.537C421.456 263.109 421.969 263.574 422.601 263.574H424.687C425.319 263.574 425.831 263.109 425.831 262.537C425.831 261.964 425.319 261.5 424.687 261.5Z" fill="white"/>
<path d="M411.442 261.673H398.481C397.849 261.673 397.336 262.137 397.336 262.71C397.336 263.282 397.849 263.746 398.481 263.746H411.442C412.074 263.746 412.586 263.282 412.586 262.71C412.586 262.137 412.074 261.673 411.442 261.673Z" fill="white"/>
<path d="M400.439 256.821H398.354C397.721 256.821 397.209 257.285 397.209 257.858C397.209 258.43 397.721 258.894 398.354 258.894H400.439C401.071 258.894 401.584 258.43 401.584 257.858C401.584 257.285 401.071 256.821 400.439 256.821Z" fill="white"/>
<path d="M424.289 256.821H422.204C421.571 256.821 421.059 257.285 421.059 257.858C421.059 258.43 421.571 258.894 422.204 258.894H424.289C424.921 258.894 425.434 258.43 425.434 257.858C425.434 257.285 424.921 256.821 424.289 256.821Z" fill="white"/>
<path d="M431.047 256.821H428.961C428.329 256.821 427.816 257.285 427.816 257.858C427.816 258.43 428.329 258.894 428.961 258.894H431.047C431.679 258.894 432.191 258.43 432.191 257.858C432.191 257.285 431.679 256.821 431.047 256.821Z" fill="white"/>
<path d="M417.802 256.994H404.841C404.209 256.994 403.696 257.458 403.696 258.031C403.696 258.603 404.209 259.067 404.841 259.067H417.802C418.434 259.067 418.946 258.603 418.946 258.031C418.946 257.458 418.434 256.994 417.802 256.994Z" fill="white"/>
<path d="M370.272 325.698L360.482 311.685L391.21 289.505L403.893 276.781C405.541 275.128 407.639 273.896 409.978 273.207C412.317 272.518 414.814 272.397 417.22 272.856C419.627 273.315 421.858 274.338 423.691 275.822C425.524 277.307 426.895 279.201 427.667 281.315C428.81 284.448 428.564 287.861 426.981 290.834C425.398 293.806 422.601 296.105 419.182 297.246L399.126 303.936L370.272 325.698Z" fill="#FFB6B6"/>
<path d="M140.572 224.1V292.203H193.262V224.1C193.263 223.61 193.09 223.133 192.77 222.738C192.449 222.344 191.997 222.053 191.48 221.908C191.237 221.835 190.981 221.799 190.725 221.802H143.117C142.783 221.801 142.453 221.86 142.144 221.976C141.835 222.091 141.555 222.26 141.319 222.473C141.082 222.687 140.895 222.94 140.767 223.219C140.639 223.498 140.573 223.797 140.572 224.1ZM161.135 247.5C161.149 246.158 161.747 244.874 162.801 243.929C163.854 242.984 165.277 242.454 166.76 242.454C168.242 242.454 169.665 242.984 170.718 243.929C171.772 244.874 172.37 246.158 172.384 247.5V255.402C172.377 256.749 171.781 258.037 170.727 258.987C169.673 259.936 168.246 260.469 166.76 260.469C165.273 260.469 163.846 259.936 162.792 258.987C161.738 258.037 161.142 256.749 161.135 255.402V247.5Z" fill="#2F2E41"/>
<path d="M140.411 290.025V296.592C140.412 296.933 140.562 297.259 140.827 297.5C141.092 297.741 141.451 297.878 141.826 297.881H192.008C192.384 297.879 192.744 297.742 193.01 297.501C193.275 297.26 193.424 296.933 193.424 296.592V290.025H140.411Z" fill="#3F3D56"/>
<path d="M57.6838 121.493V245.84C57.6852 247.425 58.381 248.944 59.6185 250.065C60.8559 251.185 62.5338 251.815 64.2838 251.816H267.783C269.533 251.815 271.211 251.185 272.449 250.065C273.686 248.944 274.382 247.425 274.383 245.84V121.493C274.379 119.909 273.682 118.392 272.445 117.273C271.208 116.154 269.532 115.525 267.783 115.523H64.2838C62.5354 115.525 60.859 116.154 59.622 117.273C58.3849 118.392 57.688 119.909 57.6838 121.493Z" fill="#3F3D56"/>
<path d="M62.4578 123.04V244.306C62.4594 245.153 62.8315 245.964 63.4927 246.563C64.1538 247.162 65.0501 247.499 65.9851 247.5H266.089C267.024 247.499 267.921 247.162 268.582 246.563C269.243 245.964 269.615 245.153 269.617 244.306V123.04C269.617 122.192 269.245 121.379 268.584 120.779C267.923 120.179 267.025 119.841 266.089 119.839H65.9851C65.0489 119.841 64.1518 120.179 63.4906 120.779C62.8293 121.379 62.4579 122.192 62.4578 123.04Z" fill="white"/>
<path d="M99.5939 297.436C99.7975 297.667 100.056 297.853 100.351 297.981C100.646 298.109 100.969 298.174 101.295 298.173H220.344C220.67 298.172 220.991 298.106 221.285 297.979C221.579 297.852 221.838 297.668 222.043 297.439C222.248 297.21 222.394 296.942 222.471 296.656C222.547 296.369 222.552 296.071 222.486 295.782L220.638 287.834C220.561 287.51 220.396 287.208 220.158 286.956C219.92 286.705 219.616 286.511 219.274 286.393C219.026 286.305 218.762 286.26 218.496 286.26H103.136C102.87 286.26 102.606 286.305 102.359 286.393C102.016 286.511 101.712 286.705 101.474 286.956C101.236 287.208 101.071 287.51 100.995 287.834L99.1465 295.782C99.0808 296.071 99.0868 296.369 99.1642 296.655C99.2416 296.941 99.3883 297.208 99.5939 297.436Z" fill="#2F2E41"/>
<path d="M259.595 136.544H72.3586C72.164 136.54 71.9788 136.467 71.8427 136.341C71.7066 136.215 71.6304 136.046 71.6304 135.87C71.6304 135.694 71.7066 135.524 71.8427 135.398C71.9788 135.272 72.164 135.2 72.3586 135.196H259.595C259.79 135.2 259.975 135.272 260.111 135.398C260.247 135.524 260.324 135.694 260.324 135.87C260.324 136.046 260.247 136.215 260.111 136.341C259.975 136.467 259.79 136.54 259.595 136.544Z" fill="#3F3D56"/>
<path d="M85.1041 131.753C87.5141 131.753 89.4678 129.945 89.4678 127.714C89.4678 125.483 87.5141 123.675 85.1041 123.675C82.6941 123.675 80.7405 125.483 80.7405 127.714C80.7405 129.945 82.6941 131.753 85.1041 131.753Z" fill="#3F3D56"/>
<path d="M100.179 131.753C102.589 131.753 104.542 129.945 104.542 127.714C104.542 125.483 102.589 123.675 100.179 123.675C97.7686 123.675 95.8149 125.483 95.8149 127.714C95.8149 129.945 97.7686 131.753 100.179 131.753Z" fill="#3F3D56"/>
<path d="M115.253 131.753C117.663 131.753 119.616 129.945 119.616 127.714C119.616 125.483 117.663 123.675 115.253 123.675C112.843 123.675 110.889 125.483 110.889 127.714C110.889 129.945 112.843 131.753 115.253 131.753Z" fill="#3F3D56"/>
<path d="M250.518 124.673H239.811C239.6 124.678 239.398 124.757 239.251 124.894C239.103 125.031 239.02 125.216 239.02 125.407C239.02 125.599 239.103 125.783 239.251 125.92C239.398 126.057 239.6 126.137 239.811 126.141H250.518C250.731 126.138 250.934 126.06 251.084 125.922C251.233 125.785 251.317 125.6 251.317 125.407C251.317 125.214 251.233 125.029 251.084 124.892C250.934 124.755 250.731 124.676 250.518 124.673Z" fill="#3F3D56"/>
<path d="M250.518 127.429H239.811C239.6 127.433 239.398 127.513 239.25 127.65C239.102 127.787 239.019 127.971 239.019 128.163C239.019 128.355 239.102 128.539 239.25 128.676C239.398 128.813 239.6 128.892 239.811 128.897H250.518C250.731 128.894 250.935 128.816 251.085 128.679C251.235 128.541 251.319 128.356 251.319 128.163C251.319 127.97 251.235 127.785 251.085 127.647C250.935 127.51 250.731 127.432 250.518 127.429Z" fill="#3F3D56"/>
<path d="M250.518 130.185H239.811C239.6 130.189 239.398 130.269 239.251 130.406C239.103 130.543 239.02 130.727 239.02 130.919C239.02 131.11 239.103 131.294 239.251 131.431C239.398 131.569 239.6 131.648 239.811 131.652H250.518C250.731 131.65 250.934 131.571 251.084 131.434C251.233 131.296 251.317 131.111 251.317 130.919C251.317 130.726 251.233 130.541 251.084 130.403C250.934 130.266 250.731 130.188 250.518 130.185Z" fill="#3F3D56"/>
<path d="M508.636 292.907C508.959 293.759 509.572 294.496 510.386 295.013C511.201 295.53 512.176 295.799 513.17 295.783L532.597 295.331C533.599 295.313 534.568 295.002 535.358 294.445C536.149 293.887 536.719 293.113 536.983 292.238L539.732 265.619C540.708 266.019 541.77 266.216 542.84 266.197C543.77 266.176 544.687 265.989 545.537 265.647C546.388 265.305 547.155 264.815 547.796 264.205C548.438 263.594 548.94 262.875 549.274 262.089C549.608 261.303 549.769 260.465 549.745 259.622C549.722 258.78 549.515 257.95 549.138 257.18C548.76 256.41 548.219 255.715 547.545 255.135C546.871 254.554 546.077 254.099 545.209 253.797C544.34 253.494 543.415 253.349 542.485 253.37C542.057 253.369 541.63 253.409 541.211 253.49C540.756 253.044 540.203 252.69 539.588 252.449C538.972 252.208 538.308 252.087 537.637 252.093L507.754 252.792C507.506 252.801 507.259 252.828 507.016 252.875C506.361 252.986 505.739 253.222 505.193 253.569C504.648 253.915 504.19 254.363 503.851 254.883C503.513 255.403 503.301 255.983 503.23 256.583C503.16 257.183 503.232 257.79 503.443 258.363L508.636 292.907ZM540.296 263.811L542.252 257.468C542.475 256.735 542.48 255.962 542.267 255.227C542.362 255.227 542.446 255.186 542.541 255.186C543.882 255.161 545.18 255.618 546.149 256.458C547.119 257.298 547.681 258.452 547.712 259.666C547.743 260.881 547.242 262.057 546.317 262.937C545.392 263.817 544.119 264.329 542.778 264.361C541.911 264.386 541.053 264.196 540.296 263.811Z" fill="#2F2E41"/>
<path d="M507.016 252.875C507.653 256.172 514.811 258.489 523.418 258.086C531.333 257.756 537.804 255.239 538.99 252.257C538.551 252.139 538.095 252.084 537.637 252.094L507.753 252.792C507.506 252.801 507.259 252.828 507.016 252.875Z" fill="#3F3D56"/>
<path d="M524.995 278.28C525.035 278.271 525.072 278.256 525.106 278.236L529.325 275.735C529.376 275.705 529.418 275.664 529.447 275.615C529.476 275.567 529.491 275.513 529.491 275.458C529.491 275.402 529.476 275.348 529.447 275.3C529.418 275.251 529.376 275.21 529.325 275.18L524.94 272.579C524.9 272.555 524.855 272.538 524.807 272.53C524.76 272.522 524.711 272.522 524.664 272.531C524.617 272.54 524.572 272.557 524.532 272.581C524.492 272.606 524.458 272.637 524.431 272.674C524.405 272.71 524.387 272.751 524.378 272.794C524.369 272.837 524.369 272.881 524.379 272.924C524.389 272.967 524.408 273.007 524.436 273.043C524.463 273.079 524.498 273.11 524.538 273.134L528.455 275.457L524.705 277.68C524.632 277.723 524.579 277.788 524.554 277.863C524.529 277.939 524.535 278.019 524.57 278.091C524.604 278.163 524.666 278.222 524.744 278.256C524.822 278.291 524.911 278.299 524.995 278.28Z" fill="#FF6363"/>
<path d="M518.332 278.558C518.403 278.542 518.466 278.507 518.515 278.457C518.564 278.408 518.595 278.347 518.605 278.281C518.615 278.216 518.603 278.149 518.571 278.09C518.539 278.03 518.488 277.981 518.424 277.948L514.535 275.929L518.294 273.401C518.333 273.375 518.365 273.342 518.39 273.305C518.415 273.268 518.431 273.226 518.438 273.183C518.445 273.14 518.443 273.096 518.431 273.054C518.419 273.012 518.398 272.972 518.37 272.937C518.341 272.902 518.305 272.872 518.264 272.85C518.222 272.828 518.177 272.813 518.129 272.807C518.081 272.8 518.033 272.802 517.986 272.813C517.94 272.824 517.896 272.842 517.857 272.868L513.649 275.699C513.6 275.732 513.561 275.775 513.535 275.825C513.509 275.875 513.498 275.93 513.501 275.985C513.505 276.04 513.523 276.093 513.555 276.14C513.588 276.187 513.632 276.226 513.685 276.253L518.059 278.524C518.142 278.567 518.24 278.579 518.332 278.558Z" fill="#FF6363"/>
<path d="M524.576 280.471C524.611 280.463 524.645 280.45 524.676 280.433C524.717 280.41 524.753 280.38 524.782 280.345C524.81 280.31 524.831 280.27 524.842 280.227C524.853 280.185 524.856 280.141 524.848 280.098C524.841 280.055 524.824 280.014 524.799 279.976L518.818 271.073C518.768 270.998 518.686 270.944 518.592 270.923C518.497 270.902 518.398 270.917 518.315 270.962C518.232 271.008 518.172 271.082 518.149 271.167C518.126 271.253 518.141 271.343 518.192 271.418L524.172 280.322C524.213 280.383 524.274 280.43 524.347 280.457C524.42 280.483 524.5 280.488 524.576 280.471Z" fill="#FF6363"/>
<path d="M188.349 173.199H155.942C154.62 173.199 153.548 174.169 153.548 175.366V178.233C153.548 179.43 154.62 180.401 155.942 180.401H188.349C189.671 180.401 190.742 179.43 190.742 178.233V175.366C190.742 174.169 189.671 173.199 188.349 173.199Z" fill="#FF6363"/>
<path d="M207.238 187.603H137.052C135.73 187.603 134.659 188.573 134.659 189.77V192.637C134.659 193.834 135.73 194.804 137.052 194.804H207.238C208.56 194.804 209.632 193.834 209.632 192.637V189.77C209.632 188.573 208.56 187.603 207.238 187.603Z" fill="#E6E6E6"/>
<path d="M207.238 202.006H137.052C135.73 202.006 134.659 202.977 134.659 204.174V207.041C134.659 208.238 135.73 209.208 137.052 209.208H207.238C208.56 209.208 209.632 208.238 209.632 207.041V204.174C209.632 202.977 208.56 202.006 207.238 202.006Z" fill="#E6E6E6"/>
<path d="M213.188 250.239L213.347 250.694L213.355 250.709L218.14 263.882L223.645 279.063L234.001 307.591L234.102 312.022V312.037L234.871 347.686L232.738 352.518L235.139 360.442C235.139 360.442 234.035 348.465 228.112 355.343C224.757 359.252 220.834 363.251 217.613 367.001C222.306 368.721 227.075 370.276 231.918 371.667C232.964 371.97 234.018 372.258 235.072 372.546C235.298 372.607 235.524 372.667 235.75 372.728C251.806 377.027 268.405 379.443 285.14 379.917C286.01 379.939 286.864 379.955 287.692 379.97C287.985 379.977 288.269 379.985 288.553 379.985C289.49 379.992 290.419 380 291.356 380C293.247 380 295.129 379.975 297.003 379.924C310.872 379.57 324.661 377.882 338.136 374.887C338.044 369.849 337.793 363.963 337.434 357.676C337.266 354.593 333.51 351.252 333.284 348.025C333.125 345.601 336.497 343.321 336.321 340.859C335.183 325.702 333.761 331.52 332.707 320.786C332.598 319.733 332.498 318.726 332.406 317.764C331.728 310.871 331.26 306.56 331.26 306.56L335.761 280.873L342.83 240.543L342.286 239.733L341.675 239.46L304.39 222.749L302.365 218.053C301.775 216.7 300.752 215.537 299.426 214.715C298.101 213.893 296.535 213.449 294.928 213.439L270.367 213.349C269.092 213.343 267.834 213.613 266.698 214.136C265.562 214.66 264.58 215.42 263.833 216.356L257.182 224.696L213.188 250.239Z" fill="#3F3D56"/>
<path d="M239.665 301.243L234.102 312.022L230.304 319.385L223.77 350.36L220.499 353.503L217.697 342.374L188.365 348.272C187.403 343.431 188.108 348.435 187.514 343.125C187.681 342.974 187.857 342.822 188.032 342.671C188.501 342.277 188.894 341.906 188.886 341.55C188.551 323.233 189.555 292.061 197.937 273.177C199.25 270.093 200.981 267.17 203.09 264.473C203.258 264.268 203.417 264.064 203.576 263.859C207.441 258.958 209.883 254.133 213.347 250.701V250.694C213.368 250.678 213.388 250.66 213.405 250.641C213.418 250.635 213.429 250.627 213.439 250.618L237.23 239.195L238.251 265.162L238.979 283.827L239.665 301.243Z" fill="#3F3D56"/>
<path d="M325.454 304.304L332.403 317.768L334.828 322.456L341.36 353.428L344.62 356.564L347.429 345.438L348.749 345.193L372.552 340.729L379.489 360.681C381.053 358.321 381.669 355.546 381.233 352.823C380.798 350.1 379.337 347.596 377.098 345.736C376.624 345.348 376.229 344.97 376.24 344.613C376.635 323.069 375.18 283.731 362.038 267.541C357.864 262.402 355.359 257.285 351.716 253.709C351.704 253.699 351.704 253.689 351.693 253.689L342.826 240.542L342.285 239.735L341.676 239.46L325.454 304.304Z" fill="#3F3D56"/>
<path d="M283.357 207.019C301.403 207.019 316.033 193.772 316.033 177.431C316.033 161.09 301.403 147.843 283.357 147.843C265.31 147.843 250.681 161.09 250.681 177.431C250.681 193.772 265.31 207.019 283.357 207.019Z" fill="#FFB6B6"/>
<path d="M327.522 156.764C327.269 156.519 326.964 156.322 326.625 156.187C326.286 156.051 325.92 155.978 325.549 155.973L326.041 154.738C326.201 154.349 326.244 153.929 326.166 153.519C326.088 153.11 325.891 152.727 325.596 152.41C325.3 152.092 324.917 151.851 324.485 151.712C324.053 151.573 323.587 151.54 323.137 151.617L321.347 151.929L321.516 150.847C321.581 150.444 321.528 150.032 321.364 149.653C321.2 149.274 320.93 148.94 320.58 148.684C320.23 148.428 319.812 148.259 319.368 148.193C318.924 148.128 318.469 148.168 318.048 148.31C317.664 148.447 317.251 148.504 316.84 148.478C316.429 148.451 316.03 148.342 315.671 148.158C315.312 147.979 314.999 147.731 314.756 147.432C314.513 147.133 314.345 146.789 314.263 146.424L313.64 143.702L313.574 143.556C310.538 138.974 304.701 135.641 297.558 134.419C291.2 133.323 284.681 133.881 278.396 134.405C275.903 134.618 273.087 134.857 270.74 136.158C268.746 137.274 267.059 139.505 267.404 141.756C261.207 140.036 254.563 143.47 251.27 147.799C247.369 152.952 246.731 159.406 246.628 164.453C246.35 176.392 249.07 186.16 254.695 193.491C255.106 194.023 255.208 195.132 256.022 195.503L255.854 195.258C256.763 195.669 257.687 196.333 257.342 197.044C256.352 199.089 262.93 203.611 267.565 205.105C276.02 207.835 287.262 207.602 295.168 206.619L295.446 204.926C298.299 204.574 300.308 203.903 300.873 202.854C301.87 202.084 302.721 201.393 303.462 200.756L303.469 200.749C303.484 200.736 303.513 200.716 303.527 200.703C307.099 197.602 307.927 195.835 308.301 193.146C308.661 190.51 308.023 187.834 307.37 185.423C321.113 187.349 301.958 172.169 314.762 169.234C314.909 169.193 315.058 169.16 315.209 169.135C315.583 169.055 315.957 168.975 316.317 168.882C318.049 168.456 319.707 167.815 321.245 166.976C324.823 165.004 326.004 162.388 327.852 159.44C328.119 159.02 328.231 158.534 328.171 158.053C328.112 157.571 327.884 157.12 327.522 156.764Z" fill="#2F2E41"/>
<path d="M398.927 306.411C398.919 307.573 398.905 309.2 398.846 311.212C398.839 311.491 398.831 311.776 398.824 312.068C398.729 315.767 398.633 318.868 398.479 322.314C398.472 322.553 398.465 322.786 398.45 323.025C398.245 327.833 397.922 333.43 397.365 342.295C396.331 358.67 394.527 344.546 392.715 350.29C392.627 350.576 392.532 350.914 392.444 351.313C392.17 352.758 391.707 354.169 391.065 355.516C390.105 356.034 389.115 356.532 388.139 357.03C385.36 358.431 382.537 359.779 379.692 361.061C378.093 361.778 376.487 362.482 374.874 363.159C374.617 363.266 374.368 363.372 374.118 363.471C365.857 366.932 357.342 369.874 348.635 372.277C346.934 372.741 345.24 373.193 343.524 373.611C341.734 374.063 339.945 374.488 338.134 374.886C324.659 377.882 310.87 379.571 297.001 379.926C295.131 379.979 293.246 379.999 291.354 379.999C290.416 379.999 289.492 379.993 288.553 379.986C288.267 379.986 287.981 379.979 287.695 379.973C286.866 379.953 286.008 379.939 285.143 379.92C268.408 379.447 251.809 377.03 235.753 372.728L235.071 372.549C234.015 372.257 232.967 371.971 231.918 371.666C227.078 370.278 222.309 368.724 217.611 367.004C214.025 365.696 210.48 364.293 206.977 362.794C206.945 362.786 206.915 362.773 206.889 362.754C206.156 362.449 205.415 362.13 204.682 361.805C204.587 361.758 204.484 361.712 204.381 361.665C201.646 360.457 198.94 359.191 196.263 357.867C194.012 353.185 190.844 352.289 188.879 348.172C188.307 346.949 187.893 345.67 187.647 344.36C187.647 344.347 187.639 344.334 187.639 344.314C187.845 346.784 186.767 339.931 187.632 344.287C187.625 344.208 187.617 344.121 187.61 344.022C187.588 343.783 187.559 343.491 187.515 343.125C184.999 320.887 185.161 295.454 184.068 274.497C183.995 273.143 183.919 271.845 183.841 270.606C183.819 270.194 183.789 269.789 183.76 269.391C183.811 269.271 183.87 269.145 183.936 269.025C183.95 268.991 183.967 268.958 183.987 268.926C184.009 268.885 184.033 268.845 184.061 268.806C184.075 268.786 184.097 268.76 184.112 268.74C184.123 268.717 184.135 268.695 184.149 268.674C184.215 268.581 184.288 268.481 184.369 268.388C184.405 268.348 184.435 268.315 184.471 268.282C184.497 268.248 184.526 268.217 184.559 268.189C184.582 268.157 184.609 268.128 184.64 268.103C184.669 268.076 184.699 268.043 184.735 268.01C184.751 267.989 184.771 267.971 184.794 267.956C184.852 267.896 184.916 267.841 184.985 267.79C185.246 267.572 185.526 267.373 185.821 267.193C185.923 267.133 186.033 267.073 186.136 267.007C186.875 266.607 187.653 266.269 188.461 265.998C188.739 265.905 189.018 265.818 189.319 265.725C189.429 265.699 189.531 265.666 189.641 265.632C189.803 265.586 189.964 265.539 190.133 265.506C190.969 265.28 191.871 265.088 192.846 264.908C192.963 264.889 193.088 264.869 193.213 264.842C193.389 264.809 193.572 264.782 193.755 264.756C194.005 264.716 194.261 264.676 194.518 264.636C196.696 264.324 199.167 264.092 201.895 263.939C202.152 263.926 202.409 263.912 202.665 263.899C202.966 263.886 203.267 263.873 203.575 263.859C203.831 263.846 204.095 263.839 204.359 263.833C204.616 263.819 204.88 263.813 205.151 263.806C205.892 263.786 206.655 263.766 207.432 263.753C209.647 263.713 211.979 263.727 214.428 263.773C215.565 263.8 216.723 263.826 217.911 263.873C217.992 263.873 218.065 263.879 218.139 263.879C219.173 263.912 220.214 263.952 221.285 264.005C222.033 264.039 222.788 264.072 223.543 264.112C224.255 264.152 224.973 264.191 225.699 264.238C226.264 264.264 226.829 264.304 227.401 264.337C227.885 264.371 228.369 264.404 228.853 264.43L229.513 264.47C229.872 264.497 230.231 264.517 230.598 264.55C231.405 264.61 232.211 264.669 233.033 264.729C233.847 264.796 234.675 264.862 235.504 264.928C236.333 264.995 237.169 265.068 238.005 265.141C238.093 265.148 238.173 265.154 238.254 265.161C239.017 265.234 239.779 265.3 240.549 265.373C240.725 265.387 240.909 265.4 241.085 265.42C241.819 265.487 242.567 265.565 243.308 265.636C243.535 265.658 243.762 265.68 243.99 265.702C244.57 265.76 245.142 265.809 245.726 265.871C246.496 265.951 247.281 266.024 248.044 266.117C248.638 266.177 249.232 266.237 249.826 266.303C250.757 266.403 251.703 266.509 252.649 266.622C253.008 266.662 253.368 266.701 253.727 266.748C256.426 267.053 259.154 267.392 261.926 267.744C266.128 268.282 270.396 268.866 274.693 269.497C278.998 270.128 283.327 270.794 287.68 271.496C288.78 271.675 289.88 271.854 290.988 272.04C291.486 272.127 291.985 272.213 292.484 272.299C293.334 272.439 294.185 272.585 295.036 272.731C295.886 272.877 296.737 273.023 297.588 273.176C298.6 273.355 299.619 273.534 300.631 273.714C307.297 274.909 313.926 276.184 320.394 277.519C321.458 277.738 322.521 277.963 323.577 278.183C325.689 278.627 327.781 279.079 329.854 279.537C330.426 279.657 330.991 279.783 331.556 279.909C332.964 280.228 334.372 280.547 335.758 280.872L336 280.932C337.019 281.157 338.016 281.39 339.014 281.629C341.368 282.187 343.682 282.751 345.958 283.322C347.469 283.701 348.962 284.084 350.439 284.471C352.646 285.049 354.81 285.633 356.914 286.224C357.435 286.37 357.956 286.516 358.469 286.656C360.009 287.087 361.527 287.526 363.001 287.964C364.174 288.309 365.318 288.661 366.447 289.013C367.577 289.365 368.684 289.717 369.77 290.069C370.466 290.295 371.155 290.534 371.845 290.759C372.835 291.091 373.81 291.423 374.763 291.755C375.057 291.855 375.343 291.961 375.629 292.061C375.812 292.134 375.988 292.194 376.164 292.26C376.509 292.386 376.861 292.506 377.198 292.632C377.543 292.752 377.88 292.878 378.217 293.01C378.547 293.13 378.885 293.256 379.207 293.382C379.537 293.502 379.86 293.628 380.183 293.761C380.454 293.86 380.718 293.967 380.975 294.073C381.495 294.279 382.016 294.485 382.522 294.697C382.771 294.803 383.021 294.903 383.27 295.009L383.842 295.248C383.923 295.288 384.003 295.321 384.084 295.355C384.267 295.434 384.458 295.521 384.641 295.6C385.067 295.78 385.485 295.972 385.895 296.151C386.445 296.404 386.981 296.656 387.494 296.902C388.015 297.154 388.521 297.406 389.005 297.652C389.085 297.692 389.159 297.732 389.239 297.772C389.349 297.825 389.459 297.885 389.569 297.938C389.943 298.13 390.303 298.329 390.662 298.522C391.366 298.914 392.033 299.299 392.657 299.684C392.796 299.77 392.928 299.857 393.067 299.936C393.529 300.235 393.969 300.527 394.38 300.826C394.38 300.833 394.38 300.833 394.387 300.833C394.527 300.926 394.659 301.025 394.791 301.118C394.901 301.211 395.018 301.291 395.128 301.384C395.509 301.683 395.861 301.968 396.184 302.26C396.292 302.351 396.395 302.446 396.492 302.546C396.535 302.578 396.574 302.614 396.609 302.652C396.756 302.785 396.888 302.918 397.013 303.051C397.032 303.069 397.049 303.089 397.064 303.11C397.24 303.296 397.401 303.482 397.555 303.668C397.629 303.761 397.709 303.854 397.775 303.947C397.863 304.06 397.951 304.18 398.025 304.292C398.091 304.385 398.149 304.485 398.208 304.578C398.364 304.817 398.496 305.068 398.604 305.328C398.687 305.505 398.753 305.687 398.802 305.873C398.858 306.049 398.899 306.229 398.927 306.411Z" fill="#2F2E41"/>
<path opacity="0.2" d="M398.927 306.411C398.919 307.573 398.905 309.2 398.846 311.212C398.839 311.491 398.824 311.776 398.817 312.068C398.743 314.891 398.633 318.377 398.479 322.314C398.472 322.553 398.465 322.786 398.45 323.025C398.245 327.833 397.922 333.43 397.365 342.295C396.331 358.67 394.527 344.546 392.715 350.29C387.685 347.488 382.17 344.553 376.274 341.538C375.211 340.994 374.138 340.447 373.055 339.898C361.263 333.942 348.092 327.7 334.342 321.518C333.799 321.272 333.249 321.026 332.707 320.787C301.21 306.69 266.832 292.977 238.98 283.827C233.604 282.061 228.471 280.467 223.646 279.066C213.482 276.124 204.696 274.066 197.935 273.176C190.895 272.246 186.033 272.578 184.068 274.497C183.994 273.143 183.919 271.845 183.84 270.606C183.811 270.194 183.782 269.789 183.752 269.391C183.798 269.281 183.857 269.177 183.913 269.072C183.922 269.057 183.927 269.041 183.936 269.026C183.95 268.991 183.967 268.958 183.987 268.926C184.009 268.885 184.033 268.845 184.06 268.806C184.084 268.759 184.114 268.715 184.148 268.674C184.214 268.581 184.288 268.481 184.368 268.388C184.428 268.318 184.491 268.252 184.559 268.189C184.582 268.157 184.609 268.128 184.64 268.102C184.669 268.076 184.698 268.043 184.735 268.01C184.751 267.989 184.771 267.971 184.794 267.956C184.852 267.896 184.916 267.841 184.984 267.79C185.246 267.572 185.526 267.373 185.82 267.193C185.923 267.133 186.033 267.073 186.136 267.007C186.875 266.606 187.653 266.269 188.46 265.998C188.739 265.905 189.018 265.818 189.318 265.725C189.428 265.699 189.531 265.666 189.641 265.632C189.802 265.586 189.964 265.539 190.132 265.506C190.968 265.28 191.87 265.088 192.846 264.908C193.139 264.855 193.447 264.802 193.755 264.756C194.004 264.716 194.261 264.676 194.518 264.636C196.696 264.324 199.167 264.092 201.895 263.939C202.152 263.926 202.408 263.912 202.665 263.899C202.966 263.886 203.266 263.873 203.574 263.859C203.831 263.846 204.095 263.839 204.359 263.833C204.616 263.819 204.88 263.813 205.151 263.806C205.892 263.786 206.654 263.766 207.432 263.753C209.646 263.72 211.978 263.733 214.428 263.78C215.564 263.8 216.723 263.833 217.911 263.879C217.984 263.879 218.065 263.886 218.138 263.886C219.172 263.912 220.221 263.959 221.284 264.005C222.032 264.039 222.788 264.072 223.543 264.112C224.254 264.151 224.973 264.191 225.699 264.238C226.264 264.264 226.828 264.304 227.4 264.337C227.884 264.371 228.368 264.404 228.852 264.43C229.432 264.47 230.011 264.51 230.598 264.55C231.404 264.61 232.211 264.669 233.032 264.729C233.846 264.796 234.675 264.862 235.504 264.928C236.332 264.995 237.168 265.068 238.004 265.141C238.092 265.148 238.173 265.154 238.254 265.161C239.016 265.234 239.779 265.3 240.549 265.373C244.817 265.765 249.21 266.223 253.727 266.748C256.426 267.06 259.158 267.394 261.926 267.751C266.128 268.288 270.396 268.873 274.693 269.497C278.998 270.128 283.327 270.794 287.68 271.496C288.78 271.675 289.88 271.854 290.987 272.04C292.337 272.266 293.686 272.496 295.035 272.731C295.886 272.877 296.737 273.023 297.587 273.176C298.599 273.355 299.619 273.534 300.631 273.714C307.297 274.909 313.926 276.184 320.394 277.519C321.457 277.738 322.521 277.963 323.577 278.183C325.689 278.627 327.781 279.079 329.854 279.537C330.426 279.663 330.991 279.79 331.555 279.916C332.971 280.234 334.371 280.553 335.757 280.872V280.879C335.838 280.892 335.919 280.912 335.999 280.932C337.011 281.164 338.016 281.397 339.013 281.636C341.367 282.193 343.682 282.756 345.958 283.322C347.469 283.707 348.965 284.086 350.439 284.471C352.646 285.055 354.809 285.64 356.914 286.224C357.435 286.37 357.955 286.516 358.469 286.656C360.009 287.094 361.519 287.53 363.001 287.964C364.174 288.309 365.318 288.661 366.447 289.013C367.577 289.365 368.684 289.717 369.769 290.069C370.473 290.295 371.163 290.527 371.845 290.753C372.842 291.085 373.81 291.417 374.763 291.755C375.057 291.855 375.343 291.961 375.629 292.061C376.164 292.247 376.685 292.439 377.198 292.632C377.543 292.752 377.88 292.878 378.217 293.011C378.547 293.13 378.885 293.256 379.207 293.382C379.537 293.502 379.86 293.628 380.183 293.761C380.454 293.86 380.718 293.967 380.975 294.073C381.495 294.279 382.016 294.485 382.522 294.697C382.771 294.803 383.021 294.903 383.27 295.009L383.842 295.248C383.923 295.288 384.003 295.321 384.084 295.355C384.707 295.62 385.309 295.886 385.895 296.151C386.445 296.404 386.981 296.656 387.494 296.902C388.103 297.194 388.682 297.479 389.239 297.772C389.349 297.825 389.459 297.885 389.569 297.938C389.943 298.13 390.303 298.329 390.662 298.522C391.366 298.914 392.033 299.299 392.657 299.684C393.273 300.069 393.845 300.448 394.38 300.826C394.38 300.833 394.38 300.833 394.387 300.833C394.644 301.019 394.893 301.205 395.128 301.384C395.509 301.683 395.861 301.968 396.184 302.26C396.292 302.351 396.395 302.446 396.492 302.546C396.535 302.578 396.574 302.614 396.609 302.652C396.763 302.805 396.917 302.958 397.064 303.11C397.24 303.296 397.401 303.482 397.555 303.668C397.629 303.761 397.709 303.854 397.775 303.947C397.863 304.06 397.951 304.18 398.025 304.292C398.091 304.385 398.149 304.485 398.208 304.578C398.364 304.817 398.496 305.068 398.604 305.328C398.684 305.505 398.75 305.687 398.802 305.873C398.858 306.049 398.899 306.229 398.927 306.411Z" fill="black"/>
</g>
<defs>
<clipPath id="clip0_86_29">
<rect width="577" height="380" fill="white"/>
</clipPath>
</defs>
</svg>
